<?xml version="1.0" standalone="no"?>
<!DOCTYPE svg PUBLIC "-//W3C//DTD SVG 20010904//EN"
 "http://www.w3.org/TR/2001/REC-SVG-20010904/DTD/svg10.dtd">
<svg version="1.0" xmlns="http://www.w3.org/2000/svg"
 width="1734.000000pt" height="194.000000pt" viewBox="0 0 1734.000000 194.000000"
 preserveAspectRatio="xMidYMid meet">
<metadata>
Created by potrace 1.16, written by Peter Selinger 2001-2019
</metadata>
<g transform="translate(0.000000,194.000000) scale(0.100000,-0.100000)"
fill="#000000" stroke="none">
<path d="M342 1418 c-7 -7 -12 -18 -12 -25 0 -7 -9 -13 -20 -13 -11 0 -20 -7
-20 -15 0 -8 9 -15 20 -15 17 0 20 -7 20 -40 0 -33 -3 -40 -20 -40 -11 0 -20
-4 -20 -10 0 -5 25 -10 55 -10 30 0 55 5 55 10 0 6 -9 10 -20 10 -17 0 -20 7
-20 39 0 33 4 40 23 43 12 2 22 8 22 13 0 6 -10 11 -22 13 -13 2 -23 8 -23 13
0 5 11 7 25 3 21 -5 25 -3 25 15 0 16 -6 21 -28 21 -15 0 -33 -5 -40 -12z"/>
<path d="M490 1410 c0 -15 5 -20 18 -18 9 2 17 10 17 18 0 8 -8 16 -17 18 -13
2 -18 -3 -18 -18z"/>
<path d="M4692 1418 c3 -7 14 -14 26 -16 20 -3 22 -9 22 -68 0 -62 -1 -64 -25
-64 -14 0 -25 -4 -25 -10 0 -6 28 -10 65 -10 37 0 65 4 65 10 0 6 -11 10 -25
10 -25 0 -25 1 -25 80 l0 80 -41 0 c-28 0 -39 -4 -37 -12z"/>
<path d="M6172 1418 c-7 -7 -12 -18 -12 -25 0 -7 -9 -13 -20 -13 -11 0 -20 -7
-20 -15 0 -8 9 -15 20 -15 17 0 20 -7 20 -40 0 -33 -3 -40 -20 -40 -11 0 -20
-4 -20 -10 0 -5 25 -10 55 -10 30 0 55 5 55 10 0 6 -9 10 -20 10 -17 0 -20 7
-20 39 0 33 4 40 23 43 12 2 22 8 22 13 0 6 -10 11 -22 13 -13 2 -23 8 -23 13
0 5 11 7 25 3 21 -5 25 -3 25 15 0 16 -6 21 -28 21 -15 0 -33 -5 -40 -12z"/>
<path d="M6320 1410 c0 -15 5 -20 18 -18 9 2 17 10 17 18 0 8 -8 16 -17 18
-13 2 -18 -3 -18 -18z"/>
<path d="M10572 1418 c3 -7 14 -14 26 -16 20 -3 22 -9 22 -68 0 -62 -1 -64
-25 -64 -14 0 -25 -4 -25 -10 0 -6 28 -10 65 -10 37 0 65 4 65 10 0 6 -11 10
-25 10 -25 0 -25 1 -25 80 l0 80 -41 0 c-28 0 -39 -4 -37 -12z"/>
<path d="M12052 1418 c-7 -7 -12 -18 -12 -25 0 -7 -9 -13 -20 -13 -11 0 -20
-7 -20 -15 0 -8 9 -15 20 -15 17 0 20 -7 20 -40 0 -33 -3 -40 -20 -40 -11 0
-20 -4 -20 -10 0 -5 25 -10 55 -10 30 0 55 5 55 10 0 6 -9 10 -20 10 -17 0
-20 7 -20 39 0 33 4 40 23 43 12 2 22 8 22 13 0 6 -10 11 -22 13 -13 2 -23 8
-23 13 0 5 11 7 25 3 21 -5 25 -3 25 15 0 16 -6 21 -28 21 -15 0 -33 -5 -40
-12z"/>
<path d="M12200 1410 c0 -15 5 -20 18 -18 9 2 17 10 17 18 0 8 -8 16 -17 18
-13 2 -18 -3 -18 -18z"/>
<path d="M16462 1418 c3 -7 14 -14 26 -16 20 -3 22 -9 22 -68 0 -62 -1 -64
-25 -64 -14 0 -25 -4 -25 -10 0 -6 28 -10 65 -10 37 0 65 4 65 10 0 6 -11 10
-25 10 -25 0 -25 1 -25 80 l0 80 -41 0 c-28 0 -39 -4 -37 -12z"/>
<path d="M930 1396 c0 -7 -9 -16 -21 -19 -23 -6 -17 -27 7 -27 10 0 14 -13 14
-45 0 -38 4 -47 23 -54 12 -5 29 -6 37 -3 17 5 40 31 40 44 0 15 -29 8 -38 -8
-14 -25 -32 -7 -32 32 0 31 2 34 30 34 20 0 30 5 30 15 0 10 -10 15 -30 15
-20 0 -30 5 -30 15 0 8 -7 15 -15 15 -8 0 -15 -6 -15 -14z"/>
<path d="M5190 1396 c0 -7 -9 -16 -21 -19 -23 -6 -17 -27 7 -27 10 0 14 -13
14 -45 0 -38 4 -47 23 -54 12 -5 29 -6 37 -3 17 5 40 31 40 44 0 15 -29 8 -38
-8 -14 -25 -32 -7 -32 32 0 31 2 34 30 34 20 0 30 5 30 15 0 10 -10 15 -30 15
-20 0 -30 5 -30 15 0 8 -7 15 -15 15 -8 0 -15 -6 -15 -14z"/>
<path d="M6770 1396 c0 -7 -9 -16 -21 -19 -23 -6 -17 -27 7 -27 10 0 14 -13
14 -45 0 -38 4 -47 23 -54 12 -5 29 -6 37 -3 17 5 40 31 40 44 0 15 -29 8 -38
-8 -14 -25 -32 -7 -32 32 0 31 2 34 30 34 20 0 30 5 30 15 0 10 -10 15 -30 15
-20 0 -30 5 -30 15 0 8 -7 15 -15 15 -8 0 -15 -6 -15 -14z"/>
<path d="M11070 1396 c0 -7 -9 -16 -21 -19 -23 -6 -17 -27 7 -27 10 0 14 -13
14 -45 0 -38 4 -47 23 -54 12 -5 29 -6 37 -3 17 5 40 31 40 44 0 15 -29 8 -38
-8 -14 -25 -32 -7 -32 32 0 31 2 34 30 34 20 0 30 5 30 15 0 10 -10 15 -30 15
-20 0 -30 5 -30 15 0 8 -7 15 -15 15 -8 0 -15 -6 -15 -14z"/>
<path d="M12650 1396 c0 -7 -9 -16 -21 -19 -23 -6 -17 -27 7 -27 10 0 14 -13
14 -45 0 -38 4 -47 23 -54 12 -5 29 -6 37 -3 17 5 40 31 40 44 0 15 -29 8 -38
-8 -14 -25 -32 -7 -32 32 0 31 2 34 30 34 20 0 30 5 30 15 0 10 -10 15 -30 15
-20 0 -30 5 -30 15 0 8 -7 15 -15 15 -8 0 -15 -6 -15 -14z"/>
<path d="M16950 1396 c0 -7 -9 -16 -21 -19 -23 -6 -17 -27 7 -27 10 0 14 -13
14 -45 0 -38 4 -47 23 -54 12 -5 29 -6 37 -3 17 5 40 31 40 44 0 15 -29 8 -38
-8 -14 -25 -32 -7 -32 32 0 31 2 34 30 34 20 0 30 5 30 15 0 10 -10 15 -30 15
-20 0 -30 5 -30 15 0 8 -7 15 -15 15 -8 0 -15 -6 -15 -14z"/>
<path d="M450 1366 c0 -10 9 -16 25 -16 23 0 25 -4 25 -40 0 -36 -2 -40 -25
-40 -14 0 -25 -4 -25 -10 0 -6 27 -10 60 -10 33 0 60 4 60 10 0 6 -9 10 -19
10 -17 0 -20 8 -23 53 l-3 52 -37 3 c-29 2 -38 0 -38 -12z"/>
<path d="M600 1365 c0 -8 7 -15 15 -15 11 0 15 -11 15 -40 0 -29 -4 -40 -15
-40 -8 0 -15 -4 -15 -10 0 -5 23 -10 50 -10 28 0 50 5 50 10 0 6 -9 10 -20 10
-14 0 -20 7 -20 21 0 37 19 60 48 57 19 -2 27 2 27 12 0 12 -15 15 -67 17 -54
2 -68 -1 -68 -12z"/>
<path d="M772 1371 c-8 -4 -12 -19 -10 -32 2 -18 13 -26 41 -34 43 -12 53 -28
19 -33 -13 -2 -25 3 -28 12 -11 28 -36 19 -32 -11 3 -26 6 -28 45 -27 65 2 92
34 57 68 -8 9 -11 16 -5 16 6 0 11 11 11 25 0 23 -4 25 -42 25 -24 0 -49 -4
-56 -9z m68 -31 c0 -5 -9 -10 -19 -10 -11 0 -23 5 -26 10 -4 6 5 10 19 10 14
0 26 -4 26 -10z"/>
<path d="M4867 1373 c-4 -3 -7 -13 -7 -20 0 -10 9 -12 35 -7 23 4 35 2 35 -5
0 -6 -10 -11 -23 -11 -54 0 -76 -53 -31 -75 24 -12 124 -7 124 6 0 5 -7 9 -15
9 -11 0 -15 11 -15 39 0 23 -7 46 -16 55 -15 16 -75 22 -87 9z m73 -77 c0 -17
-35 -30 -51 -20 -9 5 -6 11 6 21 24 17 45 17 45 -1z"/>
<path d="M5022 1371 c-8 -4 -12 -19 -10 -32 2 -18 13 -26 41 -34 43 -12 53
-28 19 -33 -13 -2 -25 3 -28 12 -11 28 -36 19 -32 -11 3 -26 6 -28 45 -27 65
2 92 34 57 68 -8 9 -11 16 -5 16 6 0 11 11 11 25 0 23 -4 25 -42 25 -24 0 -49
-4 -56 -9z m68 -31 c0 -5 -9 -10 -19 -10 -11 0 -23 5 -26 10 -4 6 5 10 19 10
14 0 26 -4 26 -10z"/>
<path d="M6280 1366 c0 -10 9 -16 25 -16 23 0 25 -4 25 -40 0 -36 -2 -40 -25
-40 -14 0 -25 -4 -25 -10 0 -6 27 -10 60 -10 33 0 60 4 60 10 0 6 -9 10 -19
10 -17 0 -20 8 -23 53 l-3 52 -37 3 c-29 2 -38 0 -38 -12z"/>
<path d="M6430 1365 c0 -8 7 -15 15 -15 11 0 15 -11 15 -40 0 -29 -4 -40 -15
-40 -8 0 -15 -4 -15 -10 0 -5 23 -10 50 -10 28 0 50 5 50 10 0 6 -9 10 -20 10
-14 0 -20 7 -20 21 0 37 19 60 48 57 19 -2 27 2 27 12 0 12 -15 15 -67 17 -54
2 -68 -1 -68 -12z"/>
<path d="M6602 1371 c-8 -4 -12 -19 -10 -32 2 -18 13 -26 41 -34 43 -12 53
-28 19 -33 -13 -2 -25 3 -28 12 -11 28 -36 19 -32 -11 3 -26 6 -28 45 -27 65
2 92 34 57 68 -8 9 -11 16 -5 16 6 0 11 11 11 25 0 23 -4 25 -42 25 -24 0 -49
-4 -56 -9z m68 -31 c0 -5 -9 -10 -19 -10 -11 0 -23 5 -26 10 -4 6 5 10 19 10
14 0 26 -4 26 -10z"/>
<path d="M10747 1373 c-4 -3 -7 -13 -7 -20 0 -10 9 -12 35 -7 23 4 35 2 35 -5
0 -6 -10 -11 -23 -11 -54 0 -76 -53 -31 -75 24 -12 124 -7 124 6 0 5 -7 9 -15
9 -11 0 -15 11 -15 39 0 23 -7 46 -16 55 -15 16 -75 22 -87 9z m73 -77 c0 -17
-35 -30 -51 -20 -9 5 -6 11 6 21 24 17 45 17 45 -1z"/>
<path d="M10902 1371 c-8 -4 -12 -19 -10 -32 2 -18 13 -26 41 -34 43 -12 53
-28 19 -33 -13 -2 -25 3 -28 12 -11 28 -36 19 -32 -11 3 -26 6 -28 45 -27 65
2 92 34 57 68 -8 9 -11 16 -5 16 6 0 11 11 11 25 0 23 -4 25 -42 25 -24 0 -49
-4 -56 -9z m68 -31 c0 -5 -9 -10 -19 -10 -11 0 -23 5 -26 10 -4 6 5 10 19 10
14 0 26 -4 26 -10z"/>
<path d="M12160 1366 c0 -10 9 -16 25 -16 23 0 25 -4 25 -40 0 -36 -2 -40 -25
-40 -14 0 -25 -4 -25 -10 0 -6 27 -10 60 -10 33 0 60 4 60 10 0 6 -9 10 -19
10 -17 0 -20 8 -23 53 l-3 52 -37 3 c-29 2 -38 0 -38 -12z"/>
<path d="M12310 1365 c0 -8 7 -15 15 -15 11 0 15 -11 15 -40 0 -29 -4 -40 -15
-40 -8 0 -15 -4 -15 -10 0 -5 23 -10 50 -10 28 0 50 5 50 10 0 6 -9 10 -20 10
-14 0 -20 7 -20 21 0 37 19 60 48 57 19 -2 27 2 27 12 0 12 -15 15 -67 17 -54
2 -68 -1 -68 -12z"/>
<path d="M12482 1371 c-8 -4 -12 -19 -10 -32 2 -18 13 -26 41 -34 43 -12 53
-28 19 -33 -13 -2 -25 3 -28 12 -11 28 -36 19 -32 -11 3 -26 6 -28 45 -27 65
2 92 34 57 68 -8 9 -11 16 -5 16 6 0 11 11 11 25 0 23 -4 25 -42 25 -24 0 -49
-4 -56 -9z m68 -31 c0 -5 -9 -10 -19 -10 -11 0 -23 5 -26 10 -4 6 5 10 19 10
14 0 26 -4 26 -10z"/>
<path d="M16627 1373 c-4 -3 -7 -13 -7 -20 0 -10 9 -12 35 -7 23 4 35 2 35 -5
0 -6 -10 -11 -23 -11 -54 0 -76 -53 -31 -75 24 -12 124 -7 124 6 0 5 -7 9 -15
9 -11 0 -15 11 -15 39 0 23 -7 46 -16 55 -15 16 -75 22 -87 9z m73 -77 c0 -17
-35 -30 -51 -20 -9 5 -6 11 6 21 24 17 45 17 45 -1z"/>
<path d="M16782 1371 c-8 -4 -12 -19 -10 -32 2 -18 13 -26 41 -34 43 -12 53
-28 19 -33 -13 -2 -25 3 -28 12 -11 28 -36 19 -32 -11 3 -26 6 -28 45 -27 65
2 92 34 57 68 -8 9 -11 16 -5 16 6 0 11 11 11 25 0 23 -4 25 -42 25 -24 0 -49
-4 -56 -9z m68 -31 c0 -5 -9 -10 -19 -10 -11 0 -23 5 -26 10 -4 6 5 10 19 10
14 0 26 -4 26 -10z"/>
<path d="M240 560 l0 -430 425 0 425 0 0 430 0 430 -425 0 -425 0 0 -430z
m800 397 c0 -1 -176 -178 -390 -392 l-390 -390 0 393 0 392 390 0 c215 0 390
-1 390 -3z m20 -412 l0 -385 -387 0 -388 0 385 385 c212 212 386 385 387 385
2 0 3 -173 3 -385z"/>
<path d="M4570 560 l0 -430 425 0 425 0 0 430 0 430 -425 0 -425 0 0 -430z
m800 397 c0 -1 -175 -178 -390 -392 l-390 -390 0 393 0 392 390 0 c215 0 390
-1 390 -3z m20 -412 l0 -385 -387 0 -388 0 385 385 c212 212 386 385 387 385
2 0 3 -173 3 -385z"/>
<path d="M6070 560 l0 -430 425 0 425 0 0 430 0 430 -425 0 -425 0 0 -430z
m800 397 c0 -1 -175 -178 -390 -392 l-390 -390 0 393 0 392 390 0 c215 0 390
-1 390 -3z m20 -412 l0 -385 -387 0 -388 0 385 385 c212 212 386 385 387 385
2 0 3 -173 3 -385z"/>
<path d="M7470 560 l0 -430 1255 0 1255 0 0 430 0 430 -1255 0 -1255 0 0 -430z
m800 397 c0 -1 -173 -175 -385 -387 l-385 -385 0 388 0 387 385 0 c212 0 385
-1 385 -3z m850 -397 l0 -400 -400 0 -400 0 0 400 0 400 400 0 400 0 0 -400z
m800 397 c0 -1 -173 -175 -385 -387 l-385 -385 0 388 0 387 385 0 c212 0 385
-1 385 -3z m-1620 -407 l0 -390 -392 0 -393 0 390 390 c214 215 391 390 392
390 2 0 3 -175 3 -390z m1650 -5 l0 -385 -387 0 -388 0 385 385 c212 212 386
385 387 385 2 0 3 -173 3 -385z"/>
<path d="M8620 595 c0 -8 8 -15 18 -15 10 0 28 -13 39 -29 l22 -28 -22 -31
c-12 -18 -30 -32 -39 -32 -10 0 -18 -7 -18 -15 0 -11 12 -15 45 -15 43 0 45 1
39 24 -3 14 -1 27 6 31 16 10 29 -12 23 -36 -5 -17 0 -19 41 -19 34 0 46 4 46
15 0 8 -8 15 -18 15 -10 0 -28 14 -41 31 -21 29 -22 31 -6 56 9 14 26 28 36
30 10 3 19 12 19 19 0 10 -13 14 -45 14 -45 0 -54 -7 -35 -26 8 -8 6 -15 -5
-24 -16 -13 -19 -6 -16 33 2 14 -6 17 -43 17 -34 0 -46 -4 -46 -15z"/>
<path d="M10450 560 l0 -430 425 0 425 0 0 430 0 430 -425 0 -425 0 0 -430z
m800 397 c0 -1 -175 -178 -390 -392 l-390 -390 0 393 0 392 390 0 c215 0 390
-1 390 -3z m20 -412 l0 -385 -387 0 -388 0 385 385 c212 212 386 385 387 385
2 0 3 -173 3 -385z"/>
<path d="M11950 560 l0 -430 425 0 425 0 0 205 0 205 246 0 245 0 -20 -26
c-12 -15 -21 -33 -21 -40 0 -25 35 -14 55 18 42 65 45 53 45 -161 l0 -201
1255 0 1255 0 0 203 1 202 34 -37 c20 -21 39 -38 45 -38 20 0 21 24 1 51 l-22
29 206 0 205 0 0 -205 0 -205 425 0 425 0 0 430 0 430 -425 0 -425 0 0 -205 0
-205 -205 0 -206 0 22 29 c20 27 19 51 -1 51 -6 0 -25 -17 -45 -38 l-34 -37
-1 203 0 202 -1255 0 -1255 0 0 -201 c0 -214 -3 -226 -45 -161 -20 32 -55 43
-55 18 0 -7 9 -25 21 -40 l20 -26 -245 0 -246 0 0 205 0 205 -425 0 -425 0 0
-430z m820 210 l0 -190 -200 0 c-193 0 -200 -1 -200 -20 0 -19 7 -20 200 -20
l200 0 0 -190 0 -190 -400 0 -400 0 0 400 0 400 400 0 400 0 0 -190z m1380
187 c0 -1 -173 -175 -385 -387 l-385 -385 0 388 0 387 385 0 c212 0 385 -1
385 -3z m850 -397 l0 -400 -400 0 -400 0 0 400 0 400 400 0 400 0 0 -400z
m800 397 c0 -1 -173 -175 -385 -387 l-385 -385 0 388 0 387 385 0 c212 0 385
-1 385 -3z m1350 -397 l0 -400 -400 0 -400 0 0 190 0 190 205 0 c198 0 205 1
205 20 0 19 -7 20 -205 20 l-205 0 0 190 0 190 400 0 400 0 0 -400z m-2970
-10 l0 -390 -392 0 -393 0 390 390 c214 215 391 390 392 390 2 0 3 -175 3
-390z m1650 -5 l0 -385 -387 0 -388 0 385 385 c212 212 386 385 387 385 2 0 3
-173 3 -385z"/>
<path d="M14500 595 c0 -8 8 -15 18 -15 10 0 28 -13 39 -29 l22 -28 -22 -31
c-12 -18 -30 -32 -39 -32 -10 0 -18 -7 -18 -15 0 -11 12 -15 45 -15 43 0 45 1
39 24 -3 14 -1 27 6 31 16 10 29 -12 23 -36 -5 -17 0 -19 41 -19 34 0 46 4 46
15 0 8 -8 15 -18 15 -10 0 -28 14 -41 31 -21 29 -22 31 -6 56 9 14 26 28 36
30 10 3 19 12 19 19 0 10 -13 14 -45 14 -45 0 -54 -7 -35 -26 8 -8 6 -15 -5
-24 -16 -13 -19 -6 -16 33 2 14 -6 17 -43 17 -34 0 -46 -4 -46 -15z"/>
</g>
</svg>
