<?xml version="1.0" standalone="no"?>
<!DOCTYPE svg PUBLIC "-//W3C//DTD SVG 20010904//EN"
 "http://www.w3.org/TR/2001/REC-SVG-20010904/DTD/svg10.dtd">
<svg version="1.0" xmlns="http://www.w3.org/2000/svg"
 width="1909.000000pt" height="343.000000pt" viewBox="0 0 1909.000000 343.000000"
 preserveAspectRatio="xMidYMid meet">
<metadata>
Created by potrace 1.16, written by Peter Selinger 2001-2019
</metadata>
<g transform="translate(0.000000,343.000000) scale(0.100000,-0.100000)"
fill="#000000" stroke="none">
<path d="M2864 3176 c-8 -21 3 -36 27 -36 15 0 20 6 17 22 -4 27 -35 37 -44
14z"/>
<path d="M2810 3095 c0 -10 11 -15 35 -15 l35 0 0 -60 0 -60 -35 0 c-24 0 -35
-5 -35 -15 0 -12 16 -15 80 -15 64 0 80 3 80 15 0 10 -10 15 -30 15 l-30 0 0
75 0 75 -50 0 c-38 0 -50 -4 -50 -15z"/>
<path d="M7102 2858 c-7 -7 -12 -18 -12 -25 0 -7 -9 -13 -20 -13 -11 0 -20 -7
-20 -15 0 -8 9 -15 20 -15 17 0 20 -7 20 -40 0 -33 -3 -40 -20 -40 -11 0 -20
-4 -20 -10 0 -5 25 -10 55 -10 30 0 55 5 55 10 0 6 -9 10 -20 10 -17 0 -20 7
-20 39 0 33 4 40 23 43 12 2 22 8 22 13 0 6 -10 11 -22 13 -13 2 -23 8 -23 13
0 5 11 7 25 3 21 -5 25 -3 25 15 0 16 -6 21 -28 21 -15 0 -33 -5 -40 -12z"/>
<path d="M7250 2850 c0 -15 5 -20 18 -18 9 2 17 10 17 18 0 8 -8 16 -17 18
-13 2 -18 -3 -18 -18z"/>
<path d="M13862 2858 c-7 -7 -12 -18 -12 -25 0 -7 -9 -13 -20 -13 -11 0 -20
-7 -20 -15 0 -8 9 -15 20 -15 17 0 20 -7 20 -40 0 -33 -3 -40 -20 -40 -11 0
-20 -4 -20 -10 0 -5 25 -10 55 -10 30 0 55 5 55 10 0 6 -9 10 -20 10 -17 0
-20 7 -20 39 0 33 4 40 23 43 12 2 22 8 22 13 0 6 -10 11 -22 13 -13 2 -23 8
-23 13 0 5 11 7 25 3 21 -5 25 -3 25 15 0 16 -6 21 -28 21 -15 0 -33 -5 -40
-12z"/>
<path d="M14010 2850 c0 -15 5 -20 18 -18 9 2 17 10 17 18 0 8 -8 16 -17 18
-13 2 -18 -3 -18 -18z"/>
<path d="M342 2848 c-7 -7 -12 -18 -12 -25 0 -7 -9 -13 -20 -13 -11 0 -20 -7
-20 -15 0 -8 9 -15 20 -15 17 0 20 -7 20 -40 0 -33 -3 -40 -20 -40 -11 0 -20
-4 -20 -10 0 -5 25 -10 55 -10 30 0 55 5 55 10 0 6 -9 10 -20 10 -17 0 -20 7
-20 39 0 33 4 40 23 43 12 2 22 8 22 13 0 6 -10 11 -22 13 -13 2 -23 8 -23 13
0 5 11 7 25 3 21 -5 25 -3 25 15 0 16 -6 21 -28 21 -15 0 -33 -5 -40 -12z"/>
<path d="M490 2840 c0 -15 5 -20 18 -18 9 2 17 10 17 18 0 8 -8 16 -17 18 -13
2 -18 -3 -18 -18z"/>
<path d="M7700 2836 c0 -7 -9 -16 -21 -19 -23 -6 -17 -27 7 -27 10 0 14 -13
14 -45 0 -38 4 -47 23 -54 12 -5 29 -6 37 -3 17 5 40 31 40 44 0 15 -29 8 -38
-8 -14 -25 -32 -7 -32 32 0 31 2 34 30 34 20 0 30 5 30 15 0 10 -10 15 -30 15
-20 0 -30 5 -30 15 0 8 -7 15 -15 15 -8 0 -15 -6 -15 -14z"/>
<path d="M14460 2836 c0 -7 -9 -16 -21 -19 -23 -6 -17 -27 7 -27 10 0 14 -13
14 -45 0 -38 4 -47 23 -54 12 -5 29 -6 37 -3 17 5 40 31 40 44 0 15 -29 8 -38
-8 -14 -25 -32 -7 -32 32 0 31 2 34 30 34 20 0 30 5 30 15 0 10 -10 15 -30 15
-20 0 -30 5 -30 15 0 8 -7 15 -15 15 -8 0 -15 -6 -15 -14z"/>
<path d="M930 2826 c0 -7 -9 -16 -21 -19 -23 -6 -17 -27 7 -27 10 0 14 -13 14
-45 0 -38 4 -47 23 -54 12 -5 29 -6 37 -3 17 5 40 31 40 44 0 15 -29 8 -38 -8
-14 -25 -32 -7 -32 32 0 31 2 34 30 34 20 0 30 5 30 15 0 10 -10 15 -30 15
-20 0 -30 5 -30 15 0 8 -7 15 -15 15 -8 0 -15 -6 -15 -14z"/>
<path d="M7210 2806 c0 -10 9 -16 25 -16 23 0 25 -4 25 -40 0 -36 -2 -40 -25
-40 -14 0 -25 -4 -25 -10 0 -6 27 -10 60 -10 33 0 60 4 60 10 0 6 -9 10 -19
10 -17 0 -20 8 -23 53 l-3 52 -37 3 c-29 2 -38 0 -38 -12z"/>
<path d="M7360 2805 c0 -8 7 -15 15 -15 11 0 15 -11 15 -40 0 -29 -4 -40 -15
-40 -8 0 -15 -4 -15 -10 0 -5 23 -10 50 -10 28 0 50 5 50 10 0 6 -9 10 -20 10
-14 0 -20 7 -20 21 0 37 19 60 48 57 19 -2 27 2 27 12 0 12 -15 15 -67 17 -54
2 -68 -1 -68 -12z"/>
<path d="M7532 2811 c-8 -4 -12 -19 -10 -32 2 -18 13 -26 41 -34 43 -12 53
-28 19 -33 -13 -2 -25 3 -28 12 -11 28 -36 19 -32 -11 3 -26 6 -28 45 -27 65
2 92 34 57 68 -8 9 -11 16 -5 16 6 0 11 11 11 25 0 23 -4 25 -42 25 -24 0 -49
-4 -56 -9z m68 -31 c0 -5 -9 -10 -19 -10 -11 0 -23 5 -26 10 -4 6 5 10 19 10
14 0 26 -4 26 -10z"/>
<path d="M13970 2806 c0 -10 9 -16 25 -16 23 0 25 -4 25 -40 0 -36 -2 -40 -25
-40 -14 0 -25 -4 -25 -10 0 -6 27 -10 60 -10 33 0 60 4 60 10 0 6 -9 10 -19
10 -17 0 -20 8 -23 53 l-3 52 -37 3 c-29 2 -38 0 -38 -12z"/>
<path d="M14120 2805 c0 -8 7 -15 15 -15 11 0 15 -11 15 -40 0 -29 -4 -40 -15
-40 -8 0 -15 -4 -15 -10 0 -5 23 -10 50 -10 28 0 50 5 50 10 0 6 -9 10 -20 10
-14 0 -20 7 -20 21 0 37 19 60 48 57 19 -2 27 2 27 12 0 12 -15 15 -67 17 -54
2 -68 -1 -68 -12z"/>
<path d="M14292 2811 c-8 -4 -12 -19 -10 -32 2 -18 13 -26 41 -34 43 -12 53
-28 19 -33 -13 -2 -25 3 -28 12 -11 28 -36 19 -32 -11 3 -26 6 -28 45 -27 65
2 92 34 57 68 -8 9 -11 16 -5 16 6 0 11 11 11 25 0 23 -4 25 -42 25 -24 0 -49
-4 -56 -9z m68 -31 c0 -5 -9 -10 -19 -10 -11 0 -23 5 -26 10 -4 6 5 10 19 10
14 0 26 -4 26 -10z"/>
<path d="M450 2796 c0 -10 9 -16 25 -16 23 0 25 -4 25 -40 0 -36 -2 -40 -25
-40 -14 0 -25 -4 -25 -10 0 -6 27 -10 60 -10 33 0 60 4 60 10 0 6 -9 10 -19
10 -17 0 -20 8 -23 53 l-3 52 -37 3 c-29 2 -38 0 -38 -12z"/>
<path d="M600 2795 c0 -8 7 -15 15 -15 11 0 15 -11 15 -40 0 -29 -4 -40 -15
-40 -8 0 -15 -4 -15 -10 0 -5 23 -10 50 -10 28 0 50 5 50 10 0 6 -9 10 -20 10
-14 0 -20 7 -20 21 0 37 19 60 48 57 19 -2 27 2 27 12 0 12 -15 15 -67 17 -54
2 -68 -1 -68 -12z"/>
<path d="M772 2801 c-8 -4 -12 -19 -10 -32 2 -18 13 -26 41 -34 43 -12 53 -28
19 -33 -13 -2 -25 3 -28 12 -11 28 -36 19 -32 -11 3 -26 6 -28 45 -27 65 2 92
34 57 68 -8 9 -11 16 -5 16 6 0 11 11 11 25 0 23 -4 25 -42 25 -24 0 -49 -4
-56 -9z m68 -31 c0 -5 -9 -10 -19 -10 -11 0 -23 5 -26 10 -4 6 5 10 19 10 14
0 26 -4 26 -10z"/>
<path d="M2870 2589 l0 -110 -22 15 c-26 19 -58 21 -58 5 0 -6 19 -29 43 -50
l42 -38 -617 -1 -618 0 0 -202 -1 -203 -38 43 c-21 23 -44 42 -50 42 -16 0
-14 -32 5 -58 l15 -22 -240 0 -241 0 0 200 0 200 -425 0 -425 0 0 -425 0 -425
425 0 425 0 0 200 0 200 241 0 240 0 -15 -22 c-9 -12 -16 -30 -16 -40 0 -28
27 -21 46 10 9 16 25 34 35 40 18 12 19 6 19 -188 l0 -200 1250 0 1250 0 2
188 c1 103 3 168 5 145 3 -35 8 -43 24 -43 15 0 19 7 19 36 0 30 3 35 18 29
168 -66 315 -90 447 -73 44 6 96 10 115 10 19 -1 37 4 41 9 3 6 44 27 90 47
117 52 123 55 115 80 -7 21 -8 21 -74 -12 -229 -114 -474 -126 -677 -32 l-50
23 28 13 c15 7 27 21 27 32 0 22 -7 22 -53 3 -64 -27 -77 -21 -77 30 l0 45 58
0 c66 0 184 -28 262 -61 l51 -22 -31 -18 c-52 -32 -29 -63 26 -34 16 8 41 15
56 15 37 0 41 12 24 71 -9 28 -14 55 -11 58 2 4 0 13 -5 20 -13 22 -30 2 -30
-35 0 -19 -3 -34 -7 -34 -5 0 -40 13 -79 29 -77 31 -142 46 -246 56 l-68 7 0
134 0 134 -610 0 c-380 0 -610 4 -610 10 0 5 18 23 40 41 22 18 37 36 34 40
-8 14 -40 10 -54 -6 -25 -30 -30 -13 -30 95 0 103 -1 110 -20 110 -19 0 -20
-7 -20 -111z m-1810 -389 l0 -190 -200 0 -200 0 0 -25 0 -25 200 0 200 0 0
-185 0 -185 -400 0 -400 0 0 400 0 400 400 0 400 0 0 -190z m1380 187 c0 -1
-175 -178 -390 -392 l-390 -390 0 393 0 392 390 0 c215 0 390 -1 390 -3z m850
-397 l0 -400 -400 0 -400 0 0 400 0 400 400 0 400 0 0 -400z m830 270 l0 -130
-44 0 c-24 0 -84 -11 -132 -25 -91 -26 -244 -92 -244 -105 0 -4 7 -13 15 -20
12 -10 26 -7 72 15 118 56 246 95 309 95 l24 0 0 -250 0 -250 -400 0 -400 0 0
400 0 400 400 0 400 0 0 -130z m-1660 -290 l0 -380 -382 0 -383 0 380 380
c209 209 381 380 382 380 2 0 3 -171 3 -380z"/>
<path d="M2833 2030 c-29 -12 -31 -50 -3 -50 11 0 20 5 20 11 0 14 62 7 67 -7
2 -7 -13 -15 -34 -19 -52 -9 -83 -31 -83 -58 1 -51 34 -66 128 -60 52 4 72 10
72 19 0 8 -9 14 -20 14 -18 0 -20 7 -20 58 0 45 -4 63 -19 76 -23 21 -78 29
-108 16z m83 -136 c-7 -19 -65 -18 -73 1 -7 20 -1 26 39 34 34 7 46 -4 34 -35z"/>
<path d="M7000 1995 l0 -425 425 0 425 0 0 200 0 200 241 0 240 0 -15 -22
c-19 -26 -21 -58 -5 -58 6 0 29 19 50 43 l38 42 1 -202 0 -203 1255 0 1255 0
0 144 c0 131 2 144 18 142 13 -1 18 8 20 37 3 32 6 37 20 32 167 -69 313 -93
450 -74 48 6 104 11 125 11 20 -1 37 3 37 8 0 6 12 15 28 22 82 33 182 82 182
88 0 4 -7 13 -16 21 -13 10 -20 10 -42 -3 -46 -27 -177 -76 -247 -93 -137 -31
-317 -14 -455 46 l-51 22 31 18 c52 32 29 63 -26 34 -16 -8 -39 -15 -51 -15
-21 0 -23 5 -23 45 l0 45 48 0 c64 -1 153 -21 241 -55 67 -25 72 -29 55 -41
-40 -28 -46 -36 -35 -47 8 -8 21 -6 46 6 20 9 49 17 65 17 33 0 37 11 19 57
-6 15 -11 43 -11 61 0 25 -4 32 -19 32 -15 0 -19 -7 -19 -39 l0 -40 -53 25
c-72 32 -199 64 -258 64 -82 0 -79 -5 -79 146 l0 134 -1255 0 -1255 0 0 -202
-1 -203 -40 44 c-31 35 -42 42 -52 32 -9 -9 -8 -18 5 -41 l17 -30 -239 0 -240
0 0 200 0 200 -425 0 -425 0 0 -425z m820 210 l0 -185 -200 0 -200 0 0 -25 0
-25 200 0 200 0 0 -190 0 -190 -400 0 -400 0 0 400 0 400 400 0 400 0 0 -185z
m1380 182 c0 -1 -173 -175 -385 -387 l-385 -385 0 388 0 387 385 0 c212 0 385
-1 385 -3z m850 -397 l0 -400 -400 0 -400 0 0 400 0 400 400 0 400 0 0 -400z
m830 275 l0 -125 -36 0 c-67 0 -214 -44 -317 -96 -64 -32 -60 -28 -52 -53 6
-20 7 -20 58 5 99 51 270 104 333 104 12 0 14 -40 14 -255 l0 -255 -400 0
-400 0 0 400 0 400 400 0 400 0 0 -125z m-1650 -285 l0 -390 -392 0 -393 0
390 390 c214 215 391 390 392 390 2 0 3 -175 3 -390z"/>
<path d="M9593 2040 c-29 -12 -31 -50 -3 -50 11 0 20 5 20 11 0 14 62 7 67 -7
2 -7 -13 -15 -34 -19 -52 -9 -83 -31 -83 -58 1 -51 34 -66 128 -60 52 4 72 10
72 19 0 8 -9 14 -20 14 -18 0 -20 7 -20 58 0 45 -4 63 -19 76 -23 21 -78 29
-108 16z m83 -136 c-7 -19 -65 -18 -73 1 -7 20 -1 26 39 34 34 7 46 -4 34 -35z"/>
<path d="M13760 1995 l0 -425 413 0 413 0 18 -72 c9 -40 37 -165 62 -277 56
-257 76 -325 126 -430 64 -134 163 -221 281 -246 l28 -6 -21 -26 c-11 -14 -20
-32 -20 -39 0 -24 36 -15 50 12 8 14 22 30 32 35 17 9 18 -1 18 -191 l0 -200
1255 0 1255 0 0 430 0 430 -202 0 -203 1 44 40 c32 29 41 43 33 51 -8 8 -20 5
-46 -10 l-35 -21 -7 37 c-11 62 -59 145 -112 194 -105 98 -271 156 -602 208
-227 36 -435 72 -439 76 -2 2 350 4 782 4 l787 0 2 173 c0 94 3 157 5 139 6
-44 27 -36 31 11 2 20 6 37 10 37 4 0 39 -13 78 -29 125 -51 258 -68 384 -50
47 7 102 11 123 11 20 -1 37 3 37 8 0 6 12 15 28 22 76 31 182 82 182 87 0 3
-4 12 -9 20 -8 12 -23 8 -88 -21 -135 -62 -207 -80 -334 -85 -125 -6 -220 11
-328 58 l-52 22 31 18 c31 19 41 49 16 49 -7 0 -27 -7 -42 -15 -16 -8 -39 -15
-51 -15 -21 0 -23 5 -23 46 l0 47 73 -6 c85 -7 163 -27 238 -60 l54 -24 -27
-13 c-16 -7 -28 -21 -28 -32 0 -22 7 -22 53 -3 20 8 47 15 61 15 34 0 38 12
21 54 -8 19 -15 49 -15 66 0 24 -4 30 -21 30 -19 0 -21 -5 -17 -39 l3 -39 -35
15 c-71 31 -182 63 -238 68 -31 4 -72 8 -89 11 l-33 5 0 134 0 135 -1255 0
-1255 0 0 -425 0 -425 200 0 c114 0 200 -4 200 -9 0 -10 -53 -57 -71 -63 -18
-6 -1 -28 20 -28 10 0 24 7 31 15 20 24 29 18 36 -22 17 -100 100 -202 213
-263 116 -63 253 -97 616 -155 121 -19 238 -38 260 -44 26 -6 -227 -9 -732
-10 l-773 -1 0 -200 c0 -190 -1 -200 -18 -191 -10 5 -24 21 -32 35 -14 27 -50
36 -50 13 0 -7 7 -23 16 -35 21 -30 4 -29 -71 6 -136 65 -213 222 -290 592
-20 96 -51 227 -68 290 l-32 115 -3 403 -2 402 -425 0 -425 0 0 -425z m830 53
l-1 -343 -36 68 c-72 136 -169 212 -298 236 -77 14 -75 15 -75 -13 0 -21 6
-24 56 -30 141 -16 258 -136 329 -335 l14 -41 -394 0 -395 0 0 400 0 400 400
0 400 0 0 -342z m1400 -57 l0 -399 -67 26 c-88 33 -158 75 -207 120 -48 46
-93 138 -102 208 -5 45 -10 54 -27 54 -19 0 -19 -4 -14 -64 7 -77 57 -184 109
-233 18 -17 64 -50 103 -72 l70 -41 -333 0 -332 0 0 400 0 400 400 0 400 0 0
-399z m820 -1 l0 -400 -400 0 -400 0 0 400 0 400 400 0 400 0 0 -400z m830
275 l0 -125 -32 0 c-36 0 -145 -24 -193 -41 -75 -28 -185 -83 -185 -93 1 -34
17 -33 96 5 74 36 250 89 295 89 18 0 19 -12 19 -255 l0 -255 -400 0 -400 0 0
400 0 400 400 0 400 0 0 -125z m-1660 -715 c77 -24 270 -61 465 -90 391 -58
558 -113 673 -220 42 -39 92 -127 92 -163 0 -16 -2 -16 -25 -1 -25 16 -45 12
-45 -9 0 -7 13 -21 30 -32 61 -41 50 -45 -113 -45 -135 0 -165 3 -267 29 -64
16 -221 46 -350 66 -548 85 -704 148 -794 320 -32 62 -35 90 -7 75 26 -13 51
-13 51 1 0 6 -19 29 -42 50 l-43 38 155 1 c127 0 167 -4 220 -20z m-20 -593
c0 -1 -173 -175 -385 -387 l-385 -385 0 388 0 387 385 0 c212 0 385 -1 385 -3z
m850 -397 l0 -400 -400 0 -400 0 0 400 0 400 400 0 400 0 0 -400z m110 372
c159 -55 276 -183 295 -323 6 -41 10 -49 27 -49 20 0 20 4 14 63 -12 121 -86
227 -211 301 l-60 36 328 0 327 0 0 -400 0 -400 -400 0 -400 0 0 401 c0 378 1
401 18 394 9 -4 37 -14 62 -23z m-930 -382 l0 -390 -392 0 -393 0 390 390
c214 215 391 390 392 390 2 0 3 -175 3 -390z"/>
<path d="M16363 2040 c-29 -12 -31 -50 -3 -50 11 0 20 5 20 11 0 14 62 7 67
-7 2 -7 -13 -15 -34 -19 -52 -9 -83 -31 -83 -58 1 -51 34 -66 128 -60 52 4 72
10 72 19 0 8 -9 14 -20 14 -18 0 -20 7 -20 58 0 45 -4 63 -19 76 -23 21 -78
29 -108 16z m83 -136 c-7 -19 -65 -18 -73 1 -7 20 -1 26 39 34 34 7 46 -4 34
-35z"/>
<path d="M16320 595 c0 -8 8 -15 18 -15 10 0 28 -13 39 -29 l22 -28 -22 -31
c-12 -18 -30 -32 -39 -32 -10 0 -18 -7 -18 -15 0 -11 12 -15 45 -15 43 0 45 1
39 24 -3 14 -1 27 6 31 16 10 29 -12 23 -36 -5 -17 0 -19 41 -19 34 0 46 4 46
15 0 8 -8 15 -18 15 -10 0 -28 14 -41 31 -21 29 -22 31 -6 56 9 14 26 28 36
30 10 3 19 12 19 19 0 10 -13 14 -45 14 -45 0 -54 -7 -35 -26 8 -8 6 -15 -5
-24 -16 -13 -19 -6 -16 33 2 14 -6 17 -43 17 -34 0 -46 -4 -46 -15z"/>
<path d="M11714 1896 c-8 -21 3 -36 27 -36 15 0 20 6 17 22 -4 27 -35 37 -44
14z"/>
<path d="M11894 1896 c-8 -21 3 -36 27 -36 15 0 20 6 17 22 -4 27 -35 37 -44
14z"/>
<path d="M18474 1896 c-8 -21 3 -36 27 -36 15 0 20 6 17 22 -4 27 -35 37 -44
14z"/>
<path d="M18664 1896 c-8 -21 3 -36 27 -36 15 0 20 6 17 22 -4 27 -35 37 -44
14z"/>
<path d="M4954 1886 c-8 -21 3 -36 27 -36 15 0 20 6 17 22 -4 27 -35 37 -44
14z"/>
<path d="M5134 1886 c-8 -21 3 -36 27 -36 15 0 20 6 17 22 -4 27 -35 37 -44
14z"/>
<path d="M8400 560 l0 -430 1255 0 1255 0 0 430 0 430 -1255 0 -1255 0 0 -430z
m800 397 c0 -1 -173 -175 -385 -387 l-385 -385 0 388 0 387 385 0 c212 0 385
-1 385 -3z m850 -397 l0 -400 -400 0 -400 0 0 400 0 400 400 0 400 0 0 -400z
m800 397 c0 -1 -173 -175 -385 -387 l-385 -385 0 388 0 387 385 0 c212 0 385
-1 385 -3z m-1620 -407 l0 -390 -392 0 -393 0 390 390 c214 215 391 390 392
390 2 0 3 -175 3 -390z m1650 -5 l0 -385 -387 0 -388 0 385 385 c212 212 386
385 387 385 2 0 3 -173 3 -385z"/>
<path d="M9550 595 c0 -8 8 -15 18 -15 10 0 28 -13 39 -29 l22 -28 -22 -31
c-12 -18 -30 -32 -39 -32 -10 0 -18 -7 -18 -15 0 -11 12 -15 45 -15 43 0 45 1
39 24 -3 14 -1 27 6 31 16 10 29 -12 23 -36 -5 -17 0 -19 41 -19 34 0 46 4 46
15 0 8 -8 15 -18 15 -10 0 -28 14 -41 31 -21 29 -22 31 -6 56 9 14 26 28 36
30 10 3 19 12 19 19 0 10 -13 14 -45 14 -45 0 -54 -7 -35 -26 8 -8 6 -15 -5
-24 -16 -13 -19 -6 -16 33 2 14 -6 17 -43 17 -34 0 -46 -4 -46 -15z"/>
</g>
</svg>
