<?xml version="1.0" standalone="no"?>
<!DOCTYPE svg PUBLIC "-//W3C//DTD SVG 20010904//EN"
 "http://www.w3.org/TR/2001/REC-SVG-20010904/DTD/svg10.dtd">
<svg version="1.0" xmlns="http://www.w3.org/2000/svg"
 width="901.000000pt" height="988.000000pt" viewBox="0 0 901.000000 988.000000"
 preserveAspectRatio="xMidYMid meet">
<metadata>
Created by potrace 1.16, written by Peter Selinger 2001-2019
</metadata>
<g transform="translate(0.000000,988.000000) scale(0.100000,-0.100000)"
fill="#000000" stroke="none">
<path d="M4390 9661 c0 -5 9 -11 20 -14 19 -5 20 -14 20 -126 0 -114 -1 -121
-20 -121 -11 0 -20 -4 -20 -10 0 -6 28 -10 65 -10 37 0 65 4 65 10 0 6 -9 10
-20 10 -17 0 -20 7 -20 43 0 31 6 49 20 62 11 10 22 16 24 14 1 -2 20 -29 40
-59 28 -43 33 -56 21 -58 -8 -2 -15 -8 -15 -13 0 -5 27 -9 60 -9 58 0 80 12
41 23 -11 2 -41 37 -67 76 l-47 72 39 40 c21 23 49 45 62 50 36 14 25 29 -23
29 -42 0 -58 -11 -35 -25 14 -9 9 -15 -60 -75 l-60 -52 0 62 c0 53 3 63 20 67
41 11 18 23 -45 23 -36 0 -65 -4 -65 -9z"/>
<path d="M6440 9661 c0 -5 9 -11 20 -14 19 -5 20 -14 20 -126 0 -114 -1 -121
-20 -121 -11 0 -20 -4 -20 -10 0 -6 28 -10 65 -10 37 0 65 4 65 10 0 6 -9 10
-20 10 -19 0 -20 7 -20 121 0 112 1 121 20 126 41 11 18 23 -45 23 -36 0 -65
-4 -65 -9z"/>
<path d="M6940 9662 c0 -4 9 -13 20 -20 14 -9 20 -23 20 -51 0 -39 0 -39 -29
-28 -64 24 -131 -41 -117 -116 11 -57 36 -71 123 -72 52 0 78 4 80 13 3 6 -2
12 -11 12 -14 0 -16 19 -16 135 l0 135 -35 0 c-19 0 -35 -3 -35 -8z m18 -124
c7 -7 12 -37 12 -68 0 -60 -11 -80 -46 -80 -26 0 -40 15 -49 53 -18 69 41 137
83 95z"/>
<path d="M5194 9608 c-5 -19 -19 -37 -32 -43 -27 -12 -29 -25 -2 -25 18 0 20
-7 20 -68 0 -54 4 -72 18 -85 40 -36 82 -11 82 47 0 38 -18 32 -22 -6 -2 -21
-8 -33 -18 -33 -12 0 -16 16 -18 73 l-3 72 31 0 c16 0 30 5 30 10 0 6 -13 10
-30 10 -28 0 -30 2 -30 40 0 48 -14 52 -26 8z"/>
<path d="M7674 9626 c-8 -21 3 -36 27 -36 15 0 20 6 17 22 -4 27 -35 37 -44
14z"/>
<path d="M4728 9563 c-22 -5 -24 -23 -3 -23 12 0 15 -14 15 -70 0 -56 -3 -70
-15 -70 -8 0 -15 -4 -15 -10 0 -5 23 -10 50 -10 28 0 50 5 50 10 0 6 -7 10
-15 10 -12 0 -15 13 -15 58 0 47 4 63 21 78 35 31 53 9 57 -70 2 -54 0 -66
-13 -66 -8 0 -15 -4 -15 -10 0 -5 23 -10 50 -10 28 0 50 5 50 10 0 6 -9 10
-20 10 -18 0 -20 7 -20 75 0 71 -1 76 -26 87 -19 9 -33 9 -55 1 -16 -6 -29 -7
-29 -2 0 9 -22 10 -52 2z"/>
<path d="M4979 9541 c-57 -58 -28 -155 51 -167 50 -7 97 24 106 71 19 102 -86
166 -157 96z m100 -5 c18 -21 24 -77 12 -108 -15 -39 -58 -48 -83 -18 -22 27
-24 88 -2 118 17 25 56 29 73 8z"/>
<path d="M5339 9541 c-58 -58 -28 -155 53 -168 30 -4 41 -1 62 20 26 26 34 47
17 47 -5 0 -16 -11 -25 -25 -9 -14 -25 -25 -36 -25 -26 0 -60 34 -60 60 0 18
7 20 65 20 36 0 65 4 65 9 0 4 -5 22 -11 40 -21 58 -83 69 -130 22z m91 -10
c18 -34 11 -41 -35 -41 -49 0 -53 5 -29 38 19 27 50 29 64 3z"/>
<path d="M5518 9563 c-22 -5 -24 -23 -3 -23 12 0 15 -14 15 -70 0 -56 -3 -70
-15 -70 -8 0 -15 -4 -15 -10 0 -5 23 -10 50 -10 28 0 50 5 50 10 0 6 -7 10
-15 10 -12 0 -15 13 -15 58 0 47 4 63 21 78 35 31 53 9 57 -70 2 -54 0 -66
-13 -66 -8 0 -15 -4 -15 -10 0 -5 23 -10 50 -10 28 0 50 5 50 10 0 6 -9 10
-20 10 -18 0 -20 7 -20 75 0 71 -1 76 -26 87 -19 9 -33 9 -55 1 -16 -6 -29 -7
-29 -2 0 9 -22 10 -52 2z"/>
<path d="M5908 9559 c-26 -15 -24 -59 3 -59 17 0 20 5 17 25 -4 20 -1 25 16
25 26 0 46 -18 46 -41 0 -11 -12 -18 -39 -23 -26 -4 -47 -15 -60 -32 -26 -33
-26 -39 -1 -64 24 -24 72 -26 94 -4 9 8 16 11 16 6 0 -16 30 -23 51 -12 20 11
27 60 9 60 -5 0 -10 -9 -10 -20 0 -11 -4 -20 -10 -20 -6 0 -10 28 -10 64 0 58
-3 67 -26 85 -29 23 -68 27 -96 10z m80 -120 c-4 -38 -30 -59 -55 -43 -9 6
-18 15 -21 22 -5 16 35 52 59 52 17 0 20 -5 17 -31z"/>
<path d="M6098 9563 c-22 -5 -24 -23 -3 -23 12 0 15 -14 15 -70 0 -56 -3 -70
-15 -70 -8 0 -15 -4 -15 -10 0 -5 23 -10 50 -10 28 0 50 5 50 10 0 6 -7 10
-15 10 -12 0 -15 13 -15 58 0 47 4 63 21 78 35 31 53 9 57 -70 2 -54 0 -66
-13 -66 -8 0 -15 -4 -15 -10 0 -5 23 -10 50 -10 28 0 50 5 50 10 0 6 -9 10
-20 10 -18 0 -20 7 -20 75 0 71 -1 76 -26 87 -19 9 -33 9 -55 1 -16 -6 -29 -7
-29 -2 0 9 -22 10 -52 2z"/>
<path d="M6608 9563 c-22 -5 -24 -23 -3 -23 12 0 15 -14 15 -70 0 -56 -3 -70
-15 -70 -8 0 -15 -4 -15 -10 0 -5 23 -10 50 -10 28 0 50 5 50 10 0 6 -7 10
-15 10 -12 0 -15 13 -15 58 0 47 4 63 21 78 35 31 53 9 57 -70 2 -54 0 -66
-13 -66 -8 0 -15 -4 -15 -10 0 -5 23 -10 50 -10 28 0 50 5 50 10 0 6 -9 10
-20 10 -18 0 -20 7 -20 75 0 71 -1 76 -26 87 -19 9 -33 9 -55 1 -16 -6 -29 -7
-29 -2 0 9 -22 10 -52 2z"/>
<path d="M7089 9541 c-58 -58 -28 -155 53 -168 30 -4 41 -1 62 20 26 26 34 47
17 47 -5 0 -16 -11 -25 -25 -9 -14 -25 -25 -36 -25 -26 0 -60 34 -60 60 0 18
7 20 65 20 36 0 65 4 65 9 0 4 -5 22 -11 40 -21 58 -83 69 -130 22z m91 -10
c18 -34 11 -41 -35 -41 -49 0 -53 5 -29 38 19 27 50 29 64 3z"/>
<path d="M7230 9550 c0 -5 8 -10 18 -10 11 0 31 -17 45 -37 l26 -36 -20 -29
c-11 -15 -31 -31 -45 -34 -38 -10 -28 -24 17 -24 31 0 40 3 36 14 -3 7 2 24
10 36 l16 23 17 -24 c10 -12 16 -29 13 -36 -4 -10 7 -13 41 -13 25 0 46 5 46
10 0 6 -8 10 -19 10 -10 0 -31 18 -46 40 l-28 41 28 29 c16 17 35 30 42 30 7
0 13 5 13 10 0 6 -18 10 -41 10 -35 0 -40 -3 -34 -19 3 -10 -1 -23 -8 -30 -11
-8 -18 -6 -32 9 -10 11 -13 20 -7 20 7 0 12 5 12 10 0 6 -22 10 -50 10 -27 0
-50 -4 -50 -10z"/>
<path d="M7620 9545 c0 -10 11 -15 35 -15 l35 0 0 -60 0 -60 -35 0 c-24 0 -35
-5 -35 -15 0 -12 16 -15 80 -15 64 0 80 3 80 15 0 10 -10 15 -30 15 l-30 0 0
75 0 75 -50 0 c-38 0 -50 -4 -50 -15z"/>
<path d="M6062 9037 c-45 -64 -120 -115 -210 -145 -74 -24 -90 -26 -402 -32
-308 -6 -328 -8 -385 -30 -118 -46 -248 -168 -206 -194 5 -4 19 10 31 29 32
52 116 111 201 141 72 26 82 27 404 34 313 6 333 8 390 30 69 27 147 79 184
122 l25 31 31 -35 c45 -51 97 -86 172 -115 67 -26 73 -27 393 -33 299 -6 331
-9 395 -29 86 -28 162 -78 205 -136 30 -41 50 -50 50 -23 0 19 -62 88 -109
121 -25 17 -73 43 -106 56 -57 22 -76 24 -385 31 -329 8 -350 10 -452 49 -57
22 -146 96 -179 149 l-14 24 -33 -45z"/>
<path d="M1658 8303 c-1 -104 -3 -169 -5 -145 -3 34 -8 42 -24 42 -15 0 -19
-7 -19 -35 0 -19 -2 -35 -4 -35 -2 0 -48 18 -103 40 -142 57 -224 73 -383 74
-187 1 -296 -25 -493 -117 -85 -39 -98 -52 -76 -74 7 -7 33 1 87 28 172 84
316 121 477 121 151 -1 310 -38 433 -101 l37 -19 -27 -13 c-16 -7 -28 -20 -28
-31 0 -22 7 -22 53 -3 68 28 77 23 77 -44 l0 -59 -74 -7 c-149 -14 -359 30
-502 103 l-36 19 31 13 c19 7 31 20 31 31 0 22 -16 24 -50 4 -14 -8 -36 -15
-50 -15 -47 -1 -54 -13 -37 -61 9 -24 18 -55 19 -69 5 -42 33 -31 33 13 0 20
4 37 8 37 4 0 29 -11 55 -24 127 -64 306 -100 466 -94 l106 4 0 -123 0 -123
1250 0 1250 0 1 183 c1 100 5 164 8 142 9 -57 36 -55 35 2 l-1 42 56 -29 c136
-68 304 -103 469 -98 l112 3 0 -122 0 -123 1255 0 1255 0 1 178 c1 97 4 161 8
142 9 -50 36 -48 36 3 0 20 4 37 8 37 4 0 29 -11 55 -24 169 -84 410 -117 602
-81 121 22 195 39 200 45 3 3 51 28 108 55 56 27 102 52 102 56 0 3 -6 12 -14
18 -11 10 -27 6 -75 -18 -80 -41 -177 -77 -275 -103 -99 -25 -286 -30 -391 -9
-73 15 -202 59 -262 90 l-35 18 31 13 c19 7 31 20 31 31 0 22 -16 24 -50 4
-14 -8 -37 -14 -52 -15 -27 0 -28 1 -28 60 l0 60 58 2 c91 3 183 -2 242 -13
68 -13 223 -63 270 -89 l35 -18 -27 -13 c-16 -7 -28 -20 -28 -31 0 -22 7 -22
53 -3 20 8 47 15 61 15 34 0 40 14 21 49 -8 17 -15 46 -15 66 0 28 -4 35 -20
35 -16 0 -20 -7 -20 -36 0 -42 7 -43 -120 10 -127 52 -214 69 -372 70 l-138 1
0 123 0 122 -1255 0 -1255 0 0 -145 c0 -138 -1 -145 -20 -145 -16 0 -20 -7
-20 -36 0 -42 7 -43 -120 10 -131 54 -214 70 -378 70 l-142 1 0 123 0 122
-1250 0 -1250 0 -2 -187z m822 -243 l0 -400 -400 0 -400 0 0 115 0 115 28 6
c76 17 112 27 162 45 75 27 230 101 230 109 0 4 -6 13 -14 19 -11 10 -29 5
-83 -22 -74 -37 -225 -91 -285 -102 l-38 -7 0 261 0 261 400 0 400 0 0 -400z
m830 0 l0 -400 -400 0 -400 0 0 400 0 400 400 0 400 0 0 -400z m828 288 l-3
-111 -70 -17 c-85 -20 -196 -60 -267 -96 -74 -37 -80 -42 -67 -65 9 -18 13
-17 82 17 107 55 267 111 320 114 4 0 7 -119 7 -265 l0 -265 -400 0 -400 0 0
400 0 400 400 0 401 0 -3 -112z m1532 -288 l0 -400 -400 0 -400 0 0 115 0 115
28 6 c81 18 113 28 177 51 105 39 205 91 205 108 0 28 -21 25 -102 -14 -89
-42 -210 -85 -270 -96 l-38 -7 0 261 0 261 400 0 400 0 0 -400z m830 0 l0
-400 -400 0 -400 0 0 400 0 400 400 0 400 0 0 -400z m820 286 l0 -113 -59 -12
c-69 -14 -200 -60 -274 -97 -72 -37 -79 -43 -67 -64 9 -18 15 -16 88 19 82 40
198 85 247 96 17 3 38 8 48 11 16 5 17 -12 17 -260 l0 -266 -400 0 -400 0 0
400 0 400 400 0 400 0 0 -114z m-2850 -157 c67 -12 222 -63 270 -89 l35 -18
-27 -12 c-31 -14 -44 -38 -25 -46 7 -2 30 2 50 11 62 26 67 22 67 -44 l0 -58
-46 -7 c-149 -20 -378 24 -530 102 l-36 19 31 13 c19 7 31 20 31 31 0 23 -9
24 -46 4 -16 -8 -41 -15 -56 -15 -27 0 -28 1 -28 60 l0 59 58 4 c72 5 181 -2
252 -14z"/>
<path d="M2910 8174 c0 -9 9 -18 20 -21 13 -3 20 -14 20 -29 0 -21 -3 -23 -25
-14 -19 7 -35 6 -59 -4 -83 -35 -65 -181 21 -178 16 0 52 1 81 1 52 1 72 18
32 28 -19 5 -20 14 -20 119 l0 114 -35 0 c-25 0 -35 -4 -35 -16z m29 -125 c29
-52 -32 -114 -73 -74 -34 35 -6 109 38 103 11 -2 27 -15 35 -29z"/>
<path d="M6058 8105 c-73 -41 -62 -149 18 -175 49 -16 114 10 114 47 0 18 -36
17 -44 -2 -12 -31 -96 -6 -96 28 0 4 32 7 71 7 l72 0 -7 32 c-12 63 -75 93
-128 63z m82 -45 c10 -19 8 -20 -40 -20 -27 0 -50 2 -50 4 0 3 7 12 16 20 22
22 61 20 74 -4z"/>
<path d="M314 7966 c-8 -21 3 -36 27 -36 15 0 20 6 17 22 -4 27 -35 37 -44 14z"/>
<path d="M494 7966 c-8 -21 3 -36 27 -36 15 0 20 6 17 22 -4 27 -35 37 -44 14z"/>
<path d="M684 7966 c-8 -21 3 -36 27 -36 15 0 20 6 17 22 -4 27 -35 37 -44 14z"/>
<path d="M8394 7966 c-8 -21 3 -36 27 -36 15 0 20 6 17 22 -4 27 -35 37 -44
14z"/>
<path d="M8584 7966 c-8 -21 3 -36 27 -36 15 0 20 6 17 22 -4 27 -35 37 -44
14z"/>
<path d="M3240 7234 c0 -9 9 -18 20 -21 13 -3 20 -14 20 -29 0 -21 -3 -23 -25
-14 -19 7 -35 6 -59 -4 -83 -35 -65 -181 21 -178 16 0 52 1 81 1 52 1 72 18
32 28 -19 5 -20 14 -20 119 l0 114 -35 0 c-25 0 -35 -4 -35 -16z m29 -125 c29
-52 -32 -114 -73 -74 -34 35 -6 109 38 103 11 -2 27 -15 35 -29z"/>
<path d="M2586 7173 c-3 -3 -30 -5 -61 -4 -43 1 -55 -2 -55 -14 0 -8 9 -15 20
-15 19 0 20 -7 20 -104 0 -97 -1 -104 -21 -109 -39 -10 -15 -32 36 -32 51 0
75 22 36 32 -16 4 -21 13 -21 39 0 32 1 33 23 23 18 -8 33 -7 60 4 71 30 71
150 -1 175 -17 6 -33 8 -36 5z m44 -65 c13 -25 13 -31 0 -55 -20 -36 -53 -41
-74 -11 -21 29 -20 62 0 83 23 23 56 15 74 -17z"/>
<path d="M2830 7170 c-14 -4 -49 -5 -77 -2 -44 4 -53 2 -53 -12 0 -10 8 -16
25 -16 24 0 25 -3 25 -60 0 -57 -1 -60 -25 -60 -16 0 -25 -6 -25 -15 0 -12 15
-15 75 -15 60 0 75 3 75 15 0 10 -10 15 -30 15 -27 0 -30 3 -30 34 0 45 8 64
31 77 13 6 25 6 38 0 14 -8 22 -7 31 4 22 27 -13 47 -60 35z"/>
<path d="M2978 7165 c-73 -41 -62 -149 18 -175 49 -16 114 10 114 47 0 18 -36
17 -44 -2 -12 -31 -96 -6 -96 28 0 4 32 7 71 7 l72 0 -7 32 c-12 63 -75 93
-128 63z m82 -45 c10 -19 8 -20 -40 -20 -27 0 -50 2 -50 4 0 3 7 12 16 20 22
22 61 20 74 -4z"/>
<path d="M2890 6495 c0 -140 -4 -255 -9 -255 -5 0 -14 7 -21 15 -14 16 -46 20
-54 6 -3 -4 12 -22 34 -40 22 -18 40 -36 40 -41 0 -6 -230 -10 -610 -10 l-610
0 -1 -182 c-1 -101 -5 -165 -8 -143 -8 56 -36 55 -36 -1 l0 -42 -37 19 c-66
34 -201 78 -287 94 -162 30 -349 14 -514 -44 -88 -31 -237 -100 -237 -110 0
-3 4 -13 9 -20 8 -13 24 -8 98 26 185 86 306 116 468 117 150 0 273 -28 418
-94 l59 -27 -31 -13 c-19 -7 -31 -20 -31 -31 0 -23 9 -24 46 -4 16 8 41 15 57
15 26 0 27 -1 27 -60 l0 -60 -57 -2 c-180 -7 -296 12 -450 74 l-103 41 30 18
c16 10 30 26 30 34 0 19 -8 19 -53 0 -20 -8 -47 -15 -61 -15 -34 0 -38 -12
-21 -54 8 -19 15 -49 15 -66 0 -25 4 -31 18 -28 13 3 17 13 16 40 l-1 37 41
-21 c53 -27 186 -73 261 -89 33 -8 121 -14 198 -14 l137 0 0 -122 0 -123 1250
0 1250 0 2 183 c1 100 3 165 5 145 3 -31 8 -38 25 -38 18 0 20 4 15 40 l-5 39
39 -20 c140 -71 338 -114 497 -107 l102 5 0 -124 0 -123 1255 0 1255 0 2 178
c0 97 3 162 5 144 3 -25 9 -32 21 -30 13 3 17 13 16 40 l-1 37 38 -19 c62 -32
190 -76 264 -91 109 -22 320 -17 428 9 49 12 99 22 112 22 12 0 25 7 29 15 3
8 11 15 18 15 15 0 156 66 175 81 14 12 6 39 -11 39 -7 0 -46 -16 -87 -36
-169 -83 -302 -116 -464 -116 -158 0 -254 21 -412 89 l-62 27 30 18 c16 10 29
25 29 33 0 19 -8 19 -53 0 -68 -28 -77 -23 -77 44 l0 58 73 7 c147 13 319 -21
486 -96 l54 -24 -32 -13 c-19 -8 -31 -21 -31 -32 0 -23 9 -24 46 -4 16 8 40
15 54 15 36 0 52 18 39 43 -6 11 -14 40 -18 66 -4 31 -11 46 -21 46 -11 0 -15
-11 -15 -41 l0 -42 -37 19 c-141 72 -334 114 -494 107 l-104 -5 0 124 0 123
-1255 0 -1255 0 0 -144 c0 -131 -2 -144 -17 -142 -14 1 -19 -8 -21 -36 -4 -43
-3 -43 -41 -23 -132 68 -323 109 -485 104 l-116 -4 0 122 0 123 -617 0 -618 1
43 38 c23 21 42 44 42 50 0 16 -32 14 -58 -5 l-22 -15 0 255 c0 249 -1 256
-20 256 -19 0 -20 -7 -20 -255z m-410 -745 l0 -400 -400 0 -401 0 3 112 3 111
70 17 c121 29 322 111 339 139 3 5 -1 14 -9 21 -13 11 -31 6 -103 -28 -113
-54 -245 -99 -294 -102 -5 0 -8 119 -8 265 l0 265 400 0 400 0 0 -400z m830 0
l0 -400 -400 0 -400 0 0 400 0 400 400 0 400 0 0 -400z m830 285 l0 -115 -27
-6 c-77 -17 -113 -27 -163 -45 -70 -25 -230 -101 -230 -108 0 -3 4 -13 9 -20
8 -13 24 -8 98 27 93 43 212 86 276 97 l37 7 0 -261 0 -261 -400 0 -400 0 0
400 0 400 400 0 400 0 0 -115z m1530 -285 l0 -400 -400 0 -401 0 3 112 3 111
75 18 c131 31 330 118 330 145 0 28 -28 25 -99 -11 -70 -35 -213 -86 -278
-100 l-33 -7 0 266 0 266 400 0 400 0 0 -400z m830 0 l0 -400 -400 0 -400 0 0
400 0 400 400 0 400 0 0 -400z m818 283 l-3 -117 -70 -17 c-38 -9 -86 -22
-105 -29 -52 -18 -230 -103 -230 -109 0 -3 4 -13 9 -20 8 -13 24 -8 98 27 86
40 206 83 271 97 l32 7 0 -261 0 -261 -400 0 -400 0 0 400 0 400 400 0 401 0
-3 -117z m-2823 -167 c81 -17 157 -43 234 -79 52 -25 53 -26 27 -33 -32 -8
-54 -41 -33 -50 7 -2 27 2 43 11 16 8 39 15 52 15 20 0 22 -4 22 -59 l0 -58
-70 -7 c-136 -12 -297 17 -452 82 l-88 37 30 14 c17 8 30 22 30 33 0 22 -7 22
-53 3 -68 -28 -77 -23 -77 44 l0 60 43 4 c69 8 217 -1 292 -17z"/>
<path d="M2910 5854 c0 -9 9 -18 20 -21 13 -3 20 -14 20 -29 0 -21 -3 -23 -25
-14 -19 7 -35 6 -59 -4 -83 -35 -65 -181 21 -178 16 0 52 1 81 1 52 1 72 18
32 28 -19 5 -20 14 -20 119 l0 114 -35 0 c-25 0 -35 -4 -35 -16z m29 -125 c29
-52 -32 -114 -73 -74 -34 35 -6 109 38 103 11 -2 27 -15 35 -29z"/>
<path d="M6058 5785 c-73 -41 -62 -149 18 -175 49 -16 114 10 114 47 0 18 -36
17 -44 -2 -12 -31 -96 -6 -96 28 0 4 32 7 71 7 l72 0 -7 32 c-12 63 -75 93
-128 63z m82 -45 c10 -19 8 -20 -40 -20 -27 0 -50 2 -50 4 0 3 7 12 16 20 22
22 61 20 74 -4z"/>
<path d="M314 5646 c-8 -21 3 -36 27 -36 15 0 20 6 17 22 -4 27 -35 37 -44 14z"/>
<path d="M494 5646 c-8 -21 3 -36 27 -36 15 0 20 6 17 22 -4 27 -35 37 -44 14z"/>
<path d="M684 5646 c-8 -21 3 -36 27 -36 15 0 20 6 17 22 -4 27 -35 37 -44 14z"/>
<path d="M8394 5646 c-8 -21 3 -36 27 -36 15 0 20 6 17 22 -4 27 -35 37 -44
14z"/>
<path d="M8584 5646 c-8 -21 3 -36 27 -36 15 0 20 6 17 22 -4 27 -35 37 -44
14z"/>
<path d="M4840 4315 l0 -425 1255 0 1255 0 0 425 0 425 -1255 0 -1255 0 0
-425z m800 392 c0 -1 -173 -175 -385 -387 l-385 -385 0 388 0 387 385 0 c212
0 385 -1 385 -3z m860 -397 l0 -400 -400 0 -400 0 0 400 0 400 400 0 400 0 0
-400z m800 397 c0 -1 -175 -178 -390 -392 l-390 -390 0 393 0 392 390 0 c215
0 390 -1 390 -3z m-1630 -412 l0 -385 -387 0 -388 0 385 385 c212 212 386 385
387 385 2 0 3 -173 3 -385z m1650 0 l0 -385 -387 0 -388 0 385 385 c212 212
386 385 387 385 2 0 3 -173 3 -385z"/>
<path d="M6000 4345 c0 -8 8 -15 18 -15 10 0 28 -13 39 -29 l22 -28 -22 -31
c-12 -18 -30 -32 -39 -32 -10 0 -18 -7 -18 -15 0 -11 12 -15 45 -15 43 0 45 1
39 24 -3 14 -1 27 6 31 16 10 29 -12 23 -36 -5 -17 0 -19 41 -19 34 0 46 4 46
15 0 8 -8 15 -18 15 -10 0 -28 14 -41 31 -21 29 -22 31 -6 56 9 14 26 28 36
30 10 3 19 12 19 19 0 10 -13 14 -45 14 -45 0 -54 -7 -35 -26 8 -8 6 -15 -5
-24 -16 -13 -19 -6 -16 33 2 14 -6 17 -43 17 -34 0 -46 -4 -46 -15z"/>
<path d="M3240 3474 c0 -9 9 -18 20 -21 13 -3 20 -14 20 -29 0 -21 -3 -23 -25
-14 -19 7 -35 6 -59 -4 -83 -35 -65 -181 21 -178 16 0 52 1 81 1 52 1 72 18
32 28 -19 5 -20 14 -20 119 l0 114 -35 0 c-25 0 -35 -4 -35 -16z m29 -125 c29
-52 -32 -114 -73 -74 -34 35 -6 109 38 103 11 -2 27 -15 35 -29z"/>
<path d="M2586 3413 c-3 -3 -30 -5 -61 -4 -43 1 -55 -2 -55 -14 0 -8 9 -15 20
-15 19 0 20 -7 20 -104 0 -97 -1 -104 -21 -109 -39 -10 -15 -32 36 -32 51 0
75 22 36 32 -16 4 -21 13 -21 39 0 32 1 33 23 23 18 -8 33 -7 60 4 71 30 71
150 -1 175 -17 6 -33 8 -36 5z m44 -65 c13 -25 13 -31 0 -55 -20 -36 -53 -41
-74 -11 -21 29 -20 62 0 83 23 23 56 15 74 -17z"/>
<path d="M2830 3410 c-14 -4 -49 -5 -77 -2 -44 4 -53 2 -53 -12 0 -10 8 -16
25 -16 24 0 25 -3 25 -60 0 -57 -1 -60 -25 -60 -16 0 -25 -6 -25 -15 0 -12 15
-15 75 -15 60 0 75 3 75 15 0 10 -10 15 -30 15 -27 0 -30 3 -30 34 0 45 8 64
31 77 13 6 25 6 38 0 14 -8 22 -7 31 4 22 27 -13 47 -60 35z"/>
<path d="M2978 3405 c-73 -41 -62 -149 18 -175 49 -16 114 10 114 47 0 18 -36
17 -44 -2 -12 -31 -96 -6 -96 28 0 4 32 7 71 7 l72 0 -7 32 c-12 63 -75 93
-128 63z m82 -45 c10 -19 8 -20 -40 -20 -27 0 -50 2 -50 4 0 3 7 12 16 20 22
22 61 20 74 -4z"/>
<path d="M2890 2740 l0 -261 -29 22 c-28 21 -61 21 -61 0 0 -6 13 -17 30 -26
16 -8 34 -24 40 -35 11 -20 7 -20 -600 -20 l-610 0 -2 -187 c-1 -104 -3 -169
-5 -145 -3 34 -8 42 -25 42 -17 0 -20 -5 -16 -39 l3 -38 -60 27 c-154 69 -272
94 -440 94 -182 0 -295 -27 -487 -117 -86 -39 -99 -52 -77 -74 8 -8 23 -4 55
14 69 39 208 91 303 114 197 47 454 15 639 -80 l37 -19 -27 -13 c-16 -7 -28
-20 -28 -31 0 -22 7 -22 53 -3 68 28 77 23 77 -44 l0 -58 -77 -7 c-153 -13
-357 29 -499 102 l-36 19 31 13 c19 7 31 20 31 31 0 22 -16 24 -50 4 -14 -8
-40 -14 -58 -15 -37 0 -49 -18 -32 -50 6 -11 14 -40 18 -63 10 -58 37 -58 36
0 l-1 42 46 -23 c145 -73 316 -110 478 -104 l113 4 0 -123 0 -123 1025 0 c974
0 1025 -1 1016 -17 -5 -10 -23 -27 -40 -38 -17 -11 -31 -26 -31 -32 0 -19 34
-15 62 7 l26 20 6 -41 c10 -63 60 -152 111 -197 59 -52 186 -114 300 -147 50
-14 212 -50 360 -80 149 -30 287 -59 308 -65 l37 -11 0 -419 0 -420 1255 0
1255 0 0 430 0 430 -202 0 -201 0 23 25 c13 13 31 27 42 31 19 6 24 29 8 39
-6 4 -25 -3 -44 -14 l-33 -21 -7 41 c-10 63 -52 136 -108 187 -123 114 -274
162 -728 232 -392 60 -411 58 463 59 l787 1 1 178 c1 97 4 161 8 142 9 -52 36
-47 35 7 l-1 42 46 -23 c185 -93 423 -128 621 -91 125 23 195 39 200 46 3 3
51 28 108 54 56 26 102 51 102 54 0 3 -4 13 -9 20 -8 13 -24 8 -98 -26 -191
-89 -307 -117 -478 -117 -152 1 -305 37 -431 102 l-36 19 31 13 c19 7 31 20
31 31 0 22 -16 24 -50 4 -14 -8 -37 -14 -52 -15 -27 0 -28 1 -28 60 l0 60 58
2 c193 7 368 -28 510 -101 l37 -19 -27 -13 c-16 -7 -28 -20 -28 -31 0 -22 7
-22 53 -3 20 8 47 15 61 15 34 0 40 14 21 49 -8 17 -15 46 -15 66 0 28 -4 35
-20 35 -16 0 -20 -7 -20 -36 0 -32 -2 -35 -22 -28 -13 3 -39 14 -58 24 -112
55 -255 84 -418 85 l-132 0 0 123 0 122 -1255 0 -1255 0 0 -425 0 -425 208 0
207 -1 -42 -38 c-24 -21 -43 -44 -43 -50 0 -16 32 -14 56 4 24 16 34 11 34
-18 0 -11 14 -50 31 -87 23 -50 45 -79 87 -114 128 -108 252 -147 682 -216
135 -22 265 -44 290 -49 30 -6 -144 -9 -505 -9 l-550 -1 44 40 c32 29 41 43
33 51 -8 8 -20 5 -46 -10 l-35 -21 -7 37 c-10 56 -58 143 -101 183 -110 103
-266 160 -628 229 -93 18 -219 44 -280 59 l-110 26 -3 418 -2 417 -611 0
c-648 0 -643 0 -571 45 35 22 43 55 13 55 -10 0 -24 -7 -31 -15 -7 -8 -16 -15
-21 -15 -5 0 -9 115 -9 255 0 248 -1 255 -20 255 -19 0 -20 -7 -20 -260z
m-410 -750 l0 -400 -400 0 -400 0 0 115 0 114 43 11 c133 32 377 129 377 150
0 4 -6 13 -14 19 -12 10 -32 4 -98 -27 -89 -43 -210 -86 -270 -97 l-38 -7 0
261 0 261 400 0 400 0 0 -400z m830 0 l0 -400 -400 0 -400 0 0 400 0 400 400
0 400 0 0 -400z m830 5 c0 -336 -2 -395 -14 -395 -23 0 -136 51 -191 86 -98
63 -159 155 -171 258 -6 50 -9 56 -30 56 -27 0 -29 -8 -13 -81 31 -142 124
-254 264 -315 26 -11 -20 -13 -307 -14 l-338 0 0 400 0 400 400 0 400 0 0
-395z m1530 -1 l0 -396 -27 6 c-51 12 -195 88 -235 124 -49 44 -92 128 -108
210 -10 50 -16 62 -31 62 -23 0 -25 -30 -5 -111 25 -107 100 -200 213 -265
l58 -33 -332 -1 -333 0 0 400 0 400 400 0 400 0 0 -396z m830 -4 l0 -400 -400
0 -400 0 0 400 0 400 400 0 400 0 0 -400z m820 286 l0 -113 -42 -7 c-62 -10
-212 -63 -293 -103 -85 -43 -79 -37 -66 -61 10 -20 13 -19 91 19 81 40 190 81
245 93 17 4 38 9 48 12 16 5 17 -12 17 -260 l0 -266 -400 0 -400 0 0 400 0
400 400 0 400 0 0 -114z m-3176 -731 c44 -13 205 -49 356 -80 419 -84 539
-125 643 -224 39 -36 97 -136 97 -166 0 -14 -3 -14 -25 1 -25 16 -45 12 -45
-9 0 -7 13 -21 30 -32 61 -41 50 -45 -118 -45 -129 0 -169 4 -222 20 -36 11
-187 45 -337 75 -298 60 -390 83 -484 121 -150 61 -245 153 -269 261 -8 32 -7
32 13 18 25 -18 57 -20 57 -4 0 6 -19 29 -42 50 l-43 38 154 1 c135 0 163 -3
235 -25z m1557 -5 c63 -16 229 -48 369 -70 140 -23 289 -48 330 -56 176 -37
329 -102 403 -172 32 -30 78 -111 88 -154 8 -33 6 -33 -26 -12 -13 9 -29 13
-35 9 -16 -10 -12 -33 8 -39 11 -4 29 -18 42 -31 l23 -25 -155 0 c-140 0 -170
3 -280 30 -68 16 -224 46 -348 65 -395 62 -522 96 -646 168 -88 52 -148 127
-168 210 -7 30 -4 32 23 15 10 -6 27 -8 37 -4 16 6 14 12 -24 42 -23 20 -42
40 -42 45 0 5 63 9 144 9 127 0 156 -3 257 -30z m-642 -664 c108 -66 173 -161
187 -273 5 -44 10 -53 27 -53 19 0 19 4 14 65 -5 48 -16 85 -43 136 -41 78
-94 130 -181 177 l-58 31 333 1 332 0 0 -400 0 -400 -400 0 -400 0 0 400 0
400 66 -25 c37 -14 92 -40 123 -59z m1441 -316 l0 -400 -400 0 -400 0 0 400 0
400 400 0 400 0 0 -400z m91 376 c191 -72 290 -178 306 -326 5 -55 8 -60 29
-60 28 0 30 13 13 92 -25 118 -105 222 -219 287 l-55 31 328 0 327 0 0 -400 0
-400 -400 0 -400 0 0 400 c0 220 2 400 4 400 2 0 32 -11 67 -24z"/>
<path d="M2910 2104 c0 -9 9 -18 20 -21 13 -3 20 -14 20 -29 0 -21 -3 -23 -25
-14 -19 7 -35 6 -59 -4 -83 -35 -65 -181 21 -178 16 0 52 1 81 1 52 1 72 18
32 28 -19 5 -20 14 -20 119 l0 114 -35 0 c-25 0 -35 -4 -35 -16z m29 -125 c29
-52 -32 -114 -73 -74 -34 35 -6 109 38 103 11 -2 27 -15 35 -29z"/>
<path d="M6058 2035 c-73 -41 -62 -149 18 -175 49 -16 114 10 114 47 0 18 -36
17 -44 -2 -12 -31 -96 -6 -96 28 0 4 32 7 71 7 l72 0 -7 32 c-12 63 -75 93
-128 63z m82 -45 c10 -19 8 -20 -40 -20 -27 0 -50 2 -50 4 0 3 7 12 16 20 22
22 61 20 74 -4z"/>
<path d="M6000 595 c0 -8 8 -15 18 -15 10 0 28 -13 39 -29 l22 -28 -22 -31
c-12 -18 -30 -32 -39 -32 -10 0 -18 -7 -18 -15 0 -11 12 -15 45 -15 43 0 45 1
39 24 -3 14 -1 27 6 31 16 10 29 -12 23 -36 -5 -17 0 -19 41 -19 34 0 46 4 46
15 0 8 -8 15 -18 15 -10 0 -28 14 -41 31 -21 29 -22 31 -6 56 9 14 26 28 36
30 10 3 19 12 19 19 0 10 -13 14 -45 14 -45 0 -54 -7 -35 -26 8 -8 6 -15 -5
-24 -16 -13 -19 -6 -16 33 2 14 -6 17 -43 17 -34 0 -46 -4 -46 -15z"/>
<path d="M314 1896 c-8 -21 3 -36 27 -36 15 0 20 6 17 22 -4 27 -35 37 -44 14z"/>
<path d="M494 1896 c-8 -21 3 -36 27 -36 15 0 20 6 17 22 -4 27 -35 37 -44 14z"/>
<path d="M684 1896 c-8 -21 3 -36 27 -36 15 0 20 6 17 22 -4 27 -35 37 -44 14z"/>
<path d="M8394 1896 c-8 -21 3 -36 27 -36 15 0 20 6 17 22 -4 27 -35 37 -44
14z"/>
<path d="M8584 1896 c-8 -21 3 -36 27 -36 15 0 20 6 17 22 -4 27 -35 37 -44
14z"/>
</g>
</svg>
