<?xml version="1.0" standalone="no"?>
<!DOCTYPE svg PUBLIC "-//W3C//DTD SVG 20010904//EN"
 "http://www.w3.org/TR/2001/REC-SVG-20010904/DTD/svg10.dtd">
<svg version="1.0" xmlns="http://www.w3.org/2000/svg"
 width="1933.000000pt" height="343.000000pt" viewBox="0 0 1933.000000 343.000000"
 preserveAspectRatio="xMidYMid meet">
<metadata>
Created by potrace 1.16, written by Peter Selinger 2001-2019
</metadata>
<g transform="translate(0.000000,343.000000) scale(0.100000,-0.100000)"
fill="#000000" stroke="none">
<path d="M2884 3176 c-8 -21 3 -36 27 -36 15 0 20 6 17 22 -4 27 -35 37 -44
14z"/>
<path d="M2830 3095 c0 -10 11 -15 35 -15 l35 0 0 -60 0 -60 -35 0 c-24 0 -35
-5 -35 -15 0 -12 16 -15 80 -15 64 0 80 3 80 15 0 10 -10 15 -30 15 l-30 0 0
75 0 75 -50 0 c-38 0 -50 -4 -50 -15z"/>
<path d="M11612 2858 c3 -7 14 -14 26 -16 20 -3 22 -9 22 -68 0 -62 -1 -64
-25 -64 -14 0 -25 -4 -25 -10 0 -6 28 -10 65 -10 37 0 65 4 65 10 0 6 -11 10
-25 10 -25 0 -25 1 -25 80 l0 80 -41 0 c-28 0 -39 -4 -37 -12z"/>
<path d="M18452 2858 c3 -7 14 -14 26 -16 20 -3 22 -9 22 -68 0 -62 -1 -64
-25 -64 -14 0 -25 -4 -25 -10 0 -6 28 -10 65 -10 37 0 65 4 65 10 0 6 -11 10
-25 10 -25 0 -25 1 -25 80 l0 80 -41 0 c-28 0 -39 -4 -37 -12z"/>
<path d="M4762 2848 c3 -7 14 -14 26 -16 20 -3 22 -9 22 -68 0 -62 -1 -64 -25
-64 -14 0 -25 -4 -25 -10 0 -6 28 -10 65 -10 37 0 65 4 65 10 0 6 -11 10 -25
10 -25 0 -25 1 -25 80 l0 80 -41 0 c-28 0 -39 -4 -37 -12z"/>
<path d="M12100 2836 c0 -7 -9 -16 -21 -19 -23 -6 -17 -27 7 -27 10 0 14 -13
14 -45 0 -38 4 -47 23 -54 12 -5 29 -6 37 -3 17 5 40 31 40 44 0 15 -29 8 -38
-8 -14 -25 -32 -7 -32 32 0 31 2 34 30 34 20 0 30 5 30 15 0 10 -10 15 -30 15
-20 0 -30 5 -30 15 0 8 -7 15 -15 15 -8 0 -15 -6 -15 -14z"/>
<path d="M18940 2836 c0 -7 -9 -16 -21 -19 -23 -6 -17 -27 7 -27 10 0 14 -13
14 -45 0 -38 4 -47 23 -54 12 -5 29 -6 37 -3 17 5 40 31 40 44 0 15 -29 8 -38
-8 -14 -25 -32 -7 -32 32 0 31 2 34 30 34 20 0 30 5 30 15 0 10 -10 15 -30 15
-20 0 -30 5 -30 15 0 8 -7 15 -15 15 -8 0 -15 -6 -15 -14z"/>
<path d="M5250 2826 c0 -7 -9 -16 -21 -19 -23 -6 -17 -27 7 -27 10 0 14 -13
14 -45 0 -38 4 -47 23 -54 12 -5 29 -6 37 -3 17 5 40 31 40 44 0 15 -29 8 -38
-8 -14 -25 -32 -7 -32 32 0 31 2 34 30 34 20 0 30 5 30 15 0 10 -10 15 -30 15
-20 0 -30 5 -30 15 0 8 -7 15 -15 15 -8 0 -15 -6 -15 -14z"/>
<path d="M11777 2813 c-4 -3 -7 -13 -7 -20 0 -10 9 -12 35 -7 23 4 35 2 35 -5
0 -6 -10 -11 -23 -11 -54 0 -76 -53 -31 -75 24 -12 124 -7 124 6 0 5 -7 9 -15
9 -11 0 -15 11 -15 39 0 23 -7 46 -16 55 -15 16 -75 22 -87 9z m73 -77 c0 -17
-35 -30 -51 -20 -9 5 -6 11 6 21 24 17 45 17 45 -1z"/>
<path d="M11932 2811 c-8 -4 -12 -19 -10 -32 2 -18 13 -26 41 -34 43 -12 53
-28 19 -33 -13 -2 -25 3 -28 12 -11 28 -36 19 -32 -11 3 -26 6 -28 45 -27 65
2 92 34 57 68 -8 9 -11 16 -5 16 6 0 11 11 11 25 0 23 -4 25 -42 25 -24 0 -49
-4 -56 -9z m68 -31 c0 -5 -9 -10 -19 -10 -11 0 -23 5 -26 10 -4 6 5 10 19 10
14 0 26 -4 26 -10z"/>
<path d="M18617 2813 c-4 -3 -7 -13 -7 -20 0 -10 9 -12 35 -7 23 4 35 2 35 -5
0 -6 -10 -11 -23 -11 -54 0 -76 -53 -31 -75 24 -12 124 -7 124 6 0 5 -7 9 -15
9 -11 0 -15 11 -15 39 0 23 -7 46 -16 55 -15 16 -75 22 -87 9z m73 -77 c0 -17
-35 -30 -51 -20 -9 5 -6 11 6 21 24 17 45 17 45 -1z"/>
<path d="M18782 2811 c-8 -4 -12 -19 -10 -32 2 -18 13 -26 41 -34 43 -12 53
-28 19 -33 -13 -2 -25 3 -28 12 -11 28 -36 19 -32 -11 3 -26 6 -28 45 -27 65
2 92 34 57 68 -8 9 -11 16 -5 16 6 0 11 11 11 25 0 23 -4 25 -42 25 -24 0 -49
-4 -56 -9z m68 -31 c0 -5 -9 -10 -19 -10 -11 0 -23 5 -26 10 -4 6 5 10 19 10
14 0 26 -4 26 -10z"/>
<path d="M4937 2803 c-4 -3 -7 -13 -7 -20 0 -10 9 -12 35 -7 23 4 35 2 35 -5
0 -6 -10 -11 -23 -11 -54 0 -76 -53 -31 -75 24 -12 124 -7 124 6 0 5 -7 9 -15
9 -11 0 -15 11 -15 39 0 23 -7 46 -16 55 -15 16 -75 22 -87 9z m73 -77 c0 -17
-35 -30 -51 -20 -9 5 -6 11 6 21 24 17 45 17 45 -1z"/>
<path d="M5092 2801 c-8 -4 -12 -19 -10 -32 2 -18 13 -26 41 -34 43 -12 53
-28 19 -33 -13 -2 -25 3 -28 12 -11 28 -36 19 -32 -11 3 -26 6 -28 45 -27 65
2 92 34 57 68 -8 9 -11 16 -5 16 6 0 11 11 11 25 0 23 -4 25 -42 25 -24 0 -49
-4 -56 -9z m68 -31 c0 -5 -9 -10 -19 -10 -11 0 -23 5 -26 10 -4 6 5 10 19 10
14 0 26 -4 26 -10z"/>
<path d="M2890 2590 c0 -108 -5 -125 -30 -95 -14 16 -46 20 -54 6 -3 -4 12
-22 34 -40 22 -18 40 -36 40 -41 0 -6 -230 -10 -610 -10 l-610 0 -1 -182 c-1
-101 -5 -165 -8 -143 -8 56 -36 55 -36 -1 l0 -42 -37 19 c-66 34 -201 78 -287
94 -159 29 -350 14 -510 -42 -82 -28 -241 -102 -241 -112 0 -3 4 -13 9 -20 8
-13 24 -8 98 26 186 87 307 117 468 117 150 -1 273 -28 418 -94 l59 -27 -31
-13 c-19 -7 -31 -20 -31 -31 0 -23 9 -24 46 -4 16 8 41 15 57 15 26 0 27 -1
27 -60 l0 -60 -57 -2 c-184 -6 -296 12 -450 74 l-103 41 30 18 c16 10 30 26
30 34 0 19 -8 19 -53 0 -20 -8 -47 -15 -61 -15 -34 0 -38 -12 -21 -54 8 -19
15 -49 15 -66 0 -25 4 -31 18 -28 13 3 17 13 16 40 l-1 37 46 -23 c137 -69
352 -113 504 -102 l87 6 0 -125 0 -125 1250 0 1250 0 0 200 c0 194 1 200 19
188 10 -6 26 -24 35 -40 19 -31 46 -38 46 -10 0 10 -7 28 -16 40 l-15 22 200
0 201 0 0 -200 0 -200 430 0 430 0 0 425 0 425 -430 0 -430 0 0 -200 0 -200
-201 0 -200 0 15 22 c19 26 21 58 5 58 -6 0 -29 -19 -50 -42 l-38 -43 -1 203
0 202 -617 0 -618 1 43 38 c23 21 42 44 42 50 0 16 -32 14 -58 -5 l-22 -15 0
110 c0 104 -1 111 -20 111 -19 0 -20 -7 -20 -110z m-410 -600 l0 -400 -400 0
-401 0 3 112 3 111 70 17 c85 20 196 60 267 96 75 37 79 42 66 64 -11 17 -16
16 -82 -17 -107 -54 -266 -110 -318 -113 -5 0 -8 119 -8 265 l0 265 400 0 400
0 0 -400z m830 0 l0 -400 -400 0 -400 0 0 400 0 400 400 0 400 0 0 -400z m800
397 c0 -1 -173 -175 -385 -387 l-385 -385 0 388 0 387 385 0 c212 0 385 -1
385 -3z m1350 -397 l0 -400 -400 0 -400 0 0 185 0 185 205 0 205 0 0 25 0 25
-205 0 -205 0 0 190 0 190 400 0 400 0 0 -400z m-1320 -15 l0 -385 -387 0
-388 0 385 385 c212 212 386 385 387 385 2 0 3 -173 3 -385z"/>
<path d="M2868 2025 c-73 -41 -62 -149 18 -175 49 -16 114 10 114 47 0 18 -36
17 -44 -2 -12 -31 -96 -6 -96 28 0 4 32 7 71 7 l72 0 -7 32 c-12 63 -75 93
-128 63z m82 -45 c10 -19 8 -20 -40 -20 -27 0 -50 2 -50 4 0 3 7 12 16 20 22
22 61 20 74 -4z"/>
<path d="M8498 2243 c0 -98 -3 -163 -5 -145 -3 25 -9 32 -21 30 -13 -3 -17
-13 -16 -40 l1 -37 -41 21 c-53 27 -186 73 -261 89 -89 20 -313 17 -407 -5
-90 -20 -216 -65 -291 -102 -73 -37 -79 -42 -66 -65 9 -18 14 -17 87 20 100
49 198 85 292 106 96 22 280 22 379 0 66 -14 281 -92 281 -102 0 -2 -11 -8
-25 -13 -25 -10 -43 -36 -32 -47 4 -3 24 2 47 11 72 29 80 25 80 -43 l0 -58
-71 -7 c-141 -14 -323 21 -483 94 -58 27 -60 28 -33 35 34 9 55 42 32 51 -8 4
-21 1 -29 -5 -8 -7 -33 -15 -57 -19 -49 -9 -48 -5 -32 -107 10 -62 36 -70 41
-12 4 42 3 42 41 22 130 -67 329 -109 486 -103 l105 4 0 -123 0 -123 1255 0
1255 0 0 196 c0 209 4 221 45 156 11 -17 25 -31 32 -32 23 0 25 22 4 51 l-22
29 206 0 205 0 0 -200 0 -200 425 0 425 0 0 425 0 425 -425 0 -425 0 0 -200 0
-200 -200 0 c-110 0 -200 2 -200 5 0 3 7 17 16 30 9 13 13 29 9 35 -10 16 -33
12 -39 -8 -4 -11 -18 -29 -31 -42 l-25 -23 0 201 0 202 -1255 0 -1255 0 -2
-177z m832 -253 l0 -400 -400 0 -401 0 3 117 3 116 70 17 c39 9 95 26 125 37
74 28 210 94 210 102 0 3 -4 12 -9 20 -8 12 -27 7 -108 -31 -83 -39 -253 -98
-284 -98 -5 0 -9 115 -9 260 l0 260 400 0 400 0 0 -400z m820 0 l0 -400 -400
0 -400 0 0 400 0 400 400 0 400 0 0 -400z m800 397 c0 -1 -173 -175 -385 -387
l-385 -385 0 388 0 387 385 0 c212 0 385 -1 385 -3z m1350 -397 l0 -400 -400
0 -400 0 0 190 0 190 205 0 205 0 0 25 0 25 -205 0 -205 0 0 185 0 185 400 0
400 0 0 -400z m-1320 -10 l0 -390 -392 0 -393 0 390 390 c214 215 391 390 392
390 2 0 3 -175 3 -390z"/>
<path d="M9708 2035 c-73 -41 -62 -149 18 -175 49 -16 114 10 114 47 0 18 -36
17 -44 -2 -12 -31 -96 -6 -96 28 0 4 32 7 71 7 l72 0 -7 32 c-12 63 -75 93
-128 63z m82 -45 c10 -19 8 -20 -40 -20 -27 0 -50 2 -50 4 0 3 7 12 16 20 22
22 61 20 74 -4z"/>
<path d="M15340 2275 c0 -138 -1 -145 -20 -145 -17 0 -20 -7 -20 -40 l0 -40
-47 24 c-142 71 -280 101 -458 100 -181 0 -310 -33 -490 -122 -84 -42 -78 -36
-70 -61 6 -20 8 -20 75 14 283 143 543 165 815 72 39 -14 88 -33 110 -44 l39
-20 -32 -17 c-18 -9 -32 -21 -32 -27 0 -18 26 -20 56 -4 16 8 39 15 52 15 20
0 22 -4 22 -59 l0 -59 -73 -6 c-144 -14 -331 24 -489 100 l-38 17 30 19 c33
19 42 54 13 45 -10 -4 -38 -11 -63 -18 -25 -6 -51 -13 -59 -15 -9 -3 -11 -11
-6 -27 4 -12 12 -44 18 -72 13 -61 13 -61 31 -46 10 9 13 22 9 43 -6 28 -4 30
18 23 13 -4 40 -15 59 -25 114 -58 301 -94 449 -88 l101 4 0 -123 0 -123 788
-1 c876 -1 857 1 462 -60 -445 -68 -613 -122 -729 -232 -42 -41 -101 -145
-101 -179 0 -9 -3 -23 -6 -32 -5 -13 -10 -12 -35 6 -23 17 -31 19 -44 8 -13
-11 -9 -17 28 -51 l42 -38 -202 -1 -203 0 0 -430 0 -430 1255 0 1255 0 0 201
c0 214 3 226 45 161 20 -32 55 -43 55 -18 0 7 -9 25 -20 39 l-21 26 28 6 c15
4 54 18 85 32 136 62 221 241 277 588 12 72 33 192 47 268 l26 137 399 0 399
0 0 425 0 425 -425 0 -425 0 0 -438 c1 -428 0 -441 -25 -582 -14 -80 -37 -206
-50 -281 -55 -304 -129 -451 -259 -510 -57 -26 -71 -25 -52 3 9 12 16 28 16
35 0 24 -35 12 -55 -19 -42 -65 -45 -53 -45 161 l0 201 -772 1 c-864 1 -836
-3 -409 65 391 61 549 114 659 218 50 47 98 135 108 196 l7 41 21 -21 c25 -22
66 -27 66 -7 0 7 -13 21 -30 30 -16 10 -35 27 -40 38 -10 19 -6 19 190 19
l200 0 0 425 0 425 -1255 0 -1255 0 0 -145z m830 -285 l0 -400 -400 0 -400 0
0 115 0 114 43 11 c159 39 367 127 367 155 0 29 -28 26 -101 -11 -80 -40 -211
-87 -271 -98 l-38 -7 0 261 0 260 400 0 400 0 0 -400z m830 0 l0 -400 -400 0
-400 0 0 400 0 400 400 0 400 0 0 -400z m820 0 l0 -400 -332 0 -333 0 65 36
c128 71 207 181 217 306 6 63 5 68 -14 68 -17 0 -21 -9 -27 -56 -17 -144 -124
-259 -308 -328 l-68 -25 0 399 0 400 400 0 400 0 0 -400z m1330 0 l0 -400
-385 0 c-212 0 -385 2 -385 5 0 2 13 40 29 83 65 178 157 270 290 288 45 6 51
9 51 30 0 28 -1 28 -72 13 -146 -31 -226 -105 -299 -277 l-28 -67 -1 363 0
362 400 0 400 0 0 -400z m-1787 -459 c-24 -21 -43 -44 -43 -50 0 -16 32 -14
57 4 20 14 21 14 13 -20 -12 -52 -53 -116 -105 -164 -98 -90 -271 -146 -620
-200 -258 -41 -393 -66 -482 -91 -59 -16 -103 -20 -230 -20 l-158 1 38 34 c20
20 37 39 37 45 0 18 -22 21 -45 6 -24 -15 -25 -15 -25 2 0 31 48 114 93 160
105 108 243 153 681 223 265 42 413 71 474 94 25 9 87 14 197 14 l160 0 -42
-38z m-1353 -582 c-8 -5 -32 -19 -53 -30 -104 -55 -189 -180 -203 -297 -6 -58
-5 -62 14 -62 16 0 21 9 27 48 16 110 88 213 193 273 42 25 166 79 179 79 2 0
3 -180 3 -400 l0 -400 -400 0 -400 0 0 400 0 400 328 0 c226 0 322 -3 312 -11z
m990 -389 l0 -400 -400 0 -400 0 0 400 0 400 400 0 400 0 0 -400z m800 397 c0
-1 -175 -178 -390 -392 l-390 -390 0 393 0 392 390 0 c215 0 390 -1 390 -3z
m20 -412 l0 -385 -387 0 -388 0 385 385 c212 212 386 385 387 385 2 0 3 -173
3 -385z"/>
<path d="M16558 2035 c-73 -41 -62 -149 18 -175 49 -16 114 10 114 47 0 18
-36 17 -44 -2 -12 -31 -96 -6 -96 28 0 4 32 7 71 7 l72 0 -7 32 c-12 63 -75
93 -128 63z m82 -45 c10 -19 8 -20 -40 -20 -27 0 -50 2 -50 4 0 3 7 12 16 20
22 22 61 20 74 -4z"/>
<path d="M16500 595 c0 -8 8 -15 18 -15 10 0 28 -13 39 -29 l22 -28 -22 -31
c-12 -18 -30 -32 -39 -32 -10 0 -18 -7 -18 -15 0 -11 12 -15 45 -15 43 0 45 1
39 24 -3 14 -1 27 6 31 16 10 29 -12 23 -36 -5 -17 0 -19 41 -19 34 0 46 4 46
15 0 8 -8 15 -18 15 -10 0 -28 14 -41 31 -21 29 -22 31 -6 56 9 14 26 28 36
30 10 3 19 12 19 19 0 10 -13 14 -45 14 -45 0 -54 -7 -35 -26 8 -8 6 -15 -5
-24 -16 -13 -19 -6 -16 33 2 14 -6 17 -43 17 -34 0 -46 -4 -46 -15z"/>
<path d="M7154 1896 c-8 -21 3 -36 27 -36 15 0 20 6 17 22 -4 27 -35 37 -44
14z"/>
<path d="M7334 1896 c-8 -21 3 -36 27 -36 15 0 20 6 17 22 -4 27 -35 37 -44
14z"/>
<path d="M7524 1896 c-8 -21 3 -36 27 -36 15 0 20 6 17 22 -4 27 -35 37 -44
14z"/>
<path d="M13994 1896 c-8 -21 3 -36 27 -36 15 0 20 6 17 22 -4 27 -35 37 -44
14z"/>
<path d="M14184 1896 c-8 -21 3 -36 27 -36 15 0 20 6 17 22 -4 27 -35 37 -44
14z"/>
<path d="M14364 1896 c-8 -21 3 -36 27 -36 15 0 20 6 17 22 -4 27 -35 37 -44
14z"/>
<path d="M314 1886 c-8 -21 3 -36 27 -36 15 0 20 6 17 22 -4 27 -35 37 -44 14z"/>
<path d="M494 1886 c-8 -21 3 -36 27 -36 15 0 20 6 17 22 -4 27 -35 37 -44 14z"/>
<path d="M684 1886 c-8 -21 3 -36 27 -36 15 0 20 6 17 22 -4 27 -35 37 -44 14z"/>
<path d="M8500 560 l0 -430 1255 0 1255 0 0 430 0 430 -1255 0 -1255 0 0 -430z
m800 397 c0 -1 -173 -175 -385 -387 l-385 -385 0 388 0 387 385 0 c212 0 385
-1 385 -3z m850 -397 l0 -400 -400 0 -400 0 0 400 0 400 400 0 400 0 0 -400z
m800 397 c0 -1 -173 -175 -385 -387 l-385 -385 0 388 0 387 385 0 c212 0 385
-1 385 -3z m-1620 -407 l0 -390 -392 0 -393 0 390 390 c214 215 391 390 392
390 2 0 3 -175 3 -390z m1650 -5 l0 -385 -387 0 -388 0 385 385 c212 212 386
385 387 385 2 0 3 -173 3 -385z"/>
<path d="M9650 595 c0 -8 8 -15 18 -15 10 0 28 -13 39 -29 l22 -28 -22 -31
c-12 -18 -30 -32 -39 -32 -10 0 -18 -7 -18 -15 0 -11 12 -15 45 -15 43 0 45 1
39 24 -3 14 -1 27 6 31 16 10 29 -12 23 -36 -5 -17 0 -19 41 -19 34 0 46 4 46
15 0 8 -8 15 -18 15 -10 0 -28 14 -41 31 -21 29 -22 31 -6 56 9 14 26 28 36
30 10 3 19 12 19 19 0 10 -13 14 -45 14 -45 0 -54 -7 -35 -26 8 -8 6 -15 -5
-24 -16 -13 -19 -6 -16 33 2 14 -6 17 -43 17 -34 0 -46 -4 -46 -15z"/>
</g>
</svg>
