<?xml version="1.0" standalone="no"?>
<!DOCTYPE svg PUBLIC "-//W3C//DTD SVG 20010904//EN"
 "http://www.w3.org/TR/2001/REC-SVG-20010904/DTD/svg10.dtd">
<svg version="1.0" xmlns="http://www.w3.org/2000/svg"
 width="830.000000pt" height="165.000000pt" viewBox="0 0 830.000000 165.000000"
 preserveAspectRatio="xMidYMid meet">
<metadata>
Created by potrace 1.16, written by Peter Selinger 2001-2019
</metadata>
<g transform="translate(0.000000,165.000000) scale(0.100000,-0.100000)"
fill="#000000" stroke="none">
<path d="M130 1085 l0 -425 1410 0 1410 0 0 425 0 425 -1410 0 -1410 0 0 -425z
m930 5 l0 -400 -450 0 -450 0 0 400 0 400 450 0 450 0 0 -400z m930 0 l0 -400
-450 0 -450 0 0 400 0 400 450 0 450 0 0 -400z m930 0 l0 -400 -450 0 -450 0
0 400 0 400 450 0 450 0 0 -400z"/>
<path d="M340 1158 c0 -29 4 -59 9 -67 17 -26 31 1 31 60 0 52 -2 59 -20 59
-17 0 -20 -7 -20 -52z"/>
<path d="M416 1202 c-10 -16 7 -122 19 -122 14 0 31 102 20 120 -7 12 -32 13
-39 2z"/>
<path d="M770 1158 c0 -29 4 -59 9 -67 17 -26 31 1 31 60 0 52 -2 59 -20 59
-17 0 -20 -7 -20 -52z"/>
<path d="M846 1202 c-10 -16 7 -122 19 -122 14 0 31 102 20 120 -7 12 -32 13
-39 2z"/>
<path d="M553 1130 c-29 -12 -31 -50 -3 -50 11 0 20 5 20 11 0 14 62 7 67 -7
2 -7 -13 -15 -34 -19 -52 -9 -83 -31 -83 -58 1 -51 34 -66 128 -60 52 4 72 10
72 19 0 8 -9 14 -20 14 -18 0 -20 7 -20 58 0 45 -4 63 -19 76 -23 21 -78 29
-108 16z m83 -136 c-7 -19 -65 -18 -73 1 -7 20 -1 26 39 34 34 7 46 -4 34 -35z"/>
<path d="M1270 1158 c0 -29 4 -59 9 -67 17 -26 31 1 31 60 0 52 -2 59 -20 59
-17 0 -20 -7 -20 -52z"/>
<path d="M1346 1202 c-10 -16 7 -122 19 -122 14 0 31 102 20 120 -7 12 -32 13
-39 2z"/>
<path d="M1435 1200 c-8 -14 3 -30 21 -30 11 0 14 -21 14 -111 0 -99 2 -110
18 -108 9 2 27 0 39 -5 37 -12 89 17 103 58 25 77 -31 146 -102 126 -28 -9
-28 -8 -28 36 0 42 -1 44 -29 44 -17 0 -33 -4 -36 -10z m155 -132 c13 -25 13
-31 0 -55 -20 -36 -53 -41 -74 -11 -21 29 -20 62 0 83 23 23 56 15 74 -17z"/>
<path d="M1700 1158 c0 -29 4 -59 9 -67 17 -26 31 1 31 60 0 52 -2 59 -20 59
-17 0 -20 -7 -20 -52z"/>
<path d="M1776 1202 c-10 -16 7 -122 19 -122 14 0 31 102 20 120 -7 12 -32 13
-39 2z"/>
<path d="M2200 1158 c0 -29 4 -59 9 -67 17 -26 31 1 31 60 0 52 -2 59 -20 59
-17 0 -20 -7 -20 -52z"/>
<path d="M2276 1202 c-10 -16 7 -122 19 -122 14 0 31 102 20 120 -7 12 -32 13
-39 2z"/>
<path d="M2630 1158 c0 -29 4 -59 9 -67 17 -26 31 1 31 60 0 52 -2 59 -20 59
-17 0 -20 -7 -20 -52z"/>
<path d="M2706 1202 c-10 -16 7 -122 19 -122 14 0 31 102 20 120 -7 12 -32 13
-39 2z"/>
<path d="M2453 1133 c-60 -12 -84 -108 -39 -160 19 -22 33 -28 64 -28 42 0 82
26 82 52 0 18 -36 17 -44 -2 -7 -19 -46 -19 -71 -1 -25 18 -25 74 0 92 22 16
65 19 65 4 0 -5 9 -10 20 -10 26 0 27 36 1 50 -20 10 -38 11 -78 3z"/>
<path d="M4420 1085 l0 -425 1870 0 1870 0 0 425 0 425 -1870 0 -1870 0 0
-425z m930 5 l0 -400 -455 0 -455 0 0 400 0 400 455 0 455 0 0 -400z m930 0
l0 -400 -455 0 -455 0 0 400 0 400 455 0 455 0 0 -400z m930 0 l0 -400 -455 0
-455 0 0 400 0 400 455 0 455 0 0 -400z m930 0 l0 -400 -455 0 -455 0 0 400 0
400 455 0 455 0 0 -400z"/>
<path d="M4620 1158 c0 -29 4 -59 9 -67 17 -26 31 1 31 60 0 52 -2 59 -20 59
-17 0 -20 -7 -20 -52z"/>
<path d="M4696 1202 c-10 -16 7 -122 19 -122 14 0 31 102 20 120 -7 12 -32 13
-39 2z"/>
<path d="M5050 1158 c0 -29 4 -59 9 -67 17 -26 31 1 31 60 0 52 -2 59 -20 59
-17 0 -20 -7 -20 -52z"/>
<path d="M5126 1202 c-10 -16 7 -122 19 -122 14 0 31 102 20 120 -7 12 -32 13
-39 2z"/>
<path d="M4843 1130 c-29 -12 -31 -50 -3 -50 11 0 20 5 20 11 0 14 62 7 67 -7
2 -7 -13 -15 -34 -19 -52 -9 -83 -31 -83 -58 1 -51 34 -66 128 -60 52 4 72 10
72 19 0 8 -9 14 -20 14 -18 0 -20 7 -20 58 0 45 -4 63 -19 76 -23 21 -78 29
-108 16z m83 -136 c-7 -19 -65 -18 -73 1 -7 20 -1 26 39 34 34 7 46 -4 34 -35z"/>
<path d="M5550 1158 c0 -29 4 -59 9 -67 17 -26 31 1 31 60 0 52 -2 59 -20 59
-17 0 -20 -7 -20 -52z"/>
<path d="M5626 1202 c-10 -16 7 -122 19 -122 14 0 31 102 20 120 -7 12 -32 13
-39 2z"/>
<path d="M5725 1200 c-8 -14 3 -30 21 -30 11 0 14 -21 14 -111 0 -99 2 -110
18 -108 9 2 27 0 39 -5 37 -12 89 17 103 58 25 77 -31 146 -102 126 -28 -9
-28 -8 -28 36 0 42 -1 44 -29 44 -17 0 -33 -4 -36 -10z m155 -132 c13 -25 13
-31 0 -55 -20 -36 -53 -41 -74 -11 -21 29 -20 62 0 83 23 23 56 15 74 -17z"/>
<path d="M5980 1158 c0 -29 4 -59 9 -67 17 -26 31 1 31 60 0 52 -2 59 -20 59
-17 0 -20 -7 -20 -52z"/>
<path d="M6056 1202 c-10 -16 7 -122 19 -122 14 0 31 102 20 120 -7 12 -32 13
-39 2z"/>
<path d="M6480 1158 c0 -29 4 -59 9 -67 17 -26 31 1 31 60 0 52 -2 59 -20 59
-17 0 -20 -7 -20 -52z"/>
<path d="M6556 1202 c-10 -16 7 -122 19 -122 14 0 31 102 20 120 -7 12 -32 13
-39 2z"/>
<path d="M6910 1158 c0 -29 4 -59 9 -67 17 -26 31 1 31 60 0 52 -2 59 -20 59
-17 0 -20 -7 -20 -52z"/>
<path d="M6986 1202 c-10 -16 7 -122 19 -122 14 0 31 102 20 120 -7 12 -32 13
-39 2z"/>
<path d="M6743 1133 c-60 -12 -84 -108 -39 -160 19 -22 33 -28 64 -28 42 0 82
26 82 52 0 18 -36 17 -44 -2 -3 -8 -16 -15 -29 -15 -37 0 -60 23 -60 60 0 20
7 38 18 46 22 16 65 19 65 4 0 -5 9 -10 20 -10 26 0 27 36 1 50 -20 10 -38 11
-78 3z"/>
<path d="M7410 1158 c0 -29 4 -59 9 -67 17 -26 31 1 31 60 0 52 -2 59 -20 59
-17 0 -20 -7 -20 -52z"/>
<path d="M7486 1202 c-10 -16 7 -122 19 -122 14 0 31 102 20 120 -7 12 -32 13
-39 2z"/>
<path d="M7840 1158 c0 -29 4 -59 9 -67 17 -26 31 1 31 60 0 52 -2 59 -20 59
-17 0 -20 -7 -20 -52z"/>
<path d="M7916 1202 c-10 -16 7 -122 19 -122 14 0 31 102 20 120 -7 12 -32 13
-39 2z"/>
<path d="M7590 1115 c0 -8 8 -15 18 -15 10 0 28 -13 39 -29 l22 -28 -22 -31
c-12 -18 -30 -32 -39 -32 -10 0 -18 -7 -18 -15 0 -11 12 -15 45 -15 43 0 45 1
39 24 -3 14 -1 27 6 31 16 10 29 -12 23 -36 -5 -17 0 -19 41 -19 34 0 46 4 46
15 0 8 -8 15 -18 15 -10 0 -28 14 -41 31 -21 29 -22 31 -6 56 9 14 26 28 36
30 10 3 19 12 19 19 0 10 -13 14 -45 14 -45 0 -54 -7 -35 -26 8 -8 6 -15 -5
-24 -16 -13 -19 -6 -16 33 2 14 -6 17 -43 17 -34 0 -46 -4 -46 -15z"/>
<path d="M4190 1152 c0 -4 7 -18 16 -30 l15 -22 -565 0 c-496 0 -566 -2 -566
-15 0 -13 70 -15 566 -15 l565 0 -15 -22 c-18 -25 -20 -38 -7 -38 8 0 81 68
81 75 0 2 -16 19 -36 39 -35 35 -54 45 -54 28z"/>
<path d="M3373 488 c-39 -41 -53 -76 -53 -136 0 -54 30 -114 72 -145 44 -32
53 -10 14 33 -67 74 -67 156 -1 229 33 36 36 51 10 51 -6 0 -25 -15 -42 -32z"/>
<path d="M4590 512 c0 -5 12 -19 26 -33 37 -34 54 -72 54 -118 0 -54 -14 -88
-52 -123 -23 -22 -28 -32 -20 -40 18 -18 62 19 90 72 37 74 24 161 -35 223
-25 25 -63 37 -63 19z"/>
<path d="M2920 474 c0 -9 9 -18 20 -21 13 -3 20 -14 20 -29 0 -21 -3 -23 -25
-14 -19 7 -35 6 -59 -4 -83 -35 -65 -181 21 -178 16 0 52 1 81 1 52 1 72 18
32 28 -19 5 -20 14 -20 119 l0 114 -35 0 c-25 0 -35 -4 -35 -16z m29 -125 c29
-52 -32 -114 -73 -74 -34 35 -6 109 38 103 11 -2 27 -15 35 -29z"/>
<path d="M3140 474 c0 -9 9 -18 20 -21 13 -3 20 -14 20 -29 0 -21 -3 -23 -25
-14 -19 7 -35 6 -59 -4 -83 -35 -65 -181 21 -178 16 0 52 1 81 1 52 1 72 18
32 28 -19 5 -20 14 -20 119 l0 114 -35 0 c-25 0 -35 -4 -35 -16z m29 -125 c29
-52 -32 -114 -73 -74 -34 35 -6 109 38 103 11 -2 27 -15 35 -29z"/>
<path d="M3518 479 c-25 -14 -24 -59 1 -59 10 0 21 9 24 20 3 13 13 20 29 20
34 0 50 -14 46 -41 -2 -18 -12 -26 -40 -33 -46 -11 -51 -36 -8 -36 28 0 70
-29 70 -48 0 -13 -32 -40 -50 -42 -35 -5 -51 2 -60 25 -16 42 -55 30 -43 -14
11 -44 88 -64 142 -36 44 22 56 82 25 116 -12 13 -13 22 -5 38 18 32 13 69
-11 85 -25 18 -94 21 -120 5z"/>
<path d="M3950 438 c0 -29 4 -59 9 -67 17 -26 31 1 31 60 0 52 -2 59 -20 59
-17 0 -20 -7 -20 -52z"/>
<path d="M4026 482 c-10 -16 7 -122 19 -122 14 0 31 102 20 120 -7 12 -32 13
-39 2z"/>
<path d="M4390 438 c0 -29 4 -59 9 -67 17 -26 31 1 31 60 0 52 -2 59 -20 59
-17 0 -20 -7 -20 -52z"/>
<path d="M4466 482 c-10 -16 7 -122 19 -122 14 0 31 102 20 120 -7 12 -32 13
-39 2z"/>
<path d="M2643 410 c-29 -12 -31 -50 -3 -50 11 0 20 5 20 11 0 14 62 7 67 -7
2 -7 -13 -15 -34 -19 -52 -9 -83 -31 -83 -58 1 -51 34 -66 128 -60 52 4 72 10
72 19 0 8 -9 14 -20 14 -18 0 -20 7 -20 58 0 45 -4 63 -19 76 -23 21 -78 29
-108 16z m83 -136 c-7 -19 -65 -18 -73 1 -7 20 -1 26 39 34 34 7 46 -4 34 -35z"/>
<path d="M4130 395 c0 -8 8 -15 18 -15 10 0 28 -13 39 -29 l22 -28 -22 -31
c-12 -18 -30 -32 -39 -32 -10 0 -18 -7 -18 -15 0 -11 12 -15 45 -15 43 0 45 1
39 24 -3 14 -1 27 6 31 16 10 29 -12 23 -36 -5 -17 0 -19 41 -19 34 0 46 4 46
15 0 8 -8 15 -18 15 -10 0 -28 14 -41 31 -21 29 -22 31 -6 56 9 14 26 28 36
30 10 3 19 12 19 19 0 10 -13 14 -45 14 -45 0 -54 -7 -35 -26 8 -8 6 -15 -5
-24 -16 -13 -19 -6 -16 33 2 14 -6 17 -43 17 -34 0 -46 -4 -46 -15z"/>
<path d="M3773 283 c-19 -7 -16 -40 4 -51 15 -9 14 -11 -5 -23 -27 -17 -29
-39 -3 -39 23 0 61 45 61 71 0 18 -25 50 -38 48 -4 0 -13 -3 -19 -6z"/>
</g>
</svg>
