<?xml version="1.0" standalone="no"?>
<!DOCTYPE svg PUBLIC "-//W3C//DTD SVG 20010904//EN"
 "http://www.w3.org/TR/2001/REC-SVG-20010904/DTD/svg10.dtd">
<svg version="1.0" xmlns="http://www.w3.org/2000/svg"
 width="644.000000pt" height="165.000000pt" viewBox="0 0 644.000000 165.000000"
 preserveAspectRatio="xMidYMid meet">
<metadata>
Created by potrace 1.16, written by Peter Selinger 2001-2019
</metadata>
<g transform="translate(0.000000,165.000000) scale(0.100000,-0.100000)"
fill="#000000" stroke="none">
<path d="M130 1085 l0 -425 1410 0 1410 0 0 425 0 425 -1410 0 -1410 0 0 -425z
m930 5 l0 -400 -450 0 -450 0 0 400 0 400 450 0 450 0 0 -400z m930 0 l0 -400
-450 0 -450 0 0 400 0 400 450 0 450 0 0 -400z m930 0 l0 -400 -450 0 -450 0
0 400 0 400 450 0 450 0 0 -400z"/>
<path d="M340 1158 c0 -29 4 -59 9 -67 17 -26 31 1 31 60 0 52 -2 59 -20 59
-17 0 -20 -7 -20 -52z"/>
<path d="M416 1202 c-10 -16 7 -122 19 -122 14 0 31 102 20 120 -7 12 -32 13
-39 2z"/>
<path d="M770 1158 c0 -29 4 -59 9 -67 17 -26 31 1 31 60 0 52 -2 59 -20 59
-17 0 -20 -7 -20 -52z"/>
<path d="M846 1202 c-10 -16 7 -122 19 -122 14 0 31 102 20 120 -7 12 -32 13
-39 2z"/>
<path d="M553 1130 c-29 -12 -31 -50 -3 -50 11 0 20 5 20 11 0 14 62 7 67 -7
2 -7 -13 -15 -34 -19 -52 -9 -83 -31 -83 -58 1 -51 34 -66 128 -60 52 4 72 10
72 19 0 8 -9 14 -20 14 -18 0 -20 7 -20 58 0 45 -4 63 -19 76 -23 21 -78 29
-108 16z m83 -136 c-7 -19 -65 -18 -73 1 -7 20 -1 26 39 34 34 7 46 -4 34 -35z"/>
<path d="M1270 1158 c0 -29 4 -59 9 -67 17 -26 31 1 31 60 0 52 -2 59 -20 59
-17 0 -20 -7 -20 -52z"/>
<path d="M1346 1202 c-10 -16 7 -122 19 -122 14 0 31 102 20 120 -7 12 -32 13
-39 2z"/>
<path d="M1435 1200 c-8 -14 3 -30 21 -30 11 0 14 -21 14 -111 0 -99 2 -110
18 -108 9 2 27 0 39 -5 37 -12 89 17 103 58 25 77 -31 146 -102 126 -28 -9
-28 -8 -28 36 0 42 -1 44 -29 44 -17 0 -33 -4 -36 -10z m155 -132 c13 -25 13
-31 0 -55 -20 -36 -53 -41 -74 -11 -21 29 -20 62 0 83 23 23 56 15 74 -17z"/>
<path d="M1700 1158 c0 -29 4 -59 9 -67 17 -26 31 1 31 60 0 52 -2 59 -20 59
-17 0 -20 -7 -20 -52z"/>
<path d="M1776 1202 c-10 -16 7 -122 19 -122 14 0 31 102 20 120 -7 12 -32 13
-39 2z"/>
<path d="M2200 1158 c0 -29 4 -59 9 -67 17 -26 31 1 31 60 0 52 -2 59 -20 59
-17 0 -20 -7 -20 -52z"/>
<path d="M2276 1202 c-10 -16 7 -122 19 -122 14 0 31 102 20 120 -7 12 -32 13
-39 2z"/>
<path d="M2630 1158 c0 -29 4 -59 9 -67 17 -26 31 1 31 60 0 52 -2 59 -20 59
-17 0 -20 -7 -20 -52z"/>
<path d="M2706 1202 c-10 -16 7 -122 19 -122 14 0 31 102 20 120 -7 12 -32 13
-39 2z"/>
<path d="M2453 1133 c-60 -12 -84 -108 -39 -160 19 -22 33 -28 64 -28 42 0 82
26 82 52 0 18 -36 17 -44 -2 -7 -19 -46 -19 -71 -1 -25 18 -25 74 0 92 22 16
65 19 65 4 0 -5 9 -10 20 -10 26 0 27 36 1 50 -20 10 -38 11 -78 3z"/>
<path d="M4420 1085 l0 -425 940 0 940 0 0 425 0 425 -940 0 -940 0 0 -425z
m930 5 l0 -400 -455 0 -455 0 0 400 0 400 455 0 455 0 0 -400z m930 0 l0 -400
-455 0 -455 0 0 400 0 400 455 0 455 0 0 -400z"/>
<path d="M4620 1158 c0 -29 4 -59 9 -67 17 -26 31 1 31 60 0 52 -2 59 -20 59
-17 0 -20 -7 -20 -52z"/>
<path d="M4696 1202 c-10 -16 7 -122 19 -122 14 0 31 102 20 120 -7 12 -32 13
-39 2z"/>
<path d="M4795 1200 c-8 -14 3 -30 21 -30 11 0 14 -21 14 -111 0 -99 2 -110
18 -108 9 2 27 0 39 -5 37 -12 89 17 103 58 25 77 -31 146 -102 126 -28 -9
-28 -8 -28 36 0 42 -1 44 -29 44 -17 0 -33 -4 -36 -10z m155 -132 c13 -25 13
-31 0 -55 -20 -36 -53 -41 -74 -11 -21 29 -20 62 0 83 23 23 56 15 74 -17z"/>
<path d="M5050 1158 c0 -29 4 -59 9 -67 17 -26 31 1 31 60 0 52 -2 59 -20 59
-17 0 -20 -7 -20 -52z"/>
<path d="M5126 1202 c-10 -16 7 -122 19 -122 14 0 31 102 20 120 -7 12 -32 13
-39 2z"/>
<path d="M5550 1158 c0 -29 4 -59 9 -67 17 -26 31 1 31 60 0 52 -2 59 -20 59
-17 0 -20 -7 -20 -52z"/>
<path d="M5626 1202 c-10 -16 7 -122 19 -122 14 0 31 102 20 120 -7 12 -32 13
-39 2z"/>
<path d="M5980 1158 c0 -29 4 -59 9 -67 17 -26 31 1 31 60 0 52 -2 59 -20 59
-17 0 -20 -7 -20 -52z"/>
<path d="M6056 1202 c-10 -16 7 -122 19 -122 14 0 31 102 20 120 -7 12 -32 13
-39 2z"/>
<path d="M5813 1133 c-60 -12 -84 -108 -39 -160 19 -22 33 -28 64 -28 42 0 82
26 82 52 0 18 -36 17 -44 -2 -3 -8 -16 -15 -29 -15 -37 0 -60 23 -60 60 0 20
7 38 18 46 22 16 65 19 65 4 0 -5 9 -10 20 -10 26 0 27 36 1 50 -20 10 -38 11
-78 3z"/>
<path d="M4190 1152 c0 -4 7 -18 16 -30 l15 -22 -565 0 c-496 0 -566 -2 -566
-15 0 -13 70 -15 566 -15 l565 0 -15 -22 c-18 -25 -20 -38 -7 -38 8 0 81 68
81 75 0 2 -16 19 -36 39 -35 35 -54 45 -54 28z"/>
<path d="M4133 488 c-39 -41 -53 -76 -53 -136 0 -54 30 -114 72 -145 44 -32
53 -10 14 33 -67 74 -67 156 -1 229 33 36 36 51 10 51 -6 0 -25 -15 -42 -32z"/>
<path d="M4480 512 c0 -5 12 -19 26 -33 37 -34 54 -72 54 -118 0 -54 -14 -88
-52 -123 -23 -22 -28 -32 -20 -40 18 -18 62 19 90 72 37 74 24 161 -35 223
-25 25 -63 37 -63 19z"/>
<path d="M4294 475 c-33 -22 -47 -68 -42 -136 4 -54 8 -66 36 -90 37 -33 58
-36 91 -13 44 31 65 126 41 188 -22 60 -81 84 -126 51z m62 -23 c50 -33 43
-180 -9 -190 -26 -5 -45 15 -57 59 -20 74 23 160 66 131z"/>
<path d="M2840 410 c-14 -4 -49 -5 -77 -2 -44 4 -53 2 -53 -12 0 -10 8 -16 25
-16 24 0 25 -3 25 -60 0 -57 -1 -60 -25 -60 -16 0 -25 -6 -25 -15 0 -12 15
-15 75 -15 60 0 75 3 75 15 0 10 -10 15 -30 15 -27 0 -30 3 -30 34 0 45 8 64
31 77 13 6 25 6 38 0 14 -8 22 -7 31 4 22 27 -13 47 -60 35z"/>
<path d="M2988 405 c-73 -41 -62 -149 18 -175 49 -16 114 10 114 47 0 18 -36
17 -44 -2 -12 -31 -96 -6 -96 28 0 4 32 7 71 7 l72 0 -7 32 c-12 63 -75 93
-128 63z m82 -45 c10 -19 8 -20 -40 -20 -27 0 -50 2 -50 4 0 3 7 12 16 20 22
22 61 20 74 -4z"/>
<path d="M3185 412 c-46 -4 -67 -18 -42 -28 23 -9 25 -119 2 -128 -8 -3 -15
-10 -15 -16 0 -6 43 -10 115 -10 96 0 115 3 115 15 0 8 -7 15 -15 15 -12 0
-15 14 -15 70 0 75 -14 95 -55 80 -11 -4 -27 -5 -35 -1 -8 3 -33 5 -55 3z m45
-90 c0 -63 -4 -74 -26 -65 -18 7 -19 94 -2 111 22 22 28 12 28 -46z m70 0 c0
-63 -4 -74 -26 -65 -27 10 -12 123 16 123 6 0 10 -26 10 -58z"/>
<path d="M3430 407 c-73 -37 -62 -162 16 -181 54 -14 114 35 114 94 0 33 -26
75 -55 88 -33 15 -44 15 -75 -1z m72 -44 c22 -20 23 -61 1 -85 -46 -51 -107
18 -73 83 13 23 47 25 72 2z"/>
<path d="M3858 405 c-73 -41 -62 -149 18 -175 49 -16 114 10 114 47 0 18 -36
17 -44 -2 -12 -31 -96 -6 -96 28 0 4 32 7 71 7 l72 0 -7 32 c-12 63 -75 93
-128 63z m82 -45 c10 -19 8 -20 -40 -20 -27 0 -50 2 -50 4 0 3 7 12 16 20 22
22 61 20 74 -4z"/>
<path d="M3580 395 c0 -8 6 -15 13 -15 8 0 23 -31 37 -75 35 -112 61 -111 100
8 13 41 27 67 36 67 8 0 14 7 14 15 0 11 -12 15 -45 15 -33 0 -45 -4 -45 -15
0 -8 6 -15 14 -15 12 0 12 -8 -2 -50 -9 -27 -18 -50 -21 -50 -4 0 -14 21 -23
47 -15 42 -15 49 -2 56 24 13 6 27 -37 27 -28 0 -39 -4 -39 -15z"/>
</g>
</svg>
