<?xml version="1.0" standalone="no"?>
<!DOCTYPE svg PUBLIC "-//W3C//DTD SVG 20010904//EN"
 "http://www.w3.org/TR/2001/REC-SVG-20010904/DTD/svg10.dtd">
<svg version="1.0" xmlns="http://www.w3.org/2000/svg"
 width="1661.000000pt" height="337.000000pt" viewBox="0 0 1661.000000 337.000000"
 preserveAspectRatio="xMidYMid meet">
<metadata>
Created by potrace 1.16, written by Peter Selinger 2001-2019
</metadata>
<g transform="translate(0.000000,337.000000) scale(0.100000,-0.100000)"
fill="#000000" stroke="none">
<path d="M770 2871 c0 -5 9 -11 20 -14 19 -5 20 -14 20 -126 0 -114 -1 -121
-20 -121 -11 0 -20 -4 -20 -10 0 -6 28 -10 65 -10 37 0 65 4 65 10 0 6 -9 10
-20 10 -17 0 -20 7 -20 43 0 31 6 49 20 62 11 10 22 16 24 14 1 -2 20 -29 40
-59 28 -43 33 -56 21 -58 -8 -2 -15 -8 -15 -13 0 -5 27 -9 60 -9 58 0 80 12
41 23 -11 2 -41 37 -67 76 l-47 72 39 40 c21 23 49 45 62 50 36 14 25 29 -23
29 -42 0 -58 -11 -35 -25 14 -9 9 -15 -60 -75 l-60 -52 0 62 c0 53 3 63 20 67
41 11 18 23 -45 23 -36 0 -65 -4 -65 -9z"/>
<path d="M2820 2871 c0 -5 9 -11 20 -14 19 -5 20 -14 20 -126 0 -114 -1 -121
-20 -121 -11 0 -20 -4 -20 -10 0 -6 28 -10 65 -10 37 0 65 4 65 10 0 6 -9 10
-20 10 -19 0 -20 7 -20 121 0 112 1 121 20 126 41 11 18 23 -45 23 -36 0 -65
-4 -65 -9z"/>
<path d="M3310 2872 c0 -4 9 -13 20 -20 14 -9 20 -23 20 -51 0 -39 0 -39 -29
-28 -64 24 -131 -41 -117 -116 11 -57 36 -71 123 -72 52 0 78 4 80 13 3 6 -2
12 -11 12 -14 0 -16 19 -16 135 l0 135 -35 0 c-19 0 -35 -3 -35 -8z m18 -124
c16 -16 16 -120 0 -136 -16 -16 -53 -15 -66 1 -16 19 -25 64 -18 91 12 48 57
71 84 44z"/>
<path d="M6272 2858 c-7 -7 -12 -18 -12 -25 0 -7 -9 -13 -20 -13 -11 0 -20 -7
-20 -15 0 -8 9 -15 20 -15 17 0 20 -7 20 -40 0 -33 -3 -40 -20 -40 -11 0 -20
-4 -20 -10 0 -5 25 -10 55 -10 30 0 55 5 55 10 0 6 -9 10 -20 10 -17 0 -20 7
-20 39 0 33 4 40 23 43 12 2 22 8 22 13 0 6 -10 11 -22 13 -13 2 -23 8 -23 13
0 5 11 7 25 3 21 -5 25 -3 25 15 0 16 -6 21 -28 21 -15 0 -33 -5 -40 -12z"/>
<path d="M6430 2850 c0 -15 5 -20 18 -18 9 2 17 10 17 18 0 8 -8 16 -17 18
-13 2 -18 -3 -18 -18z"/>
<path d="M12212 2858 c-7 -7 -12 -18 -12 -25 0 -7 -9 -13 -20 -13 -11 0 -20
-7 -20 -15 0 -8 9 -15 20 -15 17 0 20 -7 20 -40 0 -33 -3 -40 -20 -40 -11 0
-20 -4 -20 -10 0 -5 25 -10 55 -10 30 0 55 5 55 10 0 6 -9 10 -20 10 -17 0
-20 7 -20 39 0 33 4 40 23 43 12 2 22 8 22 13 0 6 -10 11 -22 13 -13 2 -23 8
-23 13 0 5 11 7 25 3 21 -5 25 -3 25 15 0 16 -6 21 -28 21 -15 0 -33 -5 -40
-12z"/>
<path d="M12360 2850 c0 -15 5 -20 18 -18 9 2 17 10 17 18 0 8 -8 16 -17 18
-13 2 -18 -3 -18 -18z"/>
<path d="M1574 2818 c-5 -19 -19 -37 -32 -43 -27 -12 -29 -25 -2 -25 18 0 20
-7 20 -68 0 -54 4 -72 18 -85 40 -36 82 -11 82 47 0 38 -18 32 -22 -6 -2 -21
-8 -33 -18 -33 -12 0 -16 16 -18 73 l-3 72 31 0 c16 0 30 5 30 10 0 6 -13 10
-30 10 -28 0 -30 2 -30 40 0 48 -14 52 -26 8z"/>
<path d="M4054 2836 c-8 -21 3 -36 27 -36 15 0 20 6 17 22 -4 27 -35 37 -44
14z"/>
<path d="M6870 2836 c0 -7 -9 -16 -21 -19 -23 -6 -17 -27 7 -27 10 0 14 -13
14 -45 0 -38 4 -47 23 -54 12 -5 29 -6 37 -3 17 5 40 31 40 44 0 15 -29 8 -38
-8 -14 -25 -32 -7 -32 32 0 31 2 34 30 34 20 0 30 5 30 15 0 10 -10 15 -30 15
-20 0 -30 5 -30 15 0 8 -7 15 -15 15 -8 0 -15 -6 -15 -14z"/>
<path d="M12800 2836 c0 -7 -9 -16 -21 -19 -23 -6 -17 -27 7 -27 10 0 14 -13
14 -45 0 -38 4 -47 23 -54 12 -5 29 -6 37 -3 17 5 40 31 40 44 0 15 -29 8 -38
-8 -14 -25 -32 -7 -32 32 0 31 2 34 30 34 20 0 30 5 30 15 0 10 -10 15 -30 15
-20 0 -30 5 -30 15 0 8 -7 15 -15 15 -8 0 -15 -6 -15 -14z"/>
<path d="M6390 2806 c0 -10 9 -16 25 -16 23 0 25 -4 25 -40 0 -36 -2 -40 -25
-40 -14 0 -25 -4 -25 -10 0 -6 27 -10 60 -10 33 0 60 4 60 10 0 6 -9 10 -19
10 -17 0 -20 8 -23 53 l-3 52 -37 3 c-29 2 -38 0 -38 -12z"/>
<path d="M6530 2805 c0 -8 7 -15 15 -15 11 0 15 -11 15 -40 0 -29 -4 -40 -15
-40 -8 0 -15 -4 -15 -10 0 -5 23 -10 50 -10 28 0 50 5 50 10 0 6 -9 10 -20 10
-14 0 -20 7 -20 21 0 37 19 60 48 57 19 -2 27 2 27 12 0 12 -15 15 -67 17 -54
2 -68 -1 -68 -12z"/>
<path d="M6702 2811 c-8 -4 -12 -19 -10 -32 2 -18 13 -26 41 -34 43 -12 53
-28 19 -33 -13 -2 -25 3 -28 12 -11 28 -36 19 -32 -11 3 -26 6 -28 45 -27 65
2 92 34 57 68 -8 9 -11 16 -5 16 6 0 11 11 11 25 0 23 -4 25 -42 25 -24 0 -49
-4 -56 -9z m68 -31 c0 -5 -9 -10 -19 -10 -11 0 -23 5 -26 10 -4 6 5 10 19 10
14 0 26 -4 26 -10z"/>
<path d="M12320 2806 c0 -10 9 -16 25 -16 23 0 25 -4 25 -40 0 -36 -2 -40 -25
-40 -14 0 -25 -4 -25 -10 0 -6 27 -10 60 -10 33 0 60 4 60 10 0 6 -9 10 -19
10 -17 0 -20 8 -23 53 l-3 52 -37 3 c-29 2 -38 0 -38 -12z"/>
<path d="M12470 2805 c0 -8 7 -15 15 -15 11 0 15 -11 15 -40 0 -29 -4 -40 -15
-40 -8 0 -15 -4 -15 -10 0 -5 23 -10 50 -10 28 0 50 5 50 10 0 6 -9 10 -20 10
-14 0 -20 7 -20 21 0 37 19 60 48 57 19 -2 27 2 27 12 0 12 -15 15 -67 17 -54
2 -68 -1 -68 -12z"/>
<path d="M12642 2811 c-8 -4 -12 -19 -10 -32 2 -18 13 -26 41 -34 43 -12 53
-28 19 -33 -13 -2 -25 3 -28 12 -11 28 -36 19 -32 -11 3 -26 6 -28 45 -27 65
2 92 34 57 68 -8 9 -11 16 -5 16 6 0 11 11 11 25 0 23 -4 25 -42 25 -24 0 -49
-4 -56 -9z m68 -31 c0 -5 -9 -10 -19 -10 -11 0 -23 5 -26 10 -4 6 5 10 19 10
14 0 26 -4 26 -10z"/>
<path d="M1108 2773 c-22 -5 -24 -23 -3 -23 12 0 15 -14 15 -70 0 -56 -3 -70
-15 -70 -8 0 -15 -4 -15 -10 0 -5 23 -10 50 -10 28 0 50 5 50 10 0 6 -7 10
-15 10 -12 0 -15 13 -15 58 0 47 4 63 21 78 35 31 53 9 57 -70 2 -54 0 -66
-13 -66 -8 0 -15 -4 -15 -10 0 -5 23 -10 50 -10 28 0 50 5 50 10 0 6 -9 10
-20 10 -18 0 -20 7 -20 75 0 71 -1 76 -26 87 -19 9 -33 9 -55 1 -16 -6 -29 -7
-29 -2 0 9 -22 10 -52 2z"/>
<path d="M1359 2751 c-57 -58 -28 -155 51 -167 50 -7 97 24 106 71 19 102 -86
166 -157 96z m100 -5 c18 -21 24 -77 12 -108 -15 -39 -58 -48 -83 -18 -22 27
-24 88 -2 118 17 25 56 29 73 8z"/>
<path d="M1719 2751 c-58 -58 -28 -155 53 -168 30 -4 41 -1 62 20 26 26 34 47
17 47 -5 0 -16 -11 -25 -25 -9 -14 -25 -25 -36 -25 -26 0 -60 34 -60 60 0 18
7 20 65 20 36 0 65 4 65 9 0 4 -5 22 -11 40 -21 58 -83 69 -130 22z m91 -10
c18 -34 11 -41 -35 -41 -49 0 -53 5 -29 38 19 27 50 29 64 3z"/>
<path d="M1898 2773 c-22 -5 -24 -23 -3 -23 12 0 15 -14 15 -70 0 -56 -3 -70
-15 -70 -8 0 -15 -4 -15 -10 0 -5 23 -10 50 -10 28 0 50 5 50 10 0 6 -7 10
-15 10 -12 0 -15 13 -15 58 0 47 4 63 21 78 35 31 53 9 57 -70 2 -54 0 -66
-13 -66 -8 0 -15 -4 -15 -10 0 -5 23 -10 50 -10 28 0 50 5 50 10 0 6 -9 10
-20 10 -18 0 -20 7 -20 75 0 71 -1 76 -26 87 -19 9 -33 9 -55 1 -16 -6 -29 -7
-29 -2 0 9 -22 10 -52 2z"/>
<path d="M2288 2769 c-26 -15 -24 -59 3 -59 17 0 20 5 17 25 -4 20 -1 25 16
25 26 0 46 -18 46 -41 0 -11 -12 -18 -39 -23 -26 -4 -47 -15 -60 -32 -26 -33
-26 -39 -1 -64 24 -24 72 -26 94 -4 9 8 16 11 16 6 0 -16 30 -23 51 -12 20 11
27 60 9 60 -5 0 -10 -9 -10 -20 0 -11 -4 -20 -10 -20 -6 0 -10 28 -10 64 0 58
-3 67 -26 85 -29 23 -68 27 -96 10z m80 -120 c-4 -38 -30 -59 -55 -43 -9 6
-18 15 -21 22 -5 16 35 52 59 52 17 0 20 -5 17 -31z"/>
<path d="M2478 2773 c-22 -5 -24 -23 -3 -23 12 0 15 -14 15 -70 0 -56 -3 -70
-15 -70 -8 0 -15 -4 -15 -10 0 -5 23 -10 50 -10 28 0 50 5 50 10 0 6 -7 10
-15 10 -12 0 -15 13 -15 58 0 47 4 63 21 78 35 31 53 9 57 -70 2 -54 0 -66
-13 -66 -8 0 -15 -4 -15 -10 0 -5 23 -10 50 -10 28 0 50 5 50 10 0 6 -9 10
-20 10 -18 0 -20 7 -20 75 0 71 -1 76 -26 87 -19 9 -33 9 -55 1 -16 -6 -29 -7
-29 -2 0 9 -22 10 -52 2z"/>
<path d="M2988 2773 c-22 -5 -24 -23 -3 -23 12 0 15 -14 15 -70 0 -56 -3 -70
-15 -70 -8 0 -15 -4 -15 -10 0 -5 23 -10 50 -10 28 0 50 5 50 10 0 6 -7 10
-15 10 -12 0 -15 13 -15 58 0 47 4 63 21 78 35 31 53 9 57 -70 2 -54 0 -66
-13 -66 -8 0 -15 -4 -15 -10 0 -5 23 -10 50 -10 28 0 50 5 50 10 0 6 -9 10
-20 10 -18 0 -20 7 -20 75 0 71 -1 76 -26 87 -19 9 -33 9 -55 1 -16 -6 -29 -7
-29 -2 0 9 -22 10 -52 2z"/>
<path d="M3469 2751 c-58 -58 -28 -155 53 -168 30 -4 41 -1 62 20 26 26 34 47
17 47 -5 0 -16 -11 -25 -25 -9 -14 -25 -25 -36 -25 -26 0 -60 34 -60 60 0 18
7 20 65 20 36 0 65 4 65 9 0 4 -5 22 -11 40 -21 58 -83 69 -130 22z m91 -10
c18 -34 11 -41 -35 -41 -49 0 -53 5 -29 38 19 27 50 29 64 3z"/>
<path d="M3610 2760 c0 -5 8 -10 18 -10 11 0 31 -17 45 -37 l26 -36 -20 -29
c-11 -15 -31 -31 -45 -34 -38 -10 -28 -24 17 -24 31 0 40 3 36 14 -3 7 2 24
10 36 l16 23 17 -24 c10 -12 16 -29 13 -36 -4 -10 7 -13 41 -13 25 0 46 5 46
10 0 6 -8 10 -19 10 -10 0 -31 18 -46 40 l-28 41 28 29 c16 17 35 30 42 30 7
0 13 5 13 10 0 6 -18 10 -41 10 -35 0 -40 -3 -34 -19 3 -10 -1 -23 -8 -30 -11
-8 -18 -6 -32 9 -10 11 -13 20 -7 20 7 0 12 5 12 10 0 6 -22 10 -50 10 -27 0
-50 -4 -50 -10z"/>
<path d="M4000 2755 c0 -10 11 -15 35 -15 l35 0 0 -60 0 -60 -35 0 c-24 0 -35
-5 -35 -15 0 -12 16 -15 80 -15 64 0 80 3 80 15 0 10 -10 15 -30 15 l-30 0 0
75 0 75 -50 0 c-38 0 -50 -4 -50 -15z"/>
<path d="M6170 1995 l0 -425 425 0 425 0 0 200 0 200 240 0 c132 0 240 -2 240
-5 0 -3 -7 -17 -16 -30 -9 -13 -13 -29 -9 -35 10 -16 33 -12 39 8 4 11 18 29
31 42 l25 23 0 -201 0 -202 840 0 840 0 0 200 0 200 186 0 186 0 -16 -25 c-18
-27 -21 -55 -6 -55 8 0 110 96 110 104 0 1 -23 26 -51 55 -38 40 -54 50 -62
42 -9 -9 -8 -19 5 -41 l17 -30 -184 0 -185 0 0 200 0 200 -840 0 -840 0 0
-202 0 -201 -25 23 c-13 13 -27 31 -31 42 -6 19 -29 24 -39 8 -3 -5 1 -23 10
-40 l16 -30 -241 0 -240 0 0 200 0 200 -425 0 -425 0 0 -425z m830 210 l0
-185 -205 0 -205 0 0 -25 0 -25 205 0 205 0 0 -190 0 -190 -400 0 -400 0 0
400 0 400 400 0 400 0 0 -185z m1400 -215 l0 -400 -400 0 -400 0 0 400 0 400
400 0 400 0 0 -400z m830 215 l0 -185 -205 0 -205 0 0 -25 0 -25 205 0 205 0
0 -190 0 -190 -400 0 -400 0 0 400 0 400 400 0 400 0 0 -185z"/>
<path d="M7943 2040 c-29 -12 -31 -50 -3 -50 11 0 20 5 20 11 0 14 62 7 67 -7
2 -7 -13 -15 -34 -19 -52 -9 -83 -31 -83 -58 1 -51 34 -66 128 -60 52 4 72 10
72 19 0 8 -9 14 -20 14 -18 0 -20 7 -20 58 0 45 -4 63 -19 76 -23 21 -78 29
-108 16z m83 -136 c-7 -19 -65 -18 -73 1 -7 20 -1 26 39 34 34 7 46 -4 34 -35z"/>
<path d="M12110 1995 l0 -425 199 0 198 0 7 -38 c11 -75 58 -218 97 -301 145
-309 426 -557 739 -652 41 -13 77 -24 79 -26 2 -1 -6 -14 -17 -28 -18 -22 -21
-55 -5 -55 3 0 23 16 46 35 22 19 44 35 49 35 4 0 8 -92 8 -205 l0 -205 840 0
840 0 0 430 0 430 -277 0 -278 0 -22 33 c-12 17 -53 78 -91 135 -73 106 -127
220 -141 297 -8 43 -8 44 13 30 24 -18 56 -20 56 -4 0 6 -19 29 -42 50 l-43
38 413 1 412 0 0 200 0 200 187 0 c180 0 186 -1 170 -18 -21 -23 -22 -62 -2
-62 8 0 15 4 15 9 0 4 18 26 40 47 22 22 40 44 40 50 0 5 -14 20 -31 33 -16
12 -35 33 -41 47 -6 13 -17 24 -25 24 -18 0 -16 -40 4 -62 16 -17 10 -18 -170
-18 l-187 0 0 200 0 200 -840 0 -840 0 0 -425 0 -425 405 0 c237 0 405 -4 405
-9 0 -10 -53 -57 -71 -63 -18 -6 -1 -28 20 -28 10 0 24 7 31 15 20 25 28 17
36 -32 14 -101 79 -232 193 -392 l51 -71 -535 0 -535 0 0 -202 0 -203 -20 25
c-11 14 -23 35 -26 47 -3 13 -12 23 -20 23 -17 0 -19 -51 -2 -68 19 -19 -4
-15 -90 14 -183 63 -317 147 -458 288 -177 178 -282 372 -338 629 l-6 27 205
0 205 0 0 425 0 425 -425 0 -425 0 0 -425z m820 -5 l0 -400 -189 0 c-183 0
-190 1 -196 21 -9 28 -9 228 0 317 7 68 6 72 -14 72 -29 0 -36 -46 -35 -242
l0 -168 -183 0 -183 0 0 400 0 400 400 0 400 0 0 -400z m1400 0 l0 -400 -400
0 -400 0 0 400 0 400 400 0 400 0 0 -400z m830 215 l0 -185 -200 0 -200 0 0
-25 0 -25 200 0 200 0 0 -190 0 -190 -400 0 -400 0 0 400 0 400 400 0 400 0 0
-185z m-830 -1645 l0 -400 -400 0 -400 0 0 400 0 400 400 0 400 0 0 -400z
m311 330 c45 -76 84 -192 94 -272 6 -49 10 -58 28 -58 19 0 19 4 13 73 -7 80
-45 196 -88 270 -15 26 -28 50 -28 52 0 3 113 5 250 5 l250 0 0 -400 0 -400
-400 0 -400 0 0 400 0 401 122 -3 122 -3 37 -65z"/>
<path d="M13883 2040 c-29 -12 -31 -50 -3 -50 11 0 20 5 20 11 0 14 62 7 67
-7 2 -7 -13 -15 -34 -19 -52 -9 -83 -31 -83 -58 1 -51 34 -66 128 -60 52 4 72
10 72 19 0 8 -9 14 -20 14 -18 0 -20 7 -20 58 0 45 -4 63 -19 76 -23 21 -78
29 -108 16z m83 -136 c-7 -19 -65 -18 -73 1 -7 20 -1 26 39 34 34 7 46 -4 34
-35z"/>
<path d="M13840 595 c0 -8 8 -15 18 -15 10 0 28 -13 39 -29 l22 -28 -22 -31
c-12 -18 -30 -32 -39 -32 -10 0 -18 -7 -18 -15 0 -11 12 -15 45 -15 43 0 45 1
39 24 -3 14 -1 27 6 31 16 10 29 -12 23 -36 -5 -17 0 -19 41 -19 34 0 46 4 46
15 0 8 -8 15 -18 15 -10 0 -28 14 -41 31 -21 29 -22 31 -6 56 9 14 26 28 36
30 10 3 19 12 19 19 0 10 -13 14 -45 14 -45 0 -54 -7 -35 -26 8 -8 6 -15 -5
-24 -16 -13 -19 -6 -16 33 2 14 -6 17 -43 17 -34 0 -46 -4 -46 -15z"/>
<path d="M2444 2254 c-67 -105 -186 -160 -380 -175 -137 -10 -239 -39 -307
-86 -46 -32 -117 -110 -117 -129 0 -25 25 -14 47 21 31 47 116 108 189 133 40
15 107 26 194 33 97 7 151 17 198 35 72 27 151 81 182 124 l21 29 34 -38 c86
-95 188 -136 373 -150 190 -15 306 -64 377 -161 28 -36 55 -52 55 -32 0 20
-62 91 -109 127 -72 52 -174 82 -324 94 -189 16 -305 70 -374 175 l-30 46 -29
-46z"/>
<path d="M342 2138 c-7 -7 -12 -18 -12 -25 0 -7 -9 -13 -20 -13 -11 0 -20 -7
-20 -15 0 -8 9 -15 20 -15 17 0 20 -7 20 -40 0 -33 -3 -40 -20 -40 -11 0 -20
-4 -20 -10 0 -5 25 -10 55 -10 30 0 55 5 55 10 0 6 -9 10 -20 10 -17 0 -20 7
-20 39 0 33 4 40 23 43 12 2 22 8 22 13 0 6 -10 11 -22 13 -13 2 -23 8 -23 13
0 5 11 7 25 3 21 -5 25 -3 25 15 0 16 -6 21 -28 21 -15 0 -33 -5 -40 -12z"/>
<path d="M490 2130 c0 -15 5 -20 18 -18 9 2 17 10 17 18 0 8 -8 16 -17 18 -13
2 -18 -3 -18 -18z"/>
<path d="M930 2116 c0 -7 -9 -16 -21 -19 -23 -6 -17 -27 7 -27 10 0 14 -13 14
-45 0 -38 4 -47 23 -54 12 -5 29 -6 37 -3 17 5 40 31 40 44 0 15 -29 8 -38 -8
-14 -25 -32 -7 -32 32 0 31 2 34 30 34 20 0 30 5 30 15 0 10 -10 15 -30 15
-20 0 -30 5 -30 15 0 8 -7 15 -15 15 -8 0 -15 -6 -15 -14z"/>
<path d="M450 2086 c0 -10 9 -16 25 -16 23 0 25 -4 25 -40 0 -36 -2 -40 -25
-40 -14 0 -25 -4 -25 -10 0 -6 27 -10 60 -10 33 0 60 4 60 10 0 6 -9 10 -19
10 -17 0 -20 8 -23 53 l-3 52 -37 3 c-29 2 -38 0 -38 -12z"/>
<path d="M600 2085 c0 -8 7 -15 15 -15 11 0 15 -11 15 -40 0 -29 -4 -40 -15
-40 -8 0 -15 -4 -15 -10 0 -5 23 -10 50 -10 28 0 50 5 50 10 0 6 -9 10 -20 10
-14 0 -20 7 -20 21 0 37 19 60 48 57 19 -2 27 2 27 12 0 12 -15 15 -67 17 -54
2 -68 -1 -68 -12z"/>
<path d="M772 2091 c-8 -4 -12 -19 -10 -32 2 -18 13 -26 41 -34 43 -12 53 -28
19 -33 -13 -2 -25 3 -28 12 -11 28 -36 19 -32 -11 3 -26 6 -28 45 -27 65 2 92
34 57 68 -8 9 -11 16 -5 16 6 0 11 11 11 25 0 23 -4 25 -42 25 -24 0 -49 -4
-56 -9z m68 -31 c0 -5 -9 -10 -19 -10 -11 0 -23 5 -26 10 -4 6 5 10 19 10 14
0 26 -4 26 -10z"/>
<path d="M9874 1896 c-8 -21 3 -36 27 -36 15 0 20 6 17 22 -4 27 -35 37 -44
14z"/>
<path d="M10064 1896 c-8 -21 3 -36 27 -36 15 0 20 6 17 22 -4 27 -35 37 -44
14z"/>
<path d="M10244 1896 c-8 -21 3 -36 27 -36 15 0 20 6 17 22 -4 27 -35 37 -44
14z"/>
<path d="M15814 1896 c-8 -21 3 -36 27 -36 15 0 20 6 17 22 -4 27 -35 37 -44
14z"/>
<path d="M15994 1896 c-8 -21 3 -36 27 -36 15 0 20 6 17 22 -4 27 -35 37 -44
14z"/>
<path d="M16184 1896 c-8 -21 3 -36 27 -36 15 0 20 6 17 22 -4 27 -35 37 -44
14z"/>
<path d="M240 1275 l0 -425 425 0 425 0 0 205 0 205 247 0 246 0 -21 -23 c-25
-27 -29 -67 -7 -67 8 0 21 13 30 30 8 16 24 34 35 40 20 11 20 7 20 -190 l0
-200 840 0 840 0 0 205 0 205 186 0 186 0 -16 -25 c-19 -30 -21 -65 -3 -65 8
0 19 11 25 24 6 14 25 35 41 47 17 13 31 28 31 33 0 6 -18 28 -40 50 -22 21
-40 43 -40 47 0 5 -7 9 -15 9 -20 0 -19 -39 2 -62 16 -17 10 -18 -170 -18
l-187 0 0 200 0 200 -840 0 -840 0 0 -202 -1 -203 -38 43 c-21 23 -44 42 -50
42 -16 0 -14 -32 5 -58 l15 -22 -240 0 -241 0 0 200 0 200 -425 0 -425 0 0
-425z m820 215 l0 -190 -200 0 c-193 0 -200 -1 -200 -20 0 -19 7 -20 200 -20
l200 0 0 -190 0 -190 -400 0 -400 0 0 400 0 400 400 0 400 0 0 -190z m1400
-210 l0 -400 -400 0 -400 0 0 400 0 400 400 0 400 0 0 -400z m830 210 l0 -190
-200 0 c-193 0 -200 -1 -200 -20 0 -19 7 -20 200 -20 l200 0 0 -190 0 -190
-400 0 -400 0 0 400 0 400 400 0 400 0 0 -190z"/>
<path d="M2013 1320 c-29 -12 -31 -50 -3 -50 11 0 20 5 20 11 0 14 62 7 67 -7
2 -7 -13 -15 -34 -19 -52 -9 -83 -31 -83 -58 1 -51 34 -66 128 -60 52 4 72 10
72 19 0 8 -9 14 -20 14 -18 0 -20 7 -20 58 0 45 -4 63 -19 76 -23 21 -78 29
-108 16z m83 -136 c-7 -19 -65 -18 -73 1 -7 20 -1 26 39 34 34 7 46 -4 34 -35z"/>
<path d="M3944 1176 c-8 -21 3 -36 27 -36 15 0 20 6 17 22 -4 27 -35 37 -44
14z"/>
<path d="M4124 1176 c-8 -21 3 -36 27 -36 15 0 20 6 17 22 -4 27 -35 37 -44
14z"/>
<path d="M4314 1176 c-8 -21 3 -36 27 -36 15 0 20 6 17 22 -4 27 -35 37 -44
14z"/>
<path d="M7570 560 l0 -430 840 0 840 0 0 430 0 430 -840 0 -840 0 0 -430z
m830 0 l0 -400 -400 0 -400 0 0 400 0 400 400 0 400 0 0 -400z m800 397 c0 -1
-173 -175 -385 -387 l-385 -385 0 388 0 387 385 0 c212 0 385 -1 385 -3z m30
-407 l0 -390 -392 0 -393 0 390 390 c214 215 391 390 392 390 2 0 3 -175 3
-390z"/>
<path d="M7900 595 c0 -8 8 -15 18 -15 10 0 28 -13 39 -29 l22 -28 -22 -31
c-12 -18 -30 -32 -39 -32 -10 0 -18 -7 -18 -15 0 -11 12 -15 45 -15 43 0 45 1
39 24 -3 14 -1 27 6 31 16 10 29 -12 23 -36 -5 -17 0 -19 41 -19 34 0 46 4 46
15 0 8 -8 15 -18 15 -10 0 -28 14 -41 31 -21 29 -22 31 -6 56 9 14 26 28 36
30 10 3 19 12 19 19 0 10 -13 14 -45 14 -45 0 -54 -7 -35 -26 8 -8 6 -15 -5
-24 -16 -13 -19 -6 -16 33 2 14 -6 17 -43 17 -34 0 -46 -4 -46 -15z"/>
</g>
</svg>
