<?xml version="1.0" standalone="no"?>
<!DOCTYPE svg PUBLIC "-//W3C//DTD SVG 20010904//EN"
 "http://www.w3.org/TR/2001/REC-SVG-20010904/DTD/svg10.dtd">
<svg version="1.0" xmlns="http://www.w3.org/2000/svg"
 width="688.000000pt" height="988.000000pt" viewBox="0 0 688.000000 988.000000"
 preserveAspectRatio="xMidYMid meet">
<metadata>
Created by potrace 1.16, written by Peter Selinger 2001-2019
</metadata>
<g transform="translate(0.000000,988.000000) scale(0.100000,-0.100000)"
fill="#000000" stroke="none">
<path d="M2920 9661 c0 -5 9 -11 20 -14 19 -5 20 -14 20 -126 0 -114 -1 -121
-20 -121 -11 0 -20 -4 -20 -10 0 -6 28 -10 65 -10 37 0 65 4 65 10 0 6 -9 10
-20 10 -17 0 -20 7 -20 43 0 31 6 49 20 62 11 10 22 16 24 14 1 -2 20 -29 40
-59 28 -43 33 -56 21 -58 -8 -2 -15 -8 -15 -13 0 -5 27 -9 60 -9 58 0 80 12
41 23 -11 2 -41 37 -67 76 l-47 72 39 40 c21 23 49 45 62 50 36 14 25 29 -23
29 -42 0 -58 -11 -35 -25 14 -9 9 -15 -60 -75 l-60 -52 0 62 c0 53 3 63 20 67
41 11 18 23 -45 23 -36 0 -65 -4 -65 -9z"/>
<path d="M4970 9661 c0 -5 9 -11 20 -14 19 -5 20 -14 20 -126 0 -114 -1 -121
-20 -121 -11 0 -20 -4 -20 -10 0 -6 28 -10 65 -10 37 0 65 4 65 10 0 6 -9 10
-20 10 -19 0 -20 7 -20 121 0 112 1 121 20 126 41 11 18 23 -45 23 -36 0 -65
-4 -65 -9z"/>
<path d="M5460 9662 c0 -4 9 -13 20 -20 14 -9 20 -23 20 -51 0 -39 0 -39 -29
-28 -64 24 -131 -41 -117 -116 11 -57 36 -71 123 -72 52 0 78 4 80 13 3 6 -2
12 -11 12 -14 0 -16 19 -16 135 l0 135 -35 0 c-19 0 -35 -3 -35 -8z m18 -124
c7 -7 12 -37 12 -68 0 -60 -11 -80 -46 -80 -26 0 -40 15 -49 53 -18 69 41 137
83 95z"/>
<path d="M3724 9608 c-5 -19 -19 -37 -32 -43 -27 -12 -29 -25 -2 -25 18 0 20
-7 20 -68 0 -54 4 -72 18 -85 40 -36 82 -11 82 47 0 38 -18 32 -22 -6 -2 -21
-8 -33 -18 -33 -12 0 -16 16 -18 73 l-3 72 31 0 c16 0 30 5 30 10 0 6 -13 10
-30 10 -28 0 -30 2 -30 40 0 48 -14 52 -26 8z"/>
<path d="M6194 9626 c-8 -21 3 -36 27 -36 15 0 20 6 17 22 -4 27 -35 37 -44
14z"/>
<path d="M3258 9563 c-22 -5 -24 -23 -3 -23 12 0 15 -14 15 -70 0 -56 -3 -70
-15 -70 -8 0 -15 -4 -15 -10 0 -5 23 -10 50 -10 28 0 50 5 50 10 0 6 -7 10
-15 10 -12 0 -15 13 -15 58 0 47 4 63 21 78 35 31 53 9 57 -70 2 -54 0 -66
-13 -66 -8 0 -15 -4 -15 -10 0 -5 23 -10 50 -10 28 0 50 5 50 10 0 6 -9 10
-20 10 -18 0 -20 7 -20 75 0 71 -1 76 -26 87 -19 9 -33 9 -55 1 -16 -6 -29 -7
-29 -2 0 9 -22 10 -52 2z"/>
<path d="M3499 9541 c-57 -58 -28 -155 51 -167 50 -7 97 24 106 71 19 102 -86
166 -157 96z m100 -5 c18 -21 24 -77 12 -108 -15 -39 -58 -48 -83 -18 -22 27
-24 88 -2 118 17 25 56 29 73 8z"/>
<path d="M3869 9541 c-58 -58 -28 -155 53 -168 30 -4 41 -1 62 20 26 26 34 47
17 47 -5 0 -16 -11 -25 -25 -9 -14 -25 -25 -36 -25 -26 0 -60 34 -60 60 0 18
7 20 65 20 36 0 65 4 65 9 0 4 -5 22 -11 40 -21 58 -83 69 -130 22z m91 -10
c18 -34 11 -41 -35 -41 -49 0 -53 5 -29 38 19 27 50 29 64 3z"/>
<path d="M4038 9563 c-22 -5 -24 -23 -3 -23 12 0 15 -14 15 -70 0 -56 -3 -70
-15 -70 -8 0 -15 -4 -15 -10 0 -5 23 -10 50 -10 28 0 50 5 50 10 0 6 -7 10
-15 10 -12 0 -15 13 -15 58 0 47 4 63 21 78 35 31 53 9 57 -70 2 -54 0 -66
-13 -66 -8 0 -15 -4 -15 -10 0 -5 23 -10 50 -10 28 0 50 5 50 10 0 6 -9 10
-20 10 -18 0 -20 7 -20 75 0 71 -1 76 -26 87 -19 9 -33 9 -55 1 -16 -6 -29 -7
-29 -2 0 9 -22 10 -52 2z"/>
<path d="M4428 9559 c-26 -15 -24 -59 3 -59 17 0 20 5 17 25 -4 20 -1 25 16
25 26 0 46 -18 46 -41 0 -11 -12 -18 -39 -23 -26 -4 -47 -15 -60 -32 -26 -33
-26 -39 -1 -64 24 -24 72 -26 94 -4 9 8 16 11 16 6 0 -16 30 -23 51 -12 20 11
27 60 9 60 -5 0 -10 -9 -10 -20 0 -11 -4 -20 -10 -20 -6 0 -10 28 -10 64 0 58
-3 67 -26 85 -29 23 -68 27 -96 10z m80 -120 c-4 -38 -30 -59 -55 -43 -9 6
-18 15 -21 22 -5 16 35 52 59 52 17 0 20 -5 17 -31z"/>
<path d="M4618 9563 c-22 -5 -24 -23 -3 -23 12 0 15 -14 15 -70 0 -56 -3 -70
-15 -70 -8 0 -15 -4 -15 -10 0 -5 23 -10 50 -10 28 0 50 5 50 10 0 6 -7 10
-15 10 -12 0 -15 13 -15 58 0 47 4 63 21 78 35 31 53 9 57 -70 2 -54 0 -66
-13 -66 -8 0 -15 -4 -15 -10 0 -5 23 -10 50 -10 28 0 50 5 50 10 0 6 -9 10
-20 10 -18 0 -20 7 -20 75 0 71 -1 76 -26 87 -19 9 -33 9 -55 1 -16 -6 -29 -7
-29 -2 0 9 -22 10 -52 2z"/>
<path d="M5138 9563 c-22 -5 -24 -23 -3 -23 12 0 15 -14 15 -70 0 -56 -3 -70
-15 -70 -8 0 -15 -4 -15 -10 0 -5 23 -10 50 -10 28 0 50 5 50 10 0 6 -7 10
-15 10 -12 0 -15 13 -15 58 0 47 4 63 21 78 35 31 53 9 57 -70 2 -54 0 -66
-13 -66 -8 0 -15 -4 -15 -10 0 -5 23 -10 50 -10 28 0 50 5 50 10 0 6 -9 10
-20 10 -18 0 -20 7 -20 75 0 71 -1 76 -26 87 -19 9 -33 9 -55 1 -16 -6 -29 -7
-29 -2 0 9 -22 10 -52 2z"/>
<path d="M5609 9541 c-58 -58 -28 -155 53 -168 30 -4 41 -1 62 20 26 26 34 47
17 47 -5 0 -16 -11 -25 -25 -9 -14 -25 -25 -36 -25 -26 0 -60 34 -60 60 0 18
7 20 65 20 36 0 65 4 65 9 0 4 -5 22 -11 40 -21 58 -83 69 -130 22z m91 -10
c18 -34 11 -41 -35 -41 -49 0 -53 5 -29 38 19 27 50 29 64 3z"/>
<path d="M5750 9550 c0 -5 8 -10 18 -10 11 0 31 -17 45 -37 l26 -36 -20 -29
c-11 -15 -31 -31 -45 -34 -38 -10 -28 -24 17 -24 31 0 40 3 36 14 -3 7 2 24
10 36 l16 23 17 -24 c10 -12 16 -29 13 -36 -4 -10 7 -13 41 -13 25 0 46 5 46
10 0 6 -8 10 -19 10 -10 0 -31 18 -46 40 l-28 41 28 29 c16 17 35 30 42 30 7
0 13 5 13 10 0 6 -18 10 -41 10 -35 0 -40 -3 -34 -19 3 -10 -1 -23 -8 -30 -11
-8 -18 -6 -32 9 -10 11 -13 20 -7 20 7 0 12 5 12 10 0 6 -22 10 -50 10 -27 0
-50 -4 -50 -10z"/>
<path d="M6140 9545 c0 -10 11 -15 35 -15 l35 0 0 -60 0 -60 -35 0 c-24 0 -35
-5 -35 -15 0 -12 16 -15 80 -15 64 0 80 3 80 15 0 10 -10 15 -30 15 l-30 0 0
75 0 75 -50 0 c-38 0 -50 -4 -50 -15z"/>
<path d="M4596 9053 c-36 -69 -123 -132 -224 -163 -35 -11 -119 -24 -185 -29
-184 -14 -294 -62 -374 -163 -36 -45 -39 -54 -21 -60 7 -3 25 12 39 32 76 105
187 153 394 170 177 14 273 52 357 143 l37 39 26 -30 c78 -93 187 -138 367
-153 201 -16 324 -69 393 -169 25 -36 45 -45 45 -18 0 19 -60 87 -108 121 -75
53 -150 76 -289 88 -208 16 -348 78 -405 179 -13 22 -26 40 -30 40 -4 0 -14
-12 -22 -27z"/>
<path d="M1660 8290 c0 -114 -4 -200 -9 -200 -11 0 -61 58 -61 71 0 5 -7 9
-15 9 -20 0 -19 -39 2 -62 16 -17 6 -18 -300 -18 l-317 0 0 -25 0 -25 317 0
c306 0 316 -1 300 -18 -20 -22 -23 -62 -4 -62 6 0 21 13 31 29 11 15 28 33 38
40 17 11 18 3 18 -189 l0 -200 840 0 840 0 0 200 0 200 185 0 c102 0 185 -3
185 -7 0 -5 -7 -17 -15 -27 -8 -11 -15 -26 -15 -33 0 -20 38 -15 44 5 4 11 18
29 31 42 l25 23 0 -201 0 -202 840 0 840 0 0 200 0 200 186 0 185 0 -15 -22
c-18 -25 -21 -58 -6 -58 8 0 110 96 110 104 0 1 -23 26 -51 55 -38 40 -54 50
-62 42 -9 -9 -8 -19 5 -41 l17 -30 -184 0 -185 0 0 200 0 200 -840 0 -840 0 0
-202 -1 -203 -40 44 c-31 35 -42 42 -52 32 -9 -9 -8 -18 5 -41 l17 -30 -184 0
-185 0 0 200 0 200 -840 0 -840 0 0 -200z m820 -230 l0 -400 -400 0 -400 0 0
400 0 400 400 0 400 0 0 -400z m830 215 l0 -185 -205 0 -205 0 0 -25 0 -25
205 0 205 0 0 -190 0 -190 -400 0 -400 0 0 400 0 400 400 0 400 0 0 -185z
m1300 -215 l0 -400 -400 0 -400 0 0 400 0 400 400 0 400 0 0 -400z m830 215
l0 -185 -205 0 -205 0 0 -25 0 -25 205 0 205 0 0 -190 0 -190 -405 0 -405 0 0
400 0 400 405 0 405 0 0 -185z"/>
<path d="M2023 8110 c-29 -12 -31 -50 -3 -50 11 0 20 5 20 11 0 14 62 7 67 -7
2 -7 -13 -15 -34 -19 -52 -9 -83 -31 -83 -58 1 -51 34 -66 128 -60 52 4 72 10
72 19 0 8 -9 14 -20 14 -18 0 -20 7 -20 58 0 45 -4 63 -19 76 -23 21 -78 29
-108 16z m83 -136 c-7 -19 -65 -18 -73 1 -7 20 -1 26 39 34 34 7 46 -4 34 -35z"/>
<path d="M4105 8180 c-8 -14 3 -30 21 -30 11 0 14 -21 14 -111 0 -99 2 -110
18 -108 9 2 27 0 39 -5 37 -12 89 17 103 58 25 77 -31 146 -102 126 -28 -9
-28 -8 -28 36 0 42 -1 44 -29 44 -17 0 -33 -4 -36 -10z m155 -132 c13 -25 13
-31 0 -55 -20 -36 -53 -41 -74 -11 -21 29 -20 62 0 83 23 23 56 15 74 -17z"/>
<path d="M314 7966 c-8 -21 3 -36 27 -36 15 0 20 6 17 22 -4 27 -35 37 -44 14z"/>
<path d="M494 7966 c-8 -21 3 -36 27 -36 15 0 20 6 17 22 -4 27 -35 37 -44 14z"/>
<path d="M684 7966 c-8 -21 3 -36 27 -36 15 0 20 6 17 22 -4 27 -35 37 -44 14z"/>
<path d="M6084 7966 c-8 -21 3 -36 27 -36 15 0 20 6 17 22 -4 27 -35 37 -44
14z"/>
<path d="M6274 7966 c-8 -21 3 -36 27 -36 15 0 20 6 17 22 -4 27 -35 37 -44
14z"/>
<path d="M6454 7966 c-8 -21 3 -36 27 -36 15 0 20 6 17 22 -4 27 -35 37 -44
14z"/>
<path d="M2820 7234 c0 -9 9 -18 20 -21 13 -3 20 -14 20 -29 0 -21 -3 -23 -25
-14 -19 7 -35 6 -59 -4 -83 -35 -65 -181 21 -178 16 0 52 1 81 1 52 1 72 18
32 28 -19 5 -20 14 -20 119 l0 114 -35 0 c-25 0 -35 -4 -35 -16z m29 -125 c29
-52 -32 -114 -73 -74 -34 35 -6 109 38 103 11 -2 27 -15 35 -29z"/>
<path d="M2176 7173 c-3 -3 -30 -5 -61 -4 -43 1 -55 -2 -55 -14 0 -8 9 -15 20
-15 19 0 20 -7 20 -104 0 -97 -1 -104 -21 -109 -39 -10 -15 -32 36 -32 51 0
75 22 36 32 -16 4 -21 13 -21 39 0 32 1 33 23 23 18 -8 33 -7 60 4 71 30 71
150 -1 175 -17 6 -33 8 -36 5z m44 -65 c13 -25 13 -31 0 -55 -20 -36 -53 -41
-74 -11 -21 29 -20 62 0 83 23 23 56 15 74 -17z"/>
<path d="M2420 7170 c-14 -4 -49 -5 -77 -2 -44 4 -53 2 -53 -12 0 -10 8 -16
25 -16 24 0 25 -3 25 -60 0 -57 -1 -60 -25 -60 -16 0 -25 -6 -25 -15 0 -12 15
-15 75 -15 60 0 75 3 75 15 0 10 -10 15 -30 15 -27 0 -30 3 -30 34 0 45 8 64
31 77 13 6 25 6 38 0 14 -8 22 -7 31 4 22 27 -13 47 -60 35z"/>
<path d="M2568 7165 c-73 -41 -62 -149 18 -175 49 -16 114 10 114 47 0 18 -36
17 -44 -2 -12 -31 -96 -6 -96 28 0 4 32 7 71 7 l72 0 -7 32 c-12 63 -75 93
-128 63z m82 -45 c10 -19 8 -20 -40 -20 -27 0 -50 2 -50 4 0 3 7 12 16 20 22
22 61 20 74 -4z"/>
<path d="M2470 6494 l0 -255 -22 15 c-12 9 -30 16 -40 16 -28 0 -21 -27 10
-46 16 -9 34 -25 40 -35 12 -18 1 -19 -393 -19 l-405 0 0 -200 0 -200 -23 15
c-13 8 -30 26 -37 40 -7 14 -19 25 -27 25 -18 0 -16 -40 4 -62 16 -17 6 -18
-300 -18 l-317 0 0 -25 0 -25 317 0 c306 0 316 -1 300 -18 -20 -22 -23 -62 -4
-62 6 0 19 13 29 29 9 16 26 34 37 40 21 12 21 12 21 -189 l0 -200 840 0 840
0 0 200 0 200 186 0 185 0 -18 -30 c-13 -23 -14 -33 -5 -42 9 -9 21 -1 51 33
l40 44 1 -202 0 -203 840 0 840 0 0 200 0 200 186 0 185 0 -15 -22 c-18 -25
-21 -58 -6 -58 7 0 110 98 110 105 0 7 -103 105 -110 105 -15 0 -12 -33 6 -58
l15 -22 -185 0 -186 0 0 200 0 200 -840 0 -840 0 0 -202 0 -201 -25 23 c-13
13 -27 31 -31 42 -6 21 -32 24 -40 4 -3 -8 2 -26 11 -40 l17 -26 -186 0 -186
0 0 200 0 200 -412 0 -413 1 43 38 c23 21 42 44 42 50 0 16 -32 14 -58 -5
l-22 -15 0 255 0 256 -25 0 -25 0 0 -256z m10 -744 l0 -400 -400 0 -400 0 0
400 0 400 400 0 400 0 0 -400z m830 210 l0 -190 -205 0 -205 0 0 -25 0 -25
205 0 205 0 0 -185 0 -185 -400 0 -400 0 0 400 0 400 400 0 400 0 0 -190z
m1300 -210 l0 -400 -400 0 -400 0 0 400 0 400 400 0 400 0 0 -400z m830 210
l0 -190 -205 0 -205 0 0 -25 0 -25 205 0 205 0 0 -185 0 -185 -405 0 -405 0 0
400 0 400 405 0 405 0 0 -190z"/>
<path d="M2023 5790 c-29 -12 -31 -50 -3 -50 11 0 20 5 20 11 0 14 62 7 67 -7
2 -7 -13 -15 -34 -19 -52 -9 -83 -31 -83 -58 1 -51 34 -66 128 -60 52 4 72 10
72 19 0 8 -9 14 -20 14 -18 0 -20 7 -20 58 0 45 -4 63 -19 76 -23 21 -78 29
-108 16z m83 -136 c-7 -19 -65 -18 -73 1 -7 20 -1 26 39 34 34 7 46 -4 34 -35z"/>
<path d="M4105 5860 c-8 -14 3 -30 21 -30 11 0 14 -21 14 -111 0 -99 2 -110
18 -108 9 2 27 0 39 -5 37 -12 89 17 103 58 25 77 -31 146 -102 126 -28 -9
-28 -8 -28 36 0 42 -1 44 -29 44 -17 0 -33 -4 -36 -10z m155 -132 c13 -25 13
-31 0 -55 -20 -36 -53 -41 -74 -11 -21 29 -20 62 0 83 23 23 56 15 74 -17z"/>
<path d="M314 5646 c-8 -21 3 -36 27 -36 15 0 20 6 17 22 -4 27 -35 37 -44 14z"/>
<path d="M494 5646 c-8 -21 3 -36 27 -36 15 0 20 6 17 22 -4 27 -35 37 -44 14z"/>
<path d="M684 5646 c-8 -21 3 -36 27 -36 15 0 20 6 17 22 -4 27 -35 37 -44 14z"/>
<path d="M6084 5646 c-8 -21 3 -36 27 -36 15 0 20 6 17 22 -4 27 -35 37 -44
14z"/>
<path d="M6274 5646 c-8 -21 3 -36 27 -36 15 0 20 6 17 22 -4 27 -35 37 -44
14z"/>
<path d="M6454 5646 c-8 -21 3 -36 27 -36 15 0 20 6 17 22 -4 27 -35 37 -44
14z"/>
<path d="M3780 4315 l0 -425 840 0 840 0 0 425 0 425 -840 0 -840 0 0 -425z
m830 -5 l0 -400 -400 0 -400 0 0 400 0 400 400 0 400 0 0 -400z m800 397 c0
-1 -175 -178 -390 -392 l-390 -390 0 393 0 392 390 0 c215 0 390 -1 390 -3z
m30 -407 l0 -390 -392 0 -393 0 390 390 c214 215 391 390 392 390 2 0 3 -175
3 -390z"/>
<path d="M4110 4345 c0 -8 8 -15 18 -15 10 0 28 -13 39 -29 l22 -28 -22 -31
c-12 -18 -30 -32 -39 -32 -10 0 -18 -7 -18 -15 0 -11 12 -15 45 -15 43 0 45 1
39 24 -3 14 -1 27 6 31 16 10 29 -12 23 -36 -5 -17 0 -19 41 -19 34 0 46 4 46
15 0 8 -8 15 -18 15 -10 0 -28 14 -41 31 -21 29 -22 31 -6 56 9 14 26 28 36
30 10 3 19 12 19 19 0 10 -13 14 -45 14 -45 0 -54 -7 -35 -26 8 -8 6 -15 -5
-24 -16 -13 -19 -6 -16 33 2 14 -6 17 -43 17 -34 0 -46 -4 -46 -15z"/>
<path d="M2820 3474 c0 -9 9 -18 20 -21 13 -3 20 -14 20 -29 0 -21 -3 -23 -25
-14 -19 7 -35 6 -59 -4 -83 -35 -65 -181 21 -178 16 0 52 1 81 1 52 1 72 18
32 28 -19 5 -20 14 -20 119 l0 114 -35 0 c-25 0 -35 -4 -35 -16z m29 -125 c29
-52 -32 -114 -73 -74 -34 35 -6 109 38 103 11 -2 27 -15 35 -29z"/>
<path d="M2176 3413 c-3 -3 -30 -5 -61 -4 -43 1 -55 -2 -55 -14 0 -8 9 -15 20
-15 19 0 20 -7 20 -104 0 -97 -1 -104 -21 -109 -39 -10 -15 -32 36 -32 51 0
75 22 36 32 -16 4 -21 13 -21 39 0 32 1 33 23 23 18 -8 33 -7 60 4 71 30 71
150 -1 175 -17 6 -33 8 -36 5z m44 -65 c13 -25 13 -31 0 -55 -20 -36 -53 -41
-74 -11 -21 29 -20 62 0 83 23 23 56 15 74 -17z"/>
<path d="M2420 3410 c-14 -4 -49 -5 -77 -2 -44 4 -53 2 -53 -12 0 -10 8 -16
25 -16 24 0 25 -3 25 -60 0 -57 -1 -60 -25 -60 -16 0 -25 -6 -25 -15 0 -12 15
-15 75 -15 60 0 75 3 75 15 0 10 -10 15 -30 15 -27 0 -30 3 -30 34 0 45 8 64
31 77 13 6 25 6 38 0 14 -8 22 -7 31 4 22 27 -13 47 -60 35z"/>
<path d="M2568 3405 c-73 -41 -62 -149 18 -175 49 -16 114 10 114 47 0 18 -36
17 -44 -2 -12 -31 -96 -6 -96 28 0 4 32 7 71 7 l72 0 -7 32 c-12 63 -75 93
-128 63z m82 -45 c10 -19 8 -20 -40 -20 -27 0 -50 2 -50 4 0 3 7 12 16 20 22
22 61 20 74 -4z"/>
<path d="M2470 2744 l0 -255 -22 15 c-26 19 -58 21 -58 5 0 -6 19 -29 43 -50
l42 -38 -407 -1 -408 0 0 -200 c0 -114 -4 -200 -9 -200 -11 0 -61 58 -61 71 0
5 -7 9 -15 9 -20 0 -19 -39 2 -62 16 -17 6 -18 -300 -18 l-317 0 0 -25 0 -25
317 0 c306 0 316 -1 300 -18 -20 -22 -23 -62 -4 -62 6 0 21 13 31 29 11 15 28
33 38 40 17 11 18 3 18 -189 l0 -200 700 0 c385 0 700 -2 700 -5 0 -24 149
-530 177 -600 101 -255 225 -379 416 -415 l67 -12 -20 -25 c-11 -14 -20 -32
-20 -39 0 -24 36 -15 50 12 8 14 22 30 32 35 17 9 18 -1 18 -191 l0 -200 840
0 840 0 0 430 0 430 -276 2 -277 3 -67 95 c-36 53 -83 123 -102 157 -38 65
-88 197 -88 234 0 21 1 21 18 6 10 -10 26 -17 35 -17 20 0 35 22 18 28 -18 6
-71 53 -71 63 0 5 168 9 405 9 l405 0 0 200 0 200 186 0 185 0 -15 -22 c-18
-25 -21 -58 -6 -58 8 0 110 96 110 104 0 1 -23 26 -51 55 -38 40 -54 50 -62
42 -9 -9 -8 -19 5 -41 l17 -30 -184 0 -185 0 0 200 0 200 -840 0 -840 0 0
-425 0 -425 413 0 412 -1 -42 -38 c-24 -21 -43 -44 -43 -50 0 -16 32 -14 57 4
24 17 25 15 37 -56 15 -86 78 -210 183 -359 l53 -75 -535 -3 -535 -2 0 -200
c0 -190 -1 -200 -18 -191 -10 5 -24 21 -32 35 -14 27 -50 36 -50 12 0 -7 9
-25 20 -38 l19 -25 -42 8 c-103 20 -154 46 -225 113 -80 75 -140 179 -194 335
-28 80 -148 505 -148 523 0 4 52 8 115 8 l115 0 0 425 0 425 -412 0 -413 1 43
38 c23 21 42 44 42 50 0 16 -32 14 -58 -5 l-22 -15 0 255 0 256 -25 0 -25 0 0
-256z m10 -754 l0 -400 -400 0 -400 0 0 400 0 400 400 0 400 0 0 -400z m830 0
l0 -401 -106 3 -106 3 -33 96 c-36 105 -109 276 -130 305 -13 18 -15 18 -30 3
-15 -15 -14 -22 23 -95 34 -68 95 -221 117 -291 l6 -23 -270 0 -271 0 0 400 0
400 400 0 400 0 0 -400z m1300 0 l0 -400 -400 0 -400 0 0 400 0 400 400 0 400
0 0 -400z m830 215 l0 -185 -205 0 -205 0 0 -25 0 -25 205 0 205 0 0 -190 0
-190 -405 0 -405 0 0 400 0 400 405 0 405 0 0 -185z m-830 -1645 l0 -400 -400
0 -400 0 0 400 0 400 400 0 400 0 0 -400z m303 334 c52 -93 86 -193 93 -275 6
-64 9 -69 30 -69 28 0 28 4 13 102 -13 82 -48 180 -91 256 l-29 52 255 0 256
0 0 -400 0 -400 -405 0 -405 0 0 400 0 400 123 0 123 0 37 -66z"/>
<path d="M2023 2040 c-29 -12 -31 -50 -3 -50 11 0 20 5 20 11 0 14 62 7 67 -7
2 -7 -13 -15 -34 -19 -52 -9 -83 -31 -83 -58 1 -51 34 -66 128 -60 52 4 72 10
72 19 0 8 -9 14 -20 14 -18 0 -20 7 -20 58 0 45 -4 63 -19 76 -23 21 -78 29
-108 16z m83 -136 c-7 -19 -65 -18 -73 1 -7 20 -1 26 39 34 34 7 46 -4 34 -35z"/>
<path d="M4105 2110 c-8 -14 3 -30 21 -30 11 0 14 -21 14 -111 0 -99 2 -110
18 -108 9 2 27 0 39 -5 37 -12 89 17 103 58 25 77 -31 146 -102 126 -28 -9
-28 -8 -28 36 0 42 -1 44 -29 44 -17 0 -33 -4 -36 -10z m155 -132 c13 -25 13
-31 0 -55 -20 -36 -53 -41 -74 -11 -21 29 -20 62 0 83 23 23 56 15 74 -17z"/>
<path d="M4110 595 c0 -8 8 -15 18 -15 10 0 28 -13 39 -29 l22 -28 -22 -31
c-12 -18 -30 -32 -39 -32 -10 0 -18 -7 -18 -15 0 -11 12 -15 45 -15 43 0 45 1
39 24 -3 14 -1 27 6 31 16 10 29 -12 23 -36 -5 -17 0 -19 41 -19 34 0 46 4 46
15 0 8 -8 15 -18 15 -10 0 -28 14 -41 31 -21 29 -22 31 -6 56 9 14 26 28 36
30 10 3 19 12 19 19 0 10 -13 14 -45 14 -45 0 -54 -7 -35 -26 8 -8 6 -15 -5
-24 -16 -13 -19 -6 -16 33 2 14 -6 17 -43 17 -34 0 -46 -4 -46 -15z"/>
<path d="M314 1896 c-8 -21 3 -36 27 -36 15 0 20 6 17 22 -4 27 -35 37 -44 14z"/>
<path d="M494 1896 c-8 -21 3 -36 27 -36 15 0 20 6 17 22 -4 27 -35 37 -44 14z"/>
<path d="M684 1896 c-8 -21 3 -36 27 -36 15 0 20 6 17 22 -4 27 -35 37 -44 14z"/>
<path d="M6084 1896 c-8 -21 3 -36 27 -36 15 0 20 6 17 22 -4 27 -35 37 -44
14z"/>
<path d="M6274 1896 c-8 -21 3 -36 27 -36 15 0 20 6 17 22 -4 27 -35 37 -44
14z"/>
<path d="M6454 1896 c-8 -21 3 -36 27 -36 15 0 20 6 17 22 -4 27 -35 37 -44
14z"/>
</g>
</svg>
