<?xml version="1.0" standalone="no"?>
<!DOCTYPE svg PUBLIC "-//W3C//DTD SVG 20010904//EN"
 "http://www.w3.org/TR/2001/REC-SVG-20010904/DTD/svg10.dtd">
<svg version="1.0" xmlns="http://www.w3.org/2000/svg"
 width="998.000000pt" height="241.000000pt" viewBox="0 0 998.000000 241.000000"
 preserveAspectRatio="xMidYMid meet">
<metadata>
Created by potrace 1.16, written by Peter Selinger 2001-2019
</metadata>
<g transform="translate(0.000000,241.000000) scale(0.100000,-0.100000)"
fill="#000000" stroke="none">
<path d="M412 1718 c-7 -7 -12 -18 -12 -25 0 -7 -9 -13 -20 -13 -11 0 -20 -7
-20 -15 0 -8 9 -15 20 -15 17 0 20 -7 20 -40 0 -33 -3 -40 -20 -40 -11 0 -20
-4 -20 -10 0 -5 25 -10 55 -10 30 0 55 5 55 10 0 6 -9 10 -20 10 -17 0 -20 7
-20 39 0 33 4 40 23 43 12 2 22 8 22 13 0 6 -10 11 -22 13 -13 2 -23 8 -23 13
0 5 11 7 25 3 21 -5 25 -3 25 15 0 16 -6 21 -28 21 -15 0 -33 -5 -40 -12z"/>
<path d="M570 1710 c0 -15 5 -20 18 -18 9 2 17 10 17 18 0 8 -8 16 -17 18 -13
2 -18 -3 -18 -18z"/>
<path d="M2322 1718 c3 -7 14 -14 26 -16 20 -3 22 -9 22 -68 l0 -64 -40 0
c-40 0 -40 0 -40 39 0 51 -22 73 -69 69 -25 -2 -37 -8 -39 -21 -3 -16 1 -17
32 -11 24 4 36 2 36 -5 0 -6 -10 -11 -23 -11 -54 0 -76 -53 -31 -75 25 -12
254 -8 254 6 0 5 -11 9 -25 9 -25 0 -25 1 -25 80 l0 80 -41 0 c-28 0 -39 -4
-37 -12z m-62 -122 c0 -17 -35 -30 -51 -20 -9 5 -6 11 6 21 24 17 45 17 45 -1z"/>
<path d="M1010 1696 c0 -7 -9 -16 -21 -19 -23 -6 -17 -27 7 -27 10 0 14 -13
14 -45 0 -38 4 -47 23 -54 12 -5 29 -6 37 -3 17 5 40 31 40 44 0 15 -29 8 -38
-8 -14 -25 -32 -7 -32 32 0 31 2 34 30 34 20 0 30 5 30 15 0 10 -10 15 -30 15
-20 0 -30 5 -30 15 0 8 -7 15 -15 15 -8 0 -15 -6 -15 -14z"/>
<path d="M3770 1696 c0 -7 -9 -16 -21 -19 -23 -6 -17 -27 7 -27 10 0 14 -13
14 -45 0 -38 4 -47 23 -54 12 -5 29 -6 37 -3 17 5 40 31 40 44 0 15 -29 8 -38
-8 -14 -25 -32 -7 -32 32 0 31 2 34 30 34 20 0 30 5 30 15 0 10 -10 15 -30 15
-20 0 -30 5 -30 15 0 8 -7 15 -15 15 -8 0 -15 -6 -15 -14z"/>
<path d="M530 1666 c0 -10 9 -16 25 -16 23 0 25 -4 25 -40 0 -36 -2 -40 -25
-40 -14 0 -25 -4 -25 -10 0 -6 27 -10 60 -10 33 0 60 4 60 10 0 6 -9 10 -19
10 -17 0 -20 8 -23 53 l-3 52 -37 3 c-29 2 -38 0 -38 -12z"/>
<path d="M670 1665 c0 -8 7 -15 15 -15 11 0 15 -11 15 -40 0 -29 -4 -40 -15
-40 -8 0 -15 -4 -15 -10 0 -5 23 -10 50 -10 28 0 50 5 50 10 0 6 -9 10 -20 10
-14 0 -20 7 -20 21 0 37 19 60 48 57 19 -2 27 2 27 12 0 12 -15 15 -67 17 -54
2 -68 -1 -68 -12z"/>
<path d="M842 1671 c-8 -4 -12 -19 -10 -32 2 -18 13 -26 41 -34 43 -12 53 -28
19 -33 -13 -2 -25 3 -28 12 -11 28 -36 19 -32 -11 3 -26 6 -28 45 -27 65 2 92
34 57 68 -8 9 -11 16 -5 16 6 0 11 11 11 25 0 23 -4 25 -42 25 -24 0 -49 -4
-56 -9z m68 -31 c0 -5 -9 -10 -19 -10 -11 0 -23 5 -26 10 -4 6 5 10 19 10 14
0 26 -4 26 -10z"/>
<path d="M2005 1670 c-3 -6 0 -13 8 -16 8 -3 20 -25 27 -49 13 -46 32 -71 48
-61 5 3 15 26 22 52 7 25 19 48 27 51 25 10 14 33 -15 33 -34 0 -45 -9 -32
-25 7 -9 7 -22 -1 -41 l-11 -29 -9 23 c-5 13 -6 35 -3 48 6 21 3 24 -24 24
-17 0 -34 -5 -37 -10z"/>
<path d="M2470 1665 c0 -8 5 -15 10 -15 6 0 10 -17 10 -37 0 -58 11 -68 71
-65 52 2 75 11 52 19 -8 3 -13 25 -13 59 0 51 -1 54 -25 54 -16 0 -25 -6 -25
-15 0 -8 5 -15 11 -15 6 0 9 -16 7 -37 -2 -30 -7 -38 -23 -38 -17 0 -20 8 -23
53 -3 48 -5 52 -28 52 -15 0 -24 -6 -24 -15z"/>
<path d="M2650 1660 c-36 -36 -15 -105 35 -111 33 -5 75 10 75 26 0 18 -14 19
-40 3 -16 -10 -23 -10 -37 5 -16 16 -15 17 30 17 43 0 47 2 47 23 0 52 -71 76
-110 37z m75 -20 c4 -6 -7 -10 -25 -10 -18 0 -29 4 -25 10 3 6 15 10 25 10 10
0 22 -4 25 -10z"/>
<path d="M3260 1664 c0 -8 5 -14 10 -14 6 0 10 -18 10 -40 0 -22 -4 -40 -10
-40 -5 0 -10 -4 -10 -10 0 -6 32 -10 75 -10 43 0 75 4 75 10 0 6 -4 10 -10 10
-5 0 -10 20 -10 44 0 24 -6 48 -12 54 -21 17 -118 14 -118 -4z m100 -54 c0
-36 -2 -40 -25 -40 -21 0 -25 5 -25 28 0 30 16 52 37 52 9 0 13 -14 13 -40z"/>
<path d="M3450 1660 c-36 -36 -15 -105 35 -111 33 -5 75 10 75 26 0 18 -14 19
-40 3 -16 -10 -23 -10 -37 5 -16 16 -15 17 30 17 43 0 47 2 47 23 0 52 -71 76
-110 37z m75 -20 c4 -6 -7 -10 -25 -10 -18 0 -29 4 -25 10 3 6 15 10 25 10 10
0 22 -4 25 -10z"/>
<path d="M3580 1665 c0 -8 6 -15 13 -15 7 0 18 -9 25 -20 11 -18 9 -24 -13
-46 -32 -32 -31 -34 5 -34 20 0 30 5 28 13 -2 6 2 13 7 14 6 1 9 -5 7 -13 -2
-10 7 -14 33 -14 19 0 35 5 35 10 0 6 -6 10 -12 10 -7 0 -21 11 -30 25 -17 23
-17 24 7 43 33 26 32 42 -4 42 -23 0 -31 -5 -34 -22 l-4 -23 -2 23 c-1 18 -7
22 -31 22 -20 0 -30 -5 -30 -15z"/>
<path d="M130 735 l0 -605 605 0 605 0 0 295 0 295 190 0 c105 0 190 -4 190
-9 0 -5 -7 -14 -15 -21 -8 -7 -15 -23 -15 -36 0 -15 6 -24 15 -24 8 0 15 4 15
9 0 13 50 71 61 71 5 0 9 -122 9 -290 l0 -290 1195 0 1195 0 0 295 0 295 191
0 190 0 -20 -26 c-48 -61 -13 -80 39 -22 l39 43 1 -292 0 -293 1195 0 1195 0
0 295 0 295 190 0 c105 0 190 -4 190 -9 0 -5 -7 -14 -15 -21 -8 -7 -15 -23
-15 -36 0 -15 6 -24 15 -24 8 0 15 4 15 9 0 13 50 71 61 71 5 0 9 -122 9 -290
l0 -290 1190 0 1190 0 0 605 0 605 -1190 0 -1190 0 0 -292 -1 -293 -40 43
c-22 23 -44 42 -49 42 -15 0 -12 -33 6 -58 l15 -22 -190 0 -191 0 0 290 0 290
-1195 0 -1195 0 0 -292 0 -291 -25 23 c-13 13 -27 31 -31 42 -6 20 -44 25 -44
5 0 -7 7 -22 15 -33 8 -10 15 -22 15 -26 0 -5 -83 -8 -185 -8 l-185 0 0 290 0
290 -1195 0 -1195 0 0 -292 -1 -293 -38 43 c-21 23 -44 42 -50 42 -16 0 -14
-32 5 -58 l15 -22 -190 0 -191 0 0 290 0 290 -605 0 -605 0 0 -605z m1180 300
l0 -275 -290 0 c-283 0 -290 0 -290 -20 0 -20 7 -20 290 -20 l290 0 0 -280 0
-280 -575 0 -575 0 0 575 0 575 575 0 575 0 0 -275z m1660 -300 l0 -575 -580
0 -580 0 0 575 0 575 580 0 580 0 0 -575z m1180 300 l0 -275 -290 0 c-283 0
-290 0 -290 -20 0 -20 7 -20 290 -20 l290 0 0 -280 0 -280 -580 0 -580 0 0
575 0 575 580 0 580 0 0 -275z m1650 -300 l0 -575 -575 0 -575 0 0 575 0 575
575 0 575 0 0 -575z m1180 300 l0 -275 -290 0 c-283 0 -290 0 -290 -20 0 -20
7 -20 290 -20 l290 0 0 -280 0 -280 -575 0 -575 0 0 575 0 575 575 0 575 0 0
-275z m1660 -300 l0 -575 -580 0 -580 0 0 575 0 575 580 0 580 0 0 -575z
m1150 572 c0 -1 -254 -256 -565 -567 l-565 -565 0 568 0 567 565 0 c311 0 565
-1 565 -3z m30 -582 l0 -565 -567 0 -568 0 565 565 c311 311 566 565 567 565
2 0 3 -254 3 -565z"/>
<path d="M2333 780 c-29 -12 -31 -50 -3 -50 11 0 20 5 20 11 0 14 62 7 67 -7
2 -7 -13 -15 -34 -19 -52 -9 -83 -31 -83 -58 1 -51 34 -66 128 -60 52 4 72 10
72 19 0 8 -9 14 -20 14 -18 0 -20 7 -20 58 0 45 -4 63 -19 76 -23 21 -78 29
-108 16z m83 -136 c-7 -19 -65 -18 -73 1 -7 20 -1 26 39 34 34 7 46 -4 34 -35z"/>
<path d="M5125 850 c-8 -14 3 -30 21 -30 11 0 14 -21 14 -111 0 -99 2 -110 18
-108 9 2 27 0 39 -5 37 -12 89 17 103 58 25 77 -31 146 -102 126 -28 -9 -28
-8 -28 36 0 42 -1 44 -29 44 -17 0 -33 -4 -36 -10z m155 -132 c13 -25 13 -31
0 -55 -20 -36 -53 -41 -74 -11 -21 29 -20 62 0 83 23 23 56 15 74 -17z"/>
<path d="M8043 783 c-60 -12 -84 -108 -39 -160 19 -22 33 -28 64 -28 42 0 82
26 82 52 0 18 -36 17 -44 -2 -3 -8 -16 -15 -29 -15 -37 0 -60 23 -60 60 0 20
7 38 18 46 22 16 65 19 65 4 0 -5 9 -10 20 -10 26 0 27 36 1 50 -20 10 -38 11
-78 3z"/>
</g>
</svg>
