<?xml version="1.0" standalone="no"?>
<!DOCTYPE svg PUBLIC "-//W3C//DTD SVG 20010904//EN"
 "http://www.w3.org/TR/2001/REC-SVG-20010904/DTD/svg10.dtd">
<svg version="1.0" xmlns="http://www.w3.org/2000/svg"
 width="1173.000000pt" height="171.000000pt" viewBox="0 0 1173.000000 171.000000"
 preserveAspectRatio="xMidYMid meet">
<metadata>
Created by potrace 1.16, written by Peter Selinger 2001-2019
</metadata>
<g transform="translate(0.000000,171.000000) scale(0.100000,-0.100000)"
fill="#000000" stroke="none">
<path d="M4810 1145 l0 -425 1027 0 1027 0 -27 -28 c-15 -15 -27 -31 -27 -35
0 -13 23 -7 42 10 17 15 18 14 18 -45 0 -48 3 -62 15 -62 12 0 15 13 15 60 l0
60 25 -16 c37 -24 43 -9 10 26 l-29 30 737 0 737 0 0 425 0 425 -1785 0 -1785
0 0 -425z m590 5 l0 -400 -285 0 -285 0 0 400 0 400 285 0 285 0 0 -400z m590
0 l0 -400 -285 0 -285 0 0 400 0 400 285 0 285 0 0 -400z m590 0 l0 -400 -285
0 -285 0 0 400 0 400 285 0 285 0 0 -400z m590 0 l0 -400 -285 0 -285 0 0 400
0 400 285 0 285 0 0 -400z m590 0 l0 -400 -285 0 -285 0 0 400 0 400 285 0
285 0 0 -400z m590 0 l0 -400 -285 0 -285 0 0 400 0 400 285 0 285 0 0 -400z"/>
<path d="M5053 1190 c-29 -12 -31 -50 -3 -50 11 0 20 5 20 11 0 14 62 7 67 -7
2 -7 -13 -15 -34 -19 -52 -9 -83 -31 -83 -58 1 -51 34 -66 128 -60 52 4 72 10
72 19 0 8 -9 14 -20 14 -18 0 -20 7 -20 58 0 45 -4 63 -19 76 -23 21 -78 29
-108 16z m83 -136 c-7 -19 -65 -18 -73 1 -7 20 -1 26 39 34 34 7 46 -4 34 -35z"/>
<path d="M5605 1260 c-8 -14 3 -30 21 -30 11 0 14 -21 14 -111 0 -99 2 -110
18 -108 9 2 27 0 39 -5 37 -12 89 17 103 58 25 77 -31 146 -102 126 -28 -9
-28 -8 -28 36 0 42 -1 44 -29 44 -17 0 -33 -4 -36 -10z m155 -132 c13 -25 13
-31 0 -55 -20 -36 -53 -41 -74 -11 -21 29 -20 62 0 83 23 23 56 15 74 -17z"/>
<path d="M6283 1193 c-60 -12 -84 -108 -39 -160 19 -22 33 -28 64 -28 42 0 82
26 82 52 0 18 -36 17 -44 -2 -3 -8 -16 -15 -29 -15 -37 0 -60 23 -60 60 0 20
7 38 18 46 22 16 65 19 65 4 0 -5 9 -10 20 -10 26 0 27 36 1 50 -20 10 -38 11
-78 3z"/>
<path d="M10424 1300 c-29 -12 -54 -49 -54 -80 0 -42 27 -68 86 -86 67 -19 87
-48 60 -89 -12 -18 -25 -25 -47 -25 -35 0 -79 39 -79 70 0 11 -4 20 -10 20 -5
0 -10 -25 -10 -55 0 -51 10 -69 25 -45 4 7 12 7 25 0 35 -19 89 -12 115 15 53
52 20 136 -61 156 -49 13 -75 39 -67 70 15 54 93 43 115 -17 18 -49 28 -42 28
21 0 30 -4 55 -10 55 -5 0 -10 -5 -10 -11 0 -7 -9 -9 -22 -5 -53 14 -64 15
-84 6z"/>
<path d="M150 1290 c0 -5 9 -10 20 -10 19 0 20 -7 20 -121 0 -112 -1 -121 -20
-126 -37 -10 -20 -23 30 -23 50 0 67 13 30 23 -18 5 -20 14 -20 113 0 59 2
105 5 102 3 -3 40 -56 83 -118 42 -62 83 -115 90 -118 9 -3 12 27 12 126 0
122 1 131 20 137 37 12 21 25 -30 25 -54 0 -62 -8 -30 -28 18 -11 20 -23 20
-99 l0 -87 -72 107 -73 107 -42 0 c-24 0 -43 -4 -43 -10z"/>
<path d="M750 1291 c0 -5 7 -11 15 -15 12 -4 15 -28 15 -126 0 -100 -2 -120
-15 -120 -8 0 -15 -4 -15 -10 0 -5 23 -10 50 -10 28 0 50 5 50 10 0 6 -7 10
-15 10 -12 0 -15 13 -15 58 0 47 4 63 21 78 35 31 53 9 57 -70 2 -54 0 -66
-13 -66 -8 0 -15 -4 -15 -10 0 -5 23 -10 50 -10 28 0 50 5 50 10 0 6 -9 10
-20 10 -18 0 -20 7 -20 75 0 71 -1 76 -26 87 -19 9 -33 9 -55 1 l-29 -11 0 59
0 59 -35 0 c-19 0 -35 -4 -35 -9z"/>
<path d="M2160 1291 c0 -5 7 -11 15 -15 12 -4 15 -28 15 -126 0 -100 -2 -120
-15 -120 -8 0 -15 -4 -15 -10 0 -5 23 -10 50 -10 28 0 50 5 50 10 0 6 -7 10
-15 10 -12 0 -15 13 -15 58 0 47 4 63 21 78 35 31 53 9 57 -70 2 -54 0 -66
-13 -66 -8 0 -15 -4 -15 -10 0 -5 23 -10 50 -10 28 0 50 5 50 10 0 6 -9 10
-20 10 -18 0 -20 7 -20 75 0 71 -1 76 -26 87 -19 9 -33 9 -55 1 l-29 -11 0 59
0 59 -35 0 c-19 0 -35 -4 -35 -9z"/>
<path d="M2690 1291 c0 -5 7 -11 15 -15 12 -4 15 -29 15 -137 0 -109 2 -130
14 -126 8 3 28 1 44 -5 23 -9 37 -8 62 2 45 19 64 52 57 102 -8 58 -36 83 -92
82 l-45 -1 0 54 0 53 -35 0 c-19 0 -35 -4 -35 -9z m143 -124 c22 -16 32 -74
18 -109 -12 -32 -53 -47 -76 -28 -23 19 -21 126 3 139 23 14 35 13 55 -2z"/>
<path d="M10770 1291 c0 -5 7 -11 15 -15 12 -4 15 -28 15 -126 0 -100 -2 -120
-15 -120 -8 0 -15 -4 -15 -10 0 -5 23 -10 50 -10 28 0 50 5 50 10 0 6 -7 10
-15 10 -12 0 -15 13 -15 58 0 47 4 63 21 78 35 31 53 9 57 -70 2 -54 0 -66
-13 -66 -8 0 -15 -4 -15 -10 0 -5 23 -10 50 -10 28 0 50 5 50 10 0 6 -9 10
-20 10 -18 0 -20 7 -20 75 0 71 -1 76 -26 87 -19 9 -33 9 -55 1 l-29 -11 0 59
0 59 -35 0 c-19 0 -35 -4 -35 -9z"/>
<path d="M482 1268 c4 -30 43 -33 43 -3 0 13 -8 21 -23 23 -20 3 -23 0 -20
-20z"/>
<path d="M2412 1268 c2 -15 10 -23 23 -23 30 0 27 39 -3 43 -20 3 -23 0 -20
-20z"/>
<path d="M9885 1265 c-29 -28 -31 -38 -10 -55 20 -17 37 -3 33 28 -3 23 1 27
24 30 18 2 30 -3 37 -16 16 -30 -5 -81 -35 -88 -24 -6 -24 -7 8 -23 30 -14 33
-20 33 -60 0 -51 -18 -68 -59 -57 -23 6 -26 9 -16 21 18 21 4 47 -22 43 -61
-8 -7 -88 60 -88 57 0 92 31 92 80 0 29 -6 43 -24 57 -23 19 -23 19 -5 42 11
13 19 36 19 52 0 58 -89 81 -135 34z"/>
<path d="M11182 1268 c2 -15 10 -23 23 -23 30 0 27 39 -3 43 -20 3 -23 0 -20
-20z"/>
<path d="M1014 1238 c-5 -19 -19 -37 -32 -43 -27 -12 -29 -25 -2 -25 18 0 20
-7 20 -68 0 -54 4 -72 18 -85 40 -36 82 -11 82 47 0 38 -18 32 -22 -6 -2 -21
-8 -33 -18 -33 -12 0 -16 16 -18 73 l-3 72 31 0 c16 0 30 5 30 10 0 6 -13 10
-30 10 -28 0 -30 2 -30 40 0 48 -14 52 -26 8z"/>
<path d="M11314 1238 c-5 -19 -19 -37 -32 -43 -27 -12 -29 -25 -2 -25 18 0 20
-7 20 -68 0 -54 4 -72 18 -85 40 -36 82 -11 82 47 0 38 -18 32 -22 -6 -2 -21
-8 -33 -18 -33 -12 0 -16 16 -18 73 l-3 72 31 0 c16 0 30 5 30 10 0 6 -13 10
-30 10 -28 0 -30 2 -30 40 0 48 -14 52 -26 8z"/>
<path d="M11484 1238 c-5 -19 -19 -37 -32 -43 -27 -12 -29 -25 -2 -25 18 0 20
-7 20 -68 0 -54 4 -72 18 -85 40 -36 82 -11 82 47 0 38 -18 32 -22 -6 -2 -21
-8 -33 -18 -33 -12 0 -16 16 -18 73 l-3 72 31 0 c16 0 30 5 30 10 0 6 -13 10
-30 10 -28 0 -30 2 -30 40 0 48 -14 52 -26 8z"/>
<path d="M9620 1206 c0 -8 5 -18 10 -21 6 -3 10 -10 10 -16 0 -5 -219 -9 -565
-9 -496 0 -565 -2 -565 -15 0 -13 69 -15 565 -15 l565 0 -12 -25 c-18 -40 -2
-40 37 0 19 21 35 39 35 40 0 5 -69 75 -74 75 -3 0 -6 -6 -6 -14z"/>
<path d="M478 1193 c-22 -5 -24 -23 -3 -23 12 0 15 -14 15 -70 0 -56 -3 -70
-15 -70 -8 0 -15 -4 -15 -10 0 -5 23 -10 50 -10 28 0 50 5 50 10 0 6 -7 10
-15 10 -12 0 -15 16 -15 85 0 90 -1 92 -52 78z"/>
<path d="M613 1176 c-24 -21 -28 -32 -28 -74 0 -59 21 -89 70 -98 38 -7 70 7
86 37 17 32 0 37 -23 6 -23 -31 -48 -35 -71 -9 -42 46 -23 142 28 142 20 0 25
-5 25 -25 0 -18 5 -25 20 -25 15 0 20 7 20 25 0 48 -80 62 -127 21z"/>
<path d="M1499 1171 c-58 -58 -28 -155 53 -168 30 -4 41 -1 62 20 26 26 34 47
17 47 -5 0 -16 -11 -25 -25 -9 -14 -25 -25 -36 -25 -26 0 -60 34 -60 60 0 18
7 20 65 20 36 0 65 4 65 9 0 4 -5 22 -11 40 -21 58 -83 69 -130 22z m91 -10
c18 -34 11 -41 -35 -41 -49 0 -53 5 -29 38 19 27 50 29 64 3z"/>
<path d="M1678 1193 c-22 -5 -24 -23 -3 -23 12 0 15 -14 15 -70 0 -56 -3 -70
-15 -70 -8 0 -15 -4 -15 -10 0 -5 25 -10 55 -10 30 0 55 5 55 10 0 6 -9 10
-20 10 -18 0 -20 7 -20 58 0 36 6 66 15 78 13 17 14 17 15 2 0 -11 8 -18 21
-18 15 0 20 5 17 22 -4 29 -34 35 -59 12 -17 -16 -19 -16 -19 -1 0 17 -9 19
-42 10z"/>
<path d="M1842 1184 c-12 -8 -22 -26 -22 -39 0 -25 33 -55 60 -55 9 0 26 -7
38 -16 18 -12 20 -19 12 -35 -17 -30 -58 -25 -78 11 -23 40 -32 38 -32 -7 l0
-38 48 -2 c66 -3 94 17 90 65 -3 35 -6 38 -56 56 -38 13 -52 23 -50 35 2 11
14 16 38 16 29 0 36 -4 38 -22 5 -35 22 -27 22 10 0 33 -1 34 -43 35 -25 1
-52 -4 -65 -14z"/>
<path d="M2023 1176 c-24 -21 -28 -32 -28 -74 0 -59 21 -89 70 -98 38 -7 70 7
86 37 17 32 0 37 -23 6 -23 -31 -48 -35 -71 -9 -42 46 -23 142 28 142 20 0 25
-5 25 -25 0 -18 5 -25 20 -25 15 0 20 7 20 25 0 48 -80 62 -127 21z"/>
<path d="M2408 1193 c-22 -5 -24 -23 -3 -23 12 0 15 -14 15 -70 0 -56 -3 -70
-15 -70 -8 0 -15 -4 -15 -10 0 -5 23 -10 50 -10 28 0 50 5 50 10 0 6 -7 10
-15 10 -12 0 -15 16 -15 85 0 90 -1 92 -52 78z"/>
<path d="M2529 1171 c-58 -58 -28 -155 53 -168 30 -4 41 -1 62 20 26 26 34 47
17 47 -5 0 -16 -11 -25 -25 -9 -14 -25 -25 -36 -25 -26 0 -60 34 -60 60 0 18
7 20 65 20 36 0 65 4 65 9 0 4 -5 22 -11 40 -21 58 -83 69 -130 22z m91 -10
c18 -34 11 -41 -35 -41 -49 0 -53 5 -29 38 19 27 50 29 64 3z"/>
<path d="M2959 1171 c-58 -58 -28 -155 53 -168 30 -4 41 -1 62 20 26 26 34 47
17 47 -5 0 -16 -11 -25 -25 -9 -14 -25 -25 -36 -25 -26 0 -60 34 -60 60 0 18
7 20 65 20 36 0 65 4 65 9 0 4 -5 22 -11 40 -21 58 -83 69 -130 22z m91 -10
c18 -34 11 -41 -35 -41 -49 0 -53 5 -29 38 19 27 50 29 64 3z"/>
<path d="M3138 1193 c-22 -5 -24 -23 -3 -23 12 0 15 -14 15 -70 0 -56 -3 -70
-15 -70 -8 0 -15 -4 -15 -10 0 -5 23 -10 50 -10 28 0 50 5 50 10 0 6 -7 10
-15 10 -12 0 -15 13 -15 58 0 47 4 63 21 78 35 31 53 9 57 -70 2 -54 0 -66
-13 -66 -8 0 -15 -4 -15 -10 0 -5 23 -10 50 -10 28 0 50 5 50 10 0 6 -9 10
-20 10 -18 0 -20 7 -20 75 0 71 -1 76 -26 87 -19 9 -33 9 -55 1 -16 -6 -29 -7
-29 -2 0 9 -22 10 -52 2z"/>
<path d="M10623 1176 c-24 -21 -28 -32 -28 -74 0 -59 21 -89 70 -98 38 -7 70
7 86 37 17 32 0 37 -23 6 -23 -31 -48 -35 -71 -9 -42 46 -23 142 28 142 20 0
25 -5 25 -25 0 -18 5 -25 20 -25 15 0 20 7 20 25 0 48 -80 62 -127 21z"/>
<path d="M11018 1193 c-22 -5 -24 -23 -3 -23 12 0 15 -14 15 -70 0 -56 -3 -70
-15 -70 -8 0 -15 -4 -15 -10 0 -5 25 -10 55 -10 30 0 55 5 55 10 0 6 -9 10
-20 10 -18 0 -20 7 -20 58 0 36 6 66 15 78 13 17 14 17 15 2 0 -11 8 -18 21
-18 15 0 20 5 17 22 -4 29 -34 35 -59 12 -17 -16 -19 -16 -19 -1 0 17 -9 19
-42 10z"/>
<path d="M11178 1193 c-22 -5 -24 -23 -3 -23 12 0 15 -14 15 -70 0 -56 -3 -70
-15 -70 -8 0 -15 -4 -15 -10 0 -5 23 -10 50 -10 28 0 50 5 50 10 0 6 -7 10
-15 10 -12 0 -15 16 -15 85 0 90 -1 92 -52 78z"/>
<path d="M1260 1181 c0 -5 8 -11 17 -13 11 -2 29 -33 49 -83 17 -43 36 -81 42
-83 5 -1 24 34 42 78 18 45 39 84 46 87 26 10 14 23 -21 23 -19 0 -35 -4 -35
-10 0 -5 5 -10 11 -10 11 0 7 -19 -18 -79 l-15 -36 -22 55 c-18 43 -20 56 -9
58 32 8 9 22 -37 22 -27 0 -50 -4 -50 -9z"/>
<path d="M10084 1046 c-8 -21 3 -36 27 -36 15 0 20 6 17 22 -4 27 -35 37 -44
14z"/>
<path d="M6864 476 c-8 -21 3 -36 27 -36 15 0 20 6 17 22 -4 27 -35 37 -44 14z"/>
<path d="M6810 395 c0 -10 11 -15 35 -15 l35 0 0 -60 0 -60 -35 0 c-24 0 -35
-5 -35 -15 0 -12 16 -15 80 -15 64 0 80 3 80 15 0 10 -10 15 -30 15 l-30 0 0
75 0 75 -50 0 c-38 0 -50 -4 -50 -15z"/>
</g>
</svg>
