<?xml version="1.0" standalone="no"?>
<!DOCTYPE svg PUBLIC "-//W3C//DTD SVG 20010904//EN"
 "http://www.w3.org/TR/2001/REC-SVG-20010904/DTD/svg10.dtd">
<svg version="1.0" xmlns="http://www.w3.org/2000/svg"
 width="1195.000000pt" height="171.000000pt" viewBox="0 0 1195.000000 171.000000"
 preserveAspectRatio="xMidYMid meet">
<metadata>
Created by potrace 1.16, written by Peter Selinger 2001-2019
</metadata>
<g transform="translate(0.000000,171.000000) scale(0.100000,-0.100000)"
fill="#000000" stroke="none">
<path d="M3220 1145 l0 -425 437 0 437 0 -27 -28 c-15 -15 -27 -31 -27 -35 0
-13 23 -7 42 10 17 15 18 14 18 -45 0 -48 3 -62 15 -62 12 0 15 14 15 62 0 59
1 60 18 45 19 -17 42 -23 42 -10 0 4 -12 20 -27 35 l-27 28 1327 0 1327 0 0
425 0 425 -1785 0 -1785 0 0 -425z m590 5 l0 -400 -285 0 -285 0 0 400 0 400
285 0 285 0 0 -400z m590 0 l0 -400 -285 0 -285 0 0 400 0 400 285 0 285 0 0
-400z m590 0 l0 -400 -285 0 -285 0 0 400 0 400 285 0 285 0 0 -400z m590 0
l0 -400 -285 0 -285 0 0 400 0 400 285 0 285 0 0 -400z m590 0 l0 -400 -280 0
-280 0 0 400 0 400 280 0 280 0 0 -400z m590 0 l0 -400 -280 0 -280 0 0 400 0
400 280 0 280 0 0 -400z"/>
<path d="M3473 1190 c-29 -12 -31 -50 -3 -50 11 0 20 5 20 11 0 14 62 7 67 -7
2 -7 -13 -15 -34 -19 -52 -9 -83 -31 -83 -58 1 -51 34 -66 128 -60 52 4 72 10
72 19 0 8 -9 14 -20 14 -18 0 -20 7 -20 58 0 45 -4 63 -19 76 -23 21 -78 29
-108 16z m83 -136 c-7 -19 -65 -18 -73 1 -7 20 -1 26 39 34 34 7 46 -4 34 -35z"/>
<path d="M4605 1260 c-8 -14 3 -30 21 -30 11 0 14 -21 14 -111 0 -99 2 -110
18 -108 9 2 27 0 39 -5 37 -12 89 17 103 58 25 77 -31 146 -102 126 -28 -9
-28 -8 -28 36 0 42 -1 44 -29 44 -17 0 -33 -4 -36 -10z m155 -132 c13 -25 13
-31 0 -55 -20 -36 -53 -41 -74 -11 -21 29 -20 62 0 83 23 23 56 15 74 -17z"/>
<path d="M5283 1193 c-60 -12 -84 -108 -39 -160 19 -22 33 -28 64 -28 42 0 82
26 82 52 0 18 -36 17 -44 -2 -3 -8 -16 -15 -29 -15 -37 0 -60 23 -60 60 0 20
7 38 18 46 22 16 65 19 65 4 0 -5 9 -10 20 -10 26 0 27 36 1 50 -20 10 -38 11
-78 3z"/>
<path d="M8250 1145 l0 -425 1785 0 1785 0 0 425 0 425 -1785 0 -1785 0 0
-425z m590 5 l0 -400 -280 0 -280 0 0 400 0 400 280 0 280 0 0 -400z m590 0
l0 -400 -280 0 -280 0 0 400 0 400 280 0 280 0 0 -400z m590 0 l0 -400 -280 0
-280 0 0 400 0 400 280 0 280 0 0 -400z m590 0 l0 -400 -280 0 -280 0 0 400 0
400 280 0 280 0 0 -400z m590 0 l0 -400 -280 0 -280 0 0 400 0 400 280 0 280
0 0 -400z m590 0 l0 -400 -280 0 -280 0 0 400 0 400 280 0 280 0 0 -400z"/>
<path d="M8503 1190 c-29 -12 -31 -50 -3 -50 11 0 20 5 20 11 0 14 62 7 67 -7
2 -7 -13 -15 -34 -19 -52 -9 -83 -31 -83 -58 1 -51 34 -66 128 -60 52 4 72 10
72 19 0 8 -9 14 -20 14 -18 0 -20 7 -20 58 0 45 -4 63 -19 76 -23 21 -78 29
-108 16z m83 -136 c-7 -19 -65 -18 -73 1 -7 20 -1 26 39 34 34 7 46 -4 34 -35z"/>
<path d="M9050 1175 c0 -8 8 -15 18 -15 10 0 28 -13 39 -29 l22 -28 -22 -31
c-12 -18 -30 -32 -39 -32 -10 0 -18 -7 -18 -15 0 -11 12 -15 45 -15 43 0 45 1
39 24 -3 14 -1 27 6 31 16 10 29 -12 23 -36 -5 -17 0 -19 41 -19 34 0 46 4 46
15 0 8 -8 15 -18 15 -10 0 -28 14 -41 31 -21 29 -22 31 -6 56 9 14 26 28 36
30 10 3 19 12 19 19 0 10 -13 14 -45 14 -45 0 -54 -7 -35 -26 8 -8 6 -15 -5
-24 -16 -13 -19 -6 -16 33 2 14 -6 17 -43 17 -34 0 -46 -4 -46 -15z"/>
<path d="M9635 1260 c-8 -14 3 -30 21 -30 11 0 14 -21 14 -111 0 -99 2 -110
18 -108 9 2 27 0 39 -5 37 -12 89 17 103 58 25 77 -31 146 -102 126 -28 -9
-28 -8 -28 36 0 42 -1 44 -29 44 -17 0 -33 -4 -36 -10z m155 -132 c13 -25 13
-31 0 -55 -20 -36 -53 -41 -74 -11 -21 29 -20 62 0 83 23 23 56 15 74 -17z"/>
<path d="M10313 1193 c-60 -12 -84 -108 -39 -160 19 -22 33 -28 64 -28 42 0
82 26 82 52 0 18 -36 17 -44 -2 -3 -8 -16 -15 -29 -15 -37 0 -60 23 -60 60 0
20 7 38 18 46 22 16 65 19 65 4 0 -5 9 -10 20 -10 26 0 27 36 1 50 -20 10 -38
11 -78 3z"/>
<path d="M853 1300 c-27 -11 -43 -40 -43 -79 0 -21 -5 -31 -15 -31 -8 0 -15
-4 -15 -10 0 -5 7 -10 15 -10 12 0 15 -14 15 -70 0 -56 -3 -70 -15 -70 -8 0
-15 -4 -15 -10 0 -5 25 -10 55 -10 30 0 55 5 55 10 0 6 -9 10 -20 10 -18 0
-20 7 -20 70 l0 70 40 0 40 0 0 -65 c0 -52 4 -69 20 -85 22 -22 51 -26 81 -10
13 7 19 7 19 0 0 -11 30 -13 54 -4 22 8 20 21 -4 27 -18 5 -20 14 -20 87 l0
82 -27 -7 c-37 -9 -41 -15 -20 -26 12 -7 17 -23 17 -57 0 -57 -22 -94 -53 -90
-20 3 -22 10 -25 90 l-3 88 -59 -7 -60 -6 0 40 c0 46 24 77 33 43 6 -25 37
-27 37 -2 0 20 -18 42 -34 41 -6 0 -21 -4 -33 -9z"/>
<path d="M150 1291 c0 -5 9 -13 20 -16 19 -6 20 -15 20 -126 0 -112 -1 -119
-20 -119 -11 0 -20 -4 -20 -10 0 -6 48 -10 124 -10 l124 0 6 31 c9 47 7 81 -4
74 -5 -3 -10 -15 -10 -26 0 -37 -35 -59 -95 -59 l-55 0 0 61 c0 60 0 60 28 57
16 -2 31 -12 37 -25 17 -38 25 -26 25 37 0 58 -15 84 -22 38 -2 -18 -11 -24
-35 -26 l-33 -3 0 51 c0 60 10 67 79 54 40 -8 47 -13 56 -41 11 -40 25 -43 25
-5 0 72 0 72 -131 72 -67 0 -119 -4 -119 -9z"/>
<path d="M452 1268 c4 -30 43 -33 43 -3 0 13 -8 21 -23 23 -20 3 -23 0 -20
-20z"/>
<path d="M952 1268 c2 -15 10 -23 23 -23 30 0 27 39 -3 43 -20 3 -23 0 -20
-20z"/>
<path d="M1034 1275 c-4 -9 -2 -21 4 -27 15 -15 44 -1 40 19 -4 23 -36 29 -44
8z"/>
<path d="M8030 1206 c0 -8 5 -18 10 -21 6 -3 10 -10 10 -16 0 -5 -219 -9 -565
-9 -496 0 -565 -2 -565 -15 0 -13 69 -15 565 -15 311 0 565 -2 565 -5 0 -3 -5
-14 -12 -25 -22 -35 0 -33 36 4 20 19 36 38 36 41 0 7 -68 75 -75 75 -3 0 -5
-6 -5 -14z"/>
<path d="M448 1193 c-22 -5 -24 -23 -3 -23 12 0 15 -14 15 -70 0 -56 -3 -70
-15 -70 -8 0 -15 -4 -15 -10 0 -5 23 -10 50 -10 28 0 50 5 50 10 0 6 -7 10
-15 10 -12 0 -15 16 -15 85 0 90 -1 92 -52 78z"/>
<path d="M568 1193 c-22 -5 -24 -23 -3 -23 12 0 15 -14 15 -70 0 -56 -3 -70
-15 -70 -8 0 -15 -4 -15 -10 0 -5 23 -10 50 -10 28 0 50 5 50 10 0 6 -7 10
-15 10 -12 0 -15 13 -15 58 0 47 4 63 21 78 35 31 53 9 57 -70 2 -54 0 -66
-13 -66 -8 0 -15 -4 -15 -10 0 -5 23 -10 50 -10 28 0 50 5 50 10 0 6 -9 10
-20 10 -18 0 -20 7 -20 75 0 71 -1 76 -26 87 -19 9 -33 9 -55 1 -16 -6 -29 -7
-29 -2 0 9 -22 10 -52 2z"/>
<path d="M1163 1176 c-23 -20 -24 -24 -15 -89 7 -53 6 -70 -5 -78 -24 -20 -15
-57 17 -74 65 -34 159 -7 160 46 0 35 -27 54 -86 59 -42 4 -60 9 -62 20 -2 12
5 15 35 12 51 -5 77 22 71 73 -4 37 0 43 19 24 14 -14 34 -3 27 15 -4 10 -25
13 -71 13 -52 -1 -71 -5 -90 -21z m72 -41 c0 -31 -4 -41 -19 -43 -32 -7 -50
50 -24 76 24 24 43 9 43 -33z m36 -135 c40 -22 10 -60 -46 -60 -14 0 -35 5
-46 10 -21 12 -26 46 -6 53 22 9 78 7 98 -3z"/>
<path d="M1369 1171 c-58 -58 -28 -155 53 -168 30 -4 41 -1 62 20 26 26 34 47
17 47 -5 0 -16 -11 -25 -25 -9 -14 -25 -25 -36 -25 -26 0 -60 34 -60 60 0 18
7 20 65 20 36 0 65 4 65 9 0 4 -5 22 -11 40 -21 58 -83 69 -130 22z m91 -10
c18 -34 11 -41 -35 -41 -49 0 -53 5 -29 38 19 27 50 29 64 3z"/>
<path d="M1548 1193 c-22 -5 -24 -23 -3 -23 12 0 15 -14 15 -70 0 -56 -3 -70
-15 -70 -8 0 -15 -4 -15 -10 0 -5 23 -10 50 -10 28 0 50 5 50 10 0 6 -7 10
-15 10 -12 0 -15 13 -15 58 0 47 4 63 21 78 35 31 53 9 57 -70 2 -54 0 -66
-13 -66 -8 0 -15 -4 -15 -10 0 -5 23 -10 50 -10 28 0 50 5 50 10 0 6 -9 10
-20 10 -18 0 -20 7 -20 75 0 71 -1 76 -26 87 -19 9 -33 9 -55 1 -16 -6 -29 -7
-29 -2 0 9 -22 10 -52 2z"/>
<path d="M4094 476 c-8 -21 3 -36 27 -36 15 0 20 6 17 22 -4 27 -35 37 -44 14z"/>
<path d="M4040 395 c0 -10 11 -15 35 -15 l35 0 0 -60 0 -60 -35 0 c-24 0 -35
-5 -35 -15 0 -12 16 -15 80 -15 64 0 80 3 80 15 0 10 -10 15 -30 15 l-30 0 0
75 0 75 -50 0 c-38 0 -50 -4 -50 -15z"/>
</g>
</svg>
