<?xml version="1.0" standalone="no"?>
<!DOCTYPE svg PUBLIC "-//W3C//DTD SVG 20010904//EN"
 "http://www.w3.org/TR/2001/REC-SVG-20010904/DTD/svg10.dtd">
<svg version="1.0" xmlns="http://www.w3.org/2000/svg"
 width="1156.000000pt" height="112.000000pt" viewBox="0 0 1156.000000 112.000000"
 preserveAspectRatio="xMidYMid meet">
<metadata>
Created by potrace 1.16, written by Peter Selinger 2001-2019
</metadata>
<g transform="translate(0.000000,112.000000) scale(0.100000,-0.100000)"
fill="#000000" stroke="none">
<path d="M4640 560 l0 -430 1785 0 1785 0 0 430 0 430 -1785 0 -1785 0 0 -430z
m590 0 l0 -400 -280 0 -280 0 0 400 0 400 280 0 280 0 0 -400z m590 0 l0 -400
-280 0 -280 0 0 400 0 400 280 0 280 0 0 -400z m600 0 l0 -400 -285 0 -285 0
0 400 0 400 285 0 285 0 0 -400z m590 0 l0 -400 -285 0 -285 0 0 400 0 400
285 0 285 0 0 -400z m590 0 l0 -400 -285 0 -285 0 0 400 0 400 285 0 285 0 0
-400z m590 0 l0 -400 -285 0 -285 0 0 400 0 400 285 0 285 0 0 -400z"/>
<path d="M4893 610 c-29 -12 -31 -50 -3 -50 11 0 20 5 20 11 0 14 62 7 67 -7
2 -7 -13 -15 -34 -19 -52 -9 -83 -31 -83 -58 1 -51 34 -66 128 -60 52 4 72 10
72 19 0 8 -9 14 -20 14 -18 0 -20 7 -20 58 0 45 -4 63 -19 76 -23 21 -78 29
-108 16z m83 -136 c-7 -19 -65 -18 -73 1 -7 20 -1 26 39 34 34 7 46 -4 34 -35z"/>
<path d="M5435 680 c-8 -14 3 -30 21 -30 11 0 14 -21 14 -111 0 -99 2 -110 18
-108 9 2 27 0 39 -5 37 -12 89 17 103 58 25 77 -31 146 -102 126 -28 -9 -28
-8 -28 36 0 42 -1 44 -29 44 -17 0 -33 -4 -36 -10z m155 -132 c13 -25 13 -31
0 -55 -20 -36 -53 -41 -74 -11 -21 29 -20 62 0 83 23 23 56 15 74 -17z"/>
<path d="M6113 613 c-60 -12 -84 -108 -39 -160 19 -22 33 -28 64 -28 42 0 82
26 82 52 0 18 -36 17 -44 -2 -3 -8 -16 -15 -29 -15 -37 0 -60 23 -60 60 0 20
7 38 18 46 22 16 65 19 65 4 0 -5 9 -10 20 -10 26 0 27 36 1 50 -20 10 -38 11
-78 3z"/>
<path d="M2480 723 c-34 -13 -50 -37 -50 -75 0 -27 -4 -38 -15 -38 -8 0 -15
-4 -15 -10 0 -5 7 -10 15 -10 12 0 15 -14 15 -70 0 -56 -3 -70 -15 -70 -8 0
-15 -5 -15 -11 0 -6 16 -9 40 -8 21 2 42 0 46 -4 15 -15 56 -6 79 18 33 32 33
81 1 128 -24 35 -24 36 -5 53 10 9 19 25 19 34 0 40 -61 78 -100 63z m50 -32
c17 -33 11 -50 -22 -71 -32 -20 -32 -20 -10 -26 42 -12 66 -89 42 -135 -13
-24 -38 -25 -36 -1 0 10 -6 16 -16 16 -16 -2 -18 9 -18 105 0 106 7 131 37
131 7 0 17 -9 23 -19z"/>
<path d="M10264 720 c-29 -12 -54 -49 -54 -80 0 -42 27 -68 86 -86 67 -19 87
-48 60 -89 -12 -18 -25 -25 -47 -25 -35 0 -79 39 -79 70 0 11 -4 20 -10 20 -5
0 -10 -25 -10 -55 0 -51 10 -69 25 -45 4 7 12 7 25 0 35 -19 89 -12 115 15 53
52 20 136 -61 156 -49 13 -75 39 -67 70 15 54 93 43 115 -17 18 -49 28 -42 28
21 0 30 -4 55 -10 55 -5 0 -10 -5 -10 -11 0 -7 -9 -9 -22 -5 -53 14 -64 15
-84 6z"/>
<path d="M150 710 c0 -5 9 -10 20 -10 19 0 20 -7 20 -121 0 -112 -1 -121 -20
-126 -37 -10 -20 -23 30 -23 50 0 67 13 30 23 -18 5 -20 14 -20 113 0 59 2
105 5 102 3 -3 40 -56 83 -118 42 -62 83 -115 90 -118 9 -3 12 27 12 126 0
122 1 131 20 137 37 12 21 25 -30 25 -54 0 -62 -8 -30 -28 18 -11 20 -23 20
-99 l0 -87 -72 107 -73 107 -42 0 c-24 0 -43 -4 -43 -10z"/>
<path d="M750 711 c0 -5 7 -11 15 -15 12 -4 15 -28 15 -126 0 -100 -2 -120
-15 -120 -8 0 -15 -4 -15 -10 0 -5 23 -10 50 -10 28 0 50 5 50 10 0 6 -7 10
-15 10 -12 0 -15 13 -15 58 0 47 4 63 21 78 35 31 53 9 57 -70 2 -54 0 -66
-13 -66 -8 0 -15 -4 -15 -10 0 -5 23 -10 50 -10 28 0 50 5 50 10 0 6 -9 10
-20 10 -18 0 -20 7 -20 75 0 71 -1 76 -26 87 -19 9 -33 9 -55 1 l-29 -11 0 59
0 59 -35 0 c-19 0 -35 -4 -35 -9z"/>
<path d="M10600 711 c0 -5 7 -11 15 -15 12 -4 15 -28 15 -126 0 -100 -2 -120
-15 -120 -8 0 -15 -4 -15 -10 0 -5 23 -10 50 -10 28 0 50 5 50 10 0 6 -7 10
-15 10 -12 0 -15 13 -15 58 0 47 4 63 21 78 35 31 53 9 57 -70 2 -54 0 -66
-13 -66 -8 0 -15 -4 -15 -10 0 -5 23 -10 50 -10 28 0 50 5 50 10 0 6 -9 10
-20 10 -18 0 -20 7 -20 75 0 71 -1 76 -26 87 -19 9 -33 9 -55 1 l-29 -11 0 59
0 59 -35 0 c-19 0 -35 -4 -35 -9z"/>
<path d="M482 688 c2 -15 10 -23 23 -23 30 0 27 39 -3 43 -20 3 -23 0 -20 -20z"/>
<path d="M2222 688 c4 -30 43 -33 43 -3 0 13 -8 21 -23 23 -20 3 -23 0 -20
-20z"/>
<path d="M2304 695 c-4 -9 -2 -21 4 -27 15 -15 44 -1 40 19 -4 23 -36 29 -44
8z"/>
<path d="M9728 690 c-42 -33 -37 -101 6 -84 19 7 21 41 4 47 -10 3 -10 7 1 20
30 37 81 8 81 -44 0 -40 -13 -63 -72 -127 -26 -30 -48 -58 -48 -63 0 -5 35 -9
79 -9 l79 0 6 31 c8 42 8 49 -4 49 -5 0 -10 -9 -10 -20 0 -17 -7 -20 -51 -20
l-50 0 60 58 c53 50 61 62 61 94 0 49 -26 78 -75 85 -31 4 -46 0 -67 -17z"/>
<path d="M11022 688 c2 -15 10 -23 23 -23 30 0 27 39 -3 43 -20 3 -23 0 -20
-20z"/>
<path d="M1014 658 c-5 -19 -19 -37 -32 -43 -27 -12 -29 -25 -2 -25 18 0 20
-7 20 -68 0 -54 4 -72 18 -85 40 -36 82 -11 82 47 0 38 -18 32 -22 -6 -2 -21
-8 -33 -18 -33 -12 0 -16 16 -18 73 l-3 72 31 0 c16 0 30 5 30 10 0 6 -13 10
-30 10 -28 0 -30 2 -30 40 0 48 -14 52 -26 8z"/>
<path d="M11154 658 c-5 -19 -19 -37 -32 -43 -27 -12 -29 -25 -2 -25 18 0 20
-7 20 -68 0 -54 4 -72 18 -85 40 -36 82 -11 82 47 0 38 -18 32 -22 -6 -2 -21
-8 -33 -18 -33 -12 0 -16 16 -18 73 l-3 72 31 0 c16 0 30 5 30 10 0 6 -13 10
-30 10 -28 0 -30 2 -30 40 0 48 -14 52 -26 8z"/>
<path d="M11314 658 c-5 -19 -19 -37 -32 -43 -27 -12 -29 -25 -2 -25 18 0 20
-7 20 -68 0 -54 4 -72 18 -85 40 -36 82 -11 82 47 0 38 -18 32 -22 -6 -2 -21
-8 -33 -18 -33 -12 0 -16 16 -18 73 l-3 72 31 0 c16 0 30 5 30 10 0 6 -13 10
-30 10 -28 0 -30 2 -30 40 0 48 -14 52 -26 8z"/>
<path d="M9460 623 c0 -9 7 -25 17 -35 16 -17 -2 -18 -555 -18 -375 0 -572 -3
-572 -10 0 -7 197 -10 572 -10 553 0 571 -1 555 -18 -17 -19 -23 -53 -9 -51 4
0 22 18 41 40 l33 39 -33 39 c-38 44 -49 49 -49 24z"/>
<path d="M478 613 c-22 -5 -24 -23 -3 -23 12 0 15 -14 15 -70 0 -56 -3 -70
-15 -70 -8 0 -15 -4 -15 -10 0 -5 23 -10 50 -10 28 0 50 5 50 10 0 6 -7 10
-15 10 -12 0 -15 16 -15 85 0 90 -1 92 -52 78z"/>
<path d="M603 596 c-24 -21 -28 -32 -28 -74 0 -59 21 -89 70 -98 38 -7 70 7
86 37 17 32 0 37 -23 6 -23 -31 -48 -35 -71 -9 -42 46 -23 142 28 142 20 0 25
-5 25 -25 0 -18 5 -25 20 -25 15 0 20 7 20 25 0 48 -80 62 -127 21z"/>
<path d="M1499 591 c-58 -58 -28 -155 53 -168 30 -4 41 -1 62 20 26 26 34 47
17 47 -5 0 -16 -11 -25 -25 -9 -14 -25 -25 -36 -25 -26 0 -60 34 -60 60 0 18
7 20 65 20 36 0 65 4 65 9 0 4 -5 22 -11 40 -21 58 -83 69 -130 22z m91 -10
c18 -34 11 -41 -35 -41 -49 0 -53 5 -29 38 19 27 50 29 64 3z"/>
<path d="M1678 613 c-22 -5 -24 -23 -3 -23 12 0 15 -14 15 -70 0 -56 -3 -70
-15 -70 -8 0 -15 -4 -15 -10 0 -5 25 -10 55 -10 30 0 55 5 55 10 0 6 -9 10
-20 10 -18 0 -20 7 -20 58 0 36 6 66 15 78 13 17 14 17 15 2 0 -11 8 -18 21
-18 15 0 20 5 17 22 -4 29 -34 35 -59 12 -17 -16 -19 -16 -19 -1 0 17 -9 19
-42 10z"/>
<path d="M1853 596 c-23 -20 -24 -24 -15 -89 7 -53 6 -70 -5 -78 -24 -20 -15
-57 17 -74 65 -34 159 -7 160 46 0 35 -27 54 -86 59 -42 4 -60 9 -62 20 -2 12
5 15 35 12 51 -5 77 22 71 73 -4 37 0 43 19 24 14 -14 34 -3 27 15 -4 10 -25
13 -71 13 -52 -1 -71 -5 -90 -21z m72 -41 c0 -31 -4 -41 -19 -43 -32 -7 -50
50 -24 76 24 24 43 9 43 -33z m36 -135 c40 -22 10 -60 -46 -60 -14 0 -35 5
-46 10 -21 12 -26 46 -6 53 22 9 78 7 98 -3z"/>
<path d="M2048 613 c-22 -5 -24 -23 -3 -23 12 0 15 -14 15 -70 0 -56 -3 -70
-15 -70 -8 0 -15 -4 -15 -10 0 -5 25 -10 55 -10 30 0 55 5 55 10 0 6 -9 10
-20 10 -18 0 -20 7 -20 58 0 36 6 66 15 78 13 17 14 17 15 2 0 -11 8 -18 21
-18 15 0 20 5 17 22 -4 29 -34 35 -59 12 -17 -16 -19 -16 -19 -1 0 17 -9 19
-42 10z"/>
<path d="M2219 591 c-57 -58 -28 -155 51 -167 50 -7 97 24 106 71 19 102 -86
166 -157 96z m100 -5 c18 -21 24 -77 12 -108 -15 -39 -58 -48 -83 -18 -22 27
-24 88 -2 118 17 25 56 29 73 8z"/>
<path d="M2639 591 c-58 -58 -28 -155 53 -168 30 -4 41 -1 62 20 26 26 34 47
17 47 -5 0 -16 -11 -25 -25 -9 -14 -25 -25 -36 -25 -26 0 -60 34 -60 60 0 18
7 20 65 20 36 0 65 4 65 9 0 4 -5 22 -11 40 -21 58 -83 69 -130 22z m91 -10
c18 -34 11 -41 -35 -41 -49 0 -53 5 -29 38 19 27 50 29 64 3z"/>
<path d="M2808 613 c-22 -5 -24 -23 -3 -23 12 0 15 -14 15 -70 0 -56 -3 -70
-15 -70 -8 0 -15 -4 -15 -10 0 -5 25 -10 55 -10 30 0 55 5 55 10 0 6 -9 10
-20 10 -18 0 -20 7 -20 58 0 36 6 66 15 78 13 17 14 17 15 2 0 -11 8 -18 21
-18 15 0 20 5 17 22 -4 29 -34 35 -59 12 -17 -16 -19 -16 -19 -1 0 17 -9 19
-42 10z"/>
<path d="M2968 613 c-22 -5 -24 -23 -3 -23 12 0 15 -14 15 -70 0 -56 -3 -70
-15 -70 -8 0 -15 -4 -15 -10 0 -5 23 -10 50 -10 28 0 50 5 50 10 0 6 -7 10
-15 10 -12 0 -15 13 -15 58 0 47 4 63 21 78 35 31 53 9 57 -70 2 -54 0 -66
-13 -66 -8 0 -15 -4 -15 -10 0 -5 23 -10 50 -10 28 0 50 5 50 10 0 6 -9 10
-20 10 -18 0 -20 7 -20 75 0 71 -1 76 -26 87 -19 9 -33 9 -55 1 -16 -6 -29 -7
-29 -2 0 9 -22 10 -52 2z"/>
<path d="M10463 596 c-24 -21 -28 -32 -28 -74 0 -59 21 -89 70 -98 38 -7 70 7
86 37 17 32 0 37 -23 6 -23 -31 -48 -35 -71 -9 -42 46 -23 142 28 142 20 0 25
-5 25 -25 0 -18 5 -25 20 -25 15 0 20 7 20 25 0 48 -80 62 -127 21z"/>
<path d="M10848 613 c-22 -5 -24 -23 -3 -23 12 0 15 -14 15 -70 0 -56 -3 -70
-15 -70 -8 0 -15 -4 -15 -10 0 -5 25 -10 55 -10 30 0 55 5 55 10 0 6 -9 10
-20 10 -18 0 -20 7 -20 58 0 36 6 66 15 78 13 17 14 17 15 2 0 -11 8 -18 21
-18 15 0 20 5 17 22 -4 29 -34 35 -59 12 -17 -16 -19 -16 -19 -1 0 17 -9 19
-42 10z"/>
<path d="M11018 613 c-22 -5 -24 -23 -3 -23 12 0 15 -14 15 -70 0 -56 -3 -70
-15 -70 -8 0 -15 -4 -15 -10 0 -5 23 -10 50 -10 28 0 50 5 50 10 0 6 -7 10
-15 10 -12 0 -15 16 -15 85 0 90 -1 92 -52 78z"/>
<path d="M1260 601 c0 -5 8 -11 17 -13 11 -2 29 -33 49 -83 17 -43 36 -81 42
-83 5 -1 24 34 42 78 18 45 39 84 46 87 26 10 14 23 -21 23 -19 0 -35 -4 -35
-10 0 -5 5 -10 11 -10 11 0 7 -19 -18 -79 l-15 -36 -22 55 c-18 43 -20 56 -9
58 32 8 9 22 -37 22 -27 0 -50 -4 -50 -9z"/>
<path d="M9924 466 c-8 -21 3 -36 27 -36 15 0 20 6 17 22 -4 27 -35 37 -44 14z"/>
</g>
</svg>
