<?xml version="1.0" standalone="no"?>
<!DOCTYPE svg PUBLIC "-//W3C//DTD SVG 20010904//EN"
 "http://www.w3.org/TR/2001/REC-SVG-20010904/DTD/svg10.dtd">
<svg version="1.0" xmlns="http://www.w3.org/2000/svg"
 width="1673.000000pt" height="112.000000pt" viewBox="0 0 1673.000000 112.000000"
 preserveAspectRatio="xMidYMid meet">
<metadata>
Created by potrace 1.16, written by Peter Selinger 2001-2019
</metadata>
<g transform="translate(0.000000,112.000000) scale(0.100000,-0.100000)"
fill="#000000" stroke="none">
<path d="M3590 560 l0 -430 1785 0 1785 0 0 430 0 430 -1785 0 -1785 0 0 -430z
m600 0 l0 -400 -285 0 -285 0 0 400 0 400 285 0 285 0 0 -400z m590 0 l0 -400
-285 0 -285 0 0 400 0 400 285 0 285 0 0 -400z m590 0 l0 -400 -285 0 -285 0
0 400 0 400 285 0 285 0 0 -400z m590 0 l0 -400 -285 0 -285 0 0 400 0 400
285 0 285 0 0 -400z m590 0 l0 -400 -285 0 -285 0 0 400 0 400 285 0 285 0 0
-400z m590 0 l0 -400 -285 0 -285 0 0 400 0 400 285 0 285 0 0 -400z"/>
<path d="M3843 610 c-29 -12 -31 -50 -3 -50 11 0 20 5 20 11 0 14 62 7 67 -7
2 -7 -13 -15 -34 -19 -52 -9 -83 -31 -83 -58 1 -51 34 -66 128 -60 52 4 72 10
72 19 0 8 -9 14 -20 14 -18 0 -20 7 -20 58 0 45 -4 63 -19 76 -23 21 -78 29
-108 16z m83 -136 c-7 -19 -65 -18 -73 1 -7 20 -1 26 39 34 34 7 46 -4 34 -35z"/>
<path d="M4385 680 c-8 -14 3 -30 21 -30 11 0 14 -21 14 -111 0 -99 2 -110 18
-108 9 2 27 0 39 -5 37 -12 89 17 103 58 25 77 -31 146 -102 126 -28 -9 -28
-8 -28 36 0 42 -1 44 -29 44 -17 0 -33 -4 -36 -10z m155 -132 c13 -25 13 -31
0 -55 -20 -36 -53 -41 -74 -11 -21 29 -20 62 0 83 23 23 56 15 74 -17z"/>
<path d="M5073 613 c-60 -12 -84 -108 -39 -160 19 -22 33 -28 64 -28 42 0 82
26 82 52 0 18 -36 17 -44 -2 -3 -8 -16 -15 -29 -15 -37 0 -60 23 -60 60 0 20
7 38 18 46 22 16 65 19 65 4 0 -5 9 -10 20 -10 26 0 27 36 1 50 -20 10 -38 11
-78 3z"/>
<path d="M5680 674 c0 -9 9 -18 20 -21 13 -3 20 -14 20 -29 0 -21 -3 -23 -25
-14 -19 7 -35 6 -59 -4 -83 -35 -65 -181 21 -178 16 0 52 1 81 1 52 1 72 18
32 28 -19 5 -20 14 -20 119 l0 114 -35 0 c-25 0 -35 -4 -35 -16z m29 -125 c29
-52 -32 -114 -73 -74 -34 35 -6 109 38 103 11 -2 27 -15 35 -29z"/>
<path d="M6228 605 c-73 -41 -62 -149 18 -175 49 -16 114 10 114 47 0 18 -36
17 -44 -2 -12 -31 -96 -6 -96 28 0 4 32 7 71 7 l72 0 -7 32 c-12 63 -75 93
-128 63z m82 -45 c10 -19 8 -20 -40 -20 -27 0 -50 2 -50 4 0 3 7 12 16 20 22
22 61 20 74 -4z"/>
<path d="M6840 670 c-11 -11 -20 -29 -20 -40 0 -16 -7 -20 -31 -20 -38 0 -35
-24 4 -28 26 -3 27 -6 27 -62 0 -56 -1 -59 -27 -62 -14 -2 -28 -9 -31 -15 -3
-10 17 -13 77 -13 65 0 81 3 81 15 0 10 -10 15 -30 15 -30 0 -30 0 -30 59 0
60 0 60 32 63 46 4 49 28 4 28 -29 0 -36 4 -36 19 0 24 19 31 42 17 25 -15 46
7 28 29 -18 21 -66 19 -90 -5z"/>
<path d="M8630 560 l0 -430 2375 0 2375 0 0 430 0 430 -2375 0 -2375 0 0 -430z
m590 0 l0 -400 -280 0 -280 0 0 400 0 400 280 0 280 0 0 -400z m590 0 l0 -400
-280 0 -280 0 0 400 0 400 280 0 280 0 0 -400z m590 0 l0 -400 -280 0 -280 0
0 400 0 400 280 0 280 0 0 -400z m590 0 l0 -400 -280 0 -280 0 0 400 0 400
280 0 280 0 0 -400z m590 0 l0 -400 -280 0 -280 0 0 400 0 400 280 0 280 0 0
-400z m590 0 l0 -400 -280 0 -280 0 0 400 0 400 280 0 280 0 0 -400z m590 0
l0 -400 -280 0 -280 0 0 400 0 400 280 0 280 0 0 -400z m590 0 l0 -400 -280 0
-280 0 0 400 0 400 280 0 280 0 0 -400z"/>
<path d="M8883 610 c-29 -12 -31 -50 -3 -50 11 0 20 5 20 11 0 14 62 7 67 -7
2 -7 -13 -15 -34 -19 -52 -9 -83 -31 -83 -58 1 -51 34 -66 128 -60 52 4 72 10
72 19 0 8 -9 14 -20 14 -18 0 -20 7 -20 58 0 45 -4 63 -19 76 -23 21 -78 29
-108 16z m83 -136 c-7 -19 -65 -18 -73 1 -7 20 -1 26 39 34 34 7 46 -4 34 -35z"/>
<path d="M9425 680 c-8 -14 3 -30 21 -30 11 0 14 -21 14 -111 0 -99 2 -110 18
-108 9 2 27 0 39 -5 37 -12 89 17 103 58 25 77 -31 146 -102 126 -28 -9 -28
-8 -28 36 0 42 -1 44 -29 44 -17 0 -33 -4 -36 -10z m155 -132 c13 -25 13 -31
0 -55 -20 -36 -53 -41 -74 -11 -21 29 -20 62 0 83 23 23 56 15 74 -17z"/>
<path d="M10103 613 c-60 -12 -84 -108 -39 -160 19 -22 33 -28 64 -28 42 0 82
26 82 52 0 18 -36 17 -44 -2 -3 -8 -16 -15 -29 -15 -37 0 -60 23 -60 60 0 20
7 38 18 46 22 16 65 19 65 4 0 -5 9 -10 20 -10 26 0 27 36 1 50 -20 10 -38 11
-78 3z"/>
<path d="M10710 674 c0 -9 9 -18 20 -21 13 -3 20 -14 20 -29 0 -21 -3 -23 -25
-14 -19 7 -35 6 -59 -4 -83 -35 -65 -181 21 -178 16 0 52 1 81 1 52 1 72 18
32 28 -19 5 -20 14 -20 119 l0 114 -35 0 c-25 0 -35 -4 -35 -16z m29 -125 c29
-52 -32 -114 -73 -74 -34 35 -6 109 38 103 11 -2 27 -15 35 -29z"/>
<path d="M11258 605 c-73 -41 -62 -149 18 -175 49 -16 114 10 114 47 0 18 -36
17 -44 -2 -12 -31 -96 -6 -96 28 0 4 32 7 71 7 l72 0 -7 32 c-12 63 -75 93
-128 63z m82 -45 c10 -19 8 -20 -40 -20 -27 0 -50 2 -50 4 0 3 7 12 16 20 22
22 61 20 74 -4z"/>
<path d="M11870 670 c-11 -11 -20 -29 -20 -40 0 -16 -7 -20 -31 -20 -38 0 -35
-24 4 -28 26 -3 27 -6 27 -62 0 -56 -1 -59 -27 -62 -14 -2 -28 -9 -31 -15 -3
-10 17 -13 77 -13 65 0 81 3 81 15 0 10 -10 15 -30 15 -30 0 -30 0 -30 59 0
60 0 60 32 63 46 4 49 28 4 28 -29 0 -36 4 -36 19 0 24 19 31 42 17 25 -15 46
7 28 29 -18 21 -66 19 -90 -5z"/>
<path d="M1430 723 c-34 -13 -50 -37 -50 -75 0 -27 -4 -38 -15 -38 -8 0 -15
-4 -15 -10 0 -5 7 -10 15 -10 12 0 15 -14 15 -70 0 -56 -3 -70 -15 -70 -8 0
-15 -5 -15 -11 0 -6 16 -9 40 -8 21 2 42 0 46 -4 15 -15 56 -6 79 18 33 32 33
81 1 128 -24 35 -24 36 -5 53 10 9 19 25 19 34 0 40 -61 78 -100 63z m50 -32
c17 -33 11 -50 -22 -71 -32 -20 -32 -20 -10 -26 42 -12 66 -89 42 -135 -13
-24 -38 -25 -36 -1 0 10 -6 16 -16 16 -16 -2 -18 9 -18 105 0 106 7 131 37
131 7 0 17 -9 23 -19z"/>
<path d="M15434 720 c-29 -12 -54 -49 -54 -80 0 -42 27 -68 86 -86 67 -19 87
-48 60 -89 -12 -18 -25 -25 -47 -25 -35 0 -79 39 -79 70 0 11 -4 20 -10 20 -5
0 -10 -25 -10 -55 0 -51 10 -69 25 -45 4 7 12 7 25 0 35 -19 89 -12 115 15 53
52 20 136 -61 156 -49 13 -75 39 -67 70 15 54 93 43 115 -17 18 -49 28 -42 28
21 0 30 -4 55 -10 55 -5 0 -10 -5 -10 -11 0 -7 -9 -9 -22 -5 -53 14 -64 15
-84 6z"/>
<path d="M140 712 c0 -4 10 -12 22 -17 16 -7 35 -45 71 -142 28 -73 56 -133
62 -133 7 0 34 59 61 131 37 98 55 134 72 142 36 17 26 27 -28 27 -50 0 -64
-11 -34 -28 15 -8 14 -16 -9 -78 -15 -38 -31 -82 -37 -99 -12 -29 -12 -28 -50
70 -33 85 -37 102 -24 111 25 19 16 24 -46 24 -33 0 -60 -3 -60 -8z"/>
<path d="M15770 711 c0 -5 7 -11 15 -15 12 -4 15 -28 15 -126 0 -100 -2 -120
-15 -120 -8 0 -15 -4 -15 -10 0 -5 23 -10 50 -10 28 0 50 5 50 10 0 6 -7 10
-15 10 -12 0 -15 13 -15 58 0 47 4 63 21 78 35 31 53 9 57 -70 2 -54 0 -66
-13 -66 -8 0 -15 -4 -15 -10 0 -5 23 -10 50 -10 28 0 50 5 50 10 0 6 -9 10
-20 10 -18 0 -20 7 -20 75 0 71 -1 76 -26 87 -19 9 -33 9 -55 1 l-29 -11 0 59
0 59 -35 0 c-19 0 -35 -4 -35 -9z"/>
<path d="M1172 688 c4 -30 43 -33 43 -3 0 13 -8 21 -23 23 -20 3 -23 0 -20
-20z"/>
<path d="M1254 695 c-4 -9 -2 -21 4 -27 15 -15 44 -1 40 19 -4 23 -36 29 -44
8z"/>
<path d="M14898 690 c-42 -33 -37 -101 6 -84 19 7 21 41 4 47 -10 3 -10 7 1
20 30 37 81 8 81 -44 0 -40 -13 -63 -72 -127 -26 -30 -48 -58 -48 -63 0 -5 35
-9 79 -9 l79 0 6 31 c8 42 8 49 -4 49 -5 0 -10 -9 -10 -20 0 -17 -7 -20 -51
-20 l-50 0 60 58 c53 50 61 62 61 94 0 49 -26 78 -75 85 -31 4 -46 0 -67 -17z"/>
<path d="M16182 688 c2 -15 10 -23 23 -23 30 0 27 39 -3 43 -20 3 -23 0 -20
-20z"/>
<path d="M16324 658 c-5 -19 -19 -37 -32 -43 -27 -12 -29 -25 -2 -25 18 0 20
-7 20 -68 0 -54 4 -72 18 -85 40 -36 82 -11 82 47 0 38 -18 32 -22 -6 -2 -21
-8 -33 -18 -33 -12 0 -16 16 -18 73 l-3 72 31 0 c16 0 30 5 30 10 0 6 -13 10
-30 10 -28 0 -30 2 -30 40 0 48 -14 52 -26 8z"/>
<path d="M16484 658 c-5 -19 -19 -37 -32 -43 -27 -12 -29 -25 -2 -25 18 0 20
-7 20 -68 0 -54 4 -72 18 -85 40 -36 82 -11 82 47 0 38 -18 32 -22 -6 -2 -21
-8 -33 -18 -33 -12 0 -16 16 -18 73 l-3 72 31 0 c16 0 30 5 30 10 0 6 -13 10
-30 10 -28 0 -30 2 -30 40 0 48 -14 52 -26 8z"/>
<path d="M8410 623 c0 -9 7 -25 17 -35 16 -17 -2 -18 -555 -18 -375 0 -572 -3
-572 -10 0 -7 197 -10 572 -10 553 0 571 -1 555 -18 -17 -19 -23 -53 -9 -51 4
0 22 18 41 40 l33 39 -33 39 c-38 44 -49 49 -49 24z"/>
<path d="M14620 630 c0 -6 7 -22 16 -35 l16 -25 -566 0 c-371 0 -566 -3 -566
-10 0 -7 195 -10 566 -10 l565 0 -17 -30 c-27 -46 -10 -46 35 -1 l41 41 -40
40 c-42 42 -50 47 -50 30z"/>
<path d="M459 591 c-58 -58 -28 -155 53 -168 30 -4 41 -1 62 20 26 26 34 47
17 47 -5 0 -16 -11 -25 -25 -9 -14 -25 -25 -36 -25 -26 0 -60 34 -60 60 0 18
7 20 65 20 36 0 65 4 65 9 0 4 -5 22 -11 40 -21 58 -83 69 -130 22z m91 -10
c18 -34 11 -41 -35 -41 -49 0 -53 5 -29 38 19 27 50 29 64 3z"/>
<path d="M628 613 c-22 -5 -24 -23 -3 -23 12 0 15 -14 15 -70 0 -56 -3 -70
-15 -70 -8 0 -15 -4 -15 -10 0 -5 25 -10 55 -10 30 0 55 5 55 10 0 6 -9 10
-20 10 -18 0 -20 7 -20 58 0 36 6 66 15 78 13 17 14 17 15 2 0 -11 8 -18 21
-18 15 0 20 5 17 22 -4 29 -34 35 -59 12 -17 -16 -19 -16 -19 -1 0 17 -9 19
-42 10z"/>
<path d="M803 596 c-23 -20 -24 -24 -15 -89 7 -53 6 -70 -5 -78 -24 -20 -15
-57 17 -74 65 -34 159 -7 160 46 0 35 -27 54 -86 59 -42 4 -60 9 -62 20 -2 12
5 15 35 12 51 -5 77 22 71 73 -4 37 0 43 19 24 14 -14 34 -3 27 15 -4 10 -25
13 -71 13 -52 -1 -71 -5 -90 -21z m72 -41 c0 -31 -4 -41 -19 -43 -32 -7 -50
50 -24 76 24 24 43 9 43 -33z m36 -135 c40 -22 10 -60 -46 -60 -14 0 -35 5
-46 10 -21 12 -26 46 -6 53 22 9 78 7 98 -3z"/>
<path d="M998 613 c-22 -5 -24 -23 -3 -23 12 0 15 -14 15 -70 0 -56 -3 -70
-15 -70 -8 0 -15 -4 -15 -10 0 -5 25 -10 55 -10 30 0 55 5 55 10 0 6 -9 10
-20 10 -18 0 -20 7 -20 58 0 36 6 66 15 78 13 17 14 17 15 2 0 -11 8 -18 21
-18 15 0 20 5 17 22 -4 29 -34 35 -59 12 -17 -16 -19 -16 -19 -1 0 17 -9 19
-42 10z"/>
<path d="M1169 591 c-57 -58 -28 -155 51 -167 50 -7 97 24 106 71 19 102 -86
166 -157 96z m100 -5 c18 -21 24 -77 12 -108 -15 -39 -58 -48 -83 -18 -22 27
-24 88 -2 118 17 25 56 29 73 8z"/>
<path d="M1589 591 c-58 -58 -28 -155 53 -168 30 -4 41 -1 62 20 26 26 34 47
17 47 -5 0 -16 -11 -25 -25 -9 -14 -25 -25 -36 -25 -26 0 -60 34 -60 60 0 18
7 20 65 20 36 0 65 4 65 9 0 4 -5 22 -11 40 -21 58 -83 69 -130 22z m91 -10
c18 -34 11 -41 -35 -41 -49 0 -53 5 -29 38 19 27 50 29 64 3z"/>
<path d="M1758 613 c-22 -5 -24 -23 -3 -23 12 0 15 -14 15 -70 0 -56 -3 -70
-15 -70 -8 0 -15 -4 -15 -10 0 -5 25 -10 55 -10 30 0 55 5 55 10 0 6 -9 10
-20 10 -18 0 -20 7 -20 58 0 36 6 66 15 78 13 17 14 17 15 2 0 -11 8 -18 21
-18 15 0 20 5 17 22 -4 29 -34 35 -59 12 -17 -16 -19 -16 -19 -1 0 17 -9 19
-42 10z"/>
<path d="M1918 613 c-22 -5 -24 -23 -3 -23 12 0 15 -14 15 -70 0 -56 -3 -70
-15 -70 -8 0 -15 -4 -15 -10 0 -5 23 -10 50 -10 28 0 50 5 50 10 0 6 -7 10
-15 10 -12 0 -15 13 -15 58 0 47 4 63 21 78 35 31 53 9 57 -70 2 -54 0 -66
-13 -66 -8 0 -15 -4 -15 -10 0 -5 23 -10 50 -10 28 0 50 5 50 10 0 6 -9 10
-20 10 -18 0 -20 7 -20 75 0 71 -1 76 -26 87 -19 9 -33 9 -55 1 -16 -6 -29 -7
-29 -2 0 9 -22 10 -52 2z"/>
<path d="M15633 596 c-24 -21 -28 -32 -28 -74 0 -59 21 -89 70 -98 38 -7 70 7
86 37 17 32 0 37 -23 6 -23 -31 -48 -35 -71 -9 -42 46 -23 142 28 142 20 0 25
-5 25 -25 0 -18 5 -25 20 -25 15 0 20 7 20 25 0 48 -80 62 -127 21z"/>
<path d="M16018 613 c-22 -5 -24 -23 -3 -23 12 0 15 -14 15 -70 0 -56 -3 -70
-15 -70 -8 0 -15 -4 -15 -10 0 -5 25 -10 55 -10 30 0 55 5 55 10 0 6 -9 10
-20 10 -18 0 -20 7 -20 58 0 36 6 66 15 78 13 17 14 17 15 2 0 -11 8 -18 21
-18 15 0 20 5 17 22 -4 29 -34 35 -59 12 -17 -16 -19 -16 -19 -1 0 17 -9 19
-42 10z"/>
<path d="M16178 613 c-22 -5 -24 -23 -3 -23 12 0 15 -14 15 -70 0 -56 -3 -70
-15 -70 -8 0 -15 -4 -15 -10 0 -5 23 -10 50 -10 28 0 50 5 50 10 0 6 -7 10
-15 10 -12 0 -15 16 -15 85 0 90 -1 92 -52 78z"/>
<path d="M15094 466 c-8 -21 3 -36 27 -36 15 0 20 6 17 22 -4 27 -35 37 -44
14z"/>
</g>
</svg>
